SplineFontDB: 3.2
FontName: themify
FullName: themify
FamilyName: themify
Weight: Book
Version: 1.0
ItalicAngle: 0
UnderlinePosition: 0
UnderlineWidth: 0
Ascent: 480
Descent: 32
InvalidEm: 0
sfntRevision: 0x00010000
LayerCount: 2
Layer: 0 1 "Arri+AOgA-re" 1
Layer: 1 1 "Avant" 0
XUID: [1021 736 -1191719374 3265884]
StyleMap: 0x0040
FSType: 0
OS2Version: 3
OS2_WeightWidthSlopeOnly: 0
OS2_UseTypoMetrics: 0
CreationTime: 1400873503
ModificationTime: 1719562165
PfmFamily: 81
TTFWeight: 400
TTFWidth: 5
LineGap: 0
VLineGap: 0
Panose: 0 0 0 0 0 0 0 0 0 0
OS2TypoAscent: 480
OS2TypoAOffset: 0
OS2TypoDescent: -32
OS2TypoDOffset: 0
OS2TypoLinegap: -32
OS2WinAscent: 480
OS2WinAOffset: 0
OS2WinDescent: 32
OS2WinDOffset: 0
HheadAscent: 480
HheadAOffset: 0
HheadDescent: -32
HheadDOffset: 0
OS2SubXSize: 332
OS2SubYSize: 358
OS2SubXOff: 0
OS2SubYOff: 71
OS2SupXSize: 332
OS2SupYSize: 358
OS2SupXOff: 0
OS2SupYOff: 245
OS2StrikeYSize: 25
OS2StrikeYPos: 132
OS2CodePages: 00000001.00000000
OS2UnicodeRanges: 00000001.10000000.00000000.00000000
DEI: 91125
ShortTable: maxp 16
  1
  0
  356
  699
  45
  0
  0
  2
  0
  0
  0
  0
  0
  0
  0
  0
EndShort
LangName: 1033 "" "" "Regular" "themify" "" "Version 1.0" "" "" "" "" "Generated by IcoMoon"
GaspTable: 1 65535 15 1
Encoding: UnicodeBmp
UnicodeInterp: none
NameList: AGL For New Fonts
DisplaySize: -48
AntiAlias: 1
FitToEm: 0
WinInfo: 59004 33 14
BeginChars: 65536 357

StartChar: uni0000
Encoding: 0 0 1
Width: 0
GlyphClass: 1
Flags: W
LayerCount: 2
Fore
SplineSet
0 0 m 1,0,-1
 0 0 l 1,1,-1
 0 0 l 1,2,-1
 0 0 l 1,0,-1
EndSplineSet
EndChar

StartChar: uni0001
Encoding: 1 1 2
Width: 0
GlyphClass: 1
Flags: W
LayerCount: 2
Fore
SplineSet
0 0 m 1,0,-1
 0 0 l 1,1,-1
 0 0 l 1,2,-1
 0 0 l 1,0,-1
EndSplineSet
EndChar

StartChar: space
Encoding: 32 32 3
Width: 256
GlyphClass: 1
Flags: W
LayerCount: 2
Fore
SplineSet
0 0 m 1,0,-1
 0 0 l 1,1,-1
 0 0 l 1,2,-1
 0 0 l 1,0,-1
EndSplineSet
EndChar

StartChar: uniE600
Encoding: 58880 58880 4
Width: 512
GlyphClass: 1
Flags: W
LayerCount: 2
Fore
SplineSet
512 329 m 1,0,-1
 413 329 l 1,1,-1
 483 259 l 1,2,-1
 462 238 l 1,3,-1
 392 308 l 1,4,-1
 392 209 l 1,5,-1
 361 209 l 1,6,-1
 361 308 l 1,7,-1
 41 -13 l 1,8,-1
 19 8 l 1,9,-1
 340 329 l 1,10,-1
 241 329 l 1,11,-1
 241 360 l 1,12,-1
 340 360 l 1,13,-1
 270 430 l 1,14,-1
 291 451 l 1,15,-1
 361 381 l 1,16,-1
 361 480 l 1,17,-1
 392 480 l 1,18,-1
 392 381 l 1,19,-1
 460 450 l 1,20,-1
 482 428 l 1,21,-1
 413 360 l 1,22,-1
 512 360 l 1,23,-1
 512 329 l 1,24,-1
 512 329 l 1,0,-1
EndSplineSet
EndChar

StartChar: uniE601
Encoding: 58881 58881 5
Width: 512
GlyphClass: 1
Flags: W
LayerCount: 2
Fore
SplineSet
108 301 m 1,0,1
 97 301 97 301 88.5 298.5 c 128,-1,2
 80 296 80 296 74 291 c 128,-1,3
 68 286 68 286 64.5 278.5 c 128,-1,4
 61 271 61 271 61 262 c 2,5,-1
 61 197 l 2,6,7
 61 192 61 192 62 187.5 c 128,-1,8
 63 183 63 183 65 179 c 128,-1,9
 67 175 67 175 69.5 171 c 128,-1,10
 72 167 72 167 75 164 c 256,11,12
 78 161 78 161 82 158 c 128,-1,13
 86 155 86 155 90 153.5 c 128,-1,14
 94 152 94 152 98.5 151 c 128,-1,15
 103 150 103 150 108 150 c 2,16,-1
 161 150 l 1,17,-1
 332 -21 l 1,18,-1
 332 474 l 1,19,-1
 162 301 l 1,20,-1
 108 301 l 1,21,-1
 108 301 l 1,0,1
302 400 m 1,22,-1
 302 52 l 1,23,-1
 173 180 l 1,24,-1
 108 180 l 2,25,26
 105 180 105 180 102 181.5 c 128,-1,27
 99 183 99 183 96.5 185 c 128,-1,28
 94 187 94 187 92.5 190 c 128,-1,29
 91 193 91 193 91 197 c 2,30,-1
 91 262 l 2,31,32
 91 263 91 263 91.5 264.5 c 128,-1,33
 92 266 92 266 93.5 267.5 c 128,-1,34
 95 269 95 269 98.5 270 c 128,-1,35
 102 271 102 271 108 271 c 2,36,-1
 175 271 l 1,37,-1
 302 400 l 1,38,-1
 302 400 l 1,22,-1
362 149 m 1,39,-1
 362 179 l 1,40,41
 368 179 368 179 373.5 181.5 c 128,-1,42
 379 184 379 184 383 188 c 128,-1,43
 387 192 387 192 389.5 197.5 c 128,-1,44
 392 203 392 203 392 210 c 0,45,46
 392 216 392 216 389.5 221.5 c 128,-1,47
 387 227 387 227 383 231 c 128,-1,48
 379 235 379 235 373.5 237.5 c 128,-1,49
 368 240 368 240 362 240 c 1,50,-1
 362 270 l 1,51,52
 374 270 374 270 385 265.5 c 128,-1,53
 396 261 396 261 404.5 252.5 c 128,-1,54
 413 244 413 244 417.5 233 c 128,-1,55
 422 222 422 222 422 210 c 0,56,57
 422 197 422 197 417.5 186 c 128,-1,58
 413 175 413 175 404.5 167 c 128,-1,59
 396 159 396 159 385 154 c 128,-1,60
 374 149 374 149 362 149 c 1,61,-1
 362 149 l 1,39,-1
483 209 m 1,62,63
 483 184 483 184 473.5 162.5 c 128,-1,64
 464 141 464 141 447.5 124.5 c 128,-1,65
 431 108 431 108 409 98.5 c 128,-1,66
 387 89 387 89 362 89 c 1,67,-1
 362 119 l 1,68,69
 381 119 381 119 397.5 126 c 128,-1,70
 414 133 414 133 426 145.5 c 128,-1,71
 438 158 438 158 445.5 174.5 c 128,-1,72
 453 191 453 191 453 209 c 0,73,74
 453 228 453 228 445.5 244.5 c 128,-1,75
 438 261 438 261 426 273 c 128,-1,76
 414 285 414 285 397.5 292.5 c 128,-1,77
 381 300 381 300 362 300 c 1,78,-1
 362 330 l 1,79,80
 387 330 387 330 409 320.5 c 128,-1,81
 431 311 431 311 447.5 294.5 c 128,-1,82
 464 278 464 278 473.5 256 c 128,-1,83
 483 234 483 234 483 209 c 1,84,-1
 483 209 l 1,62,63
EndSplineSet
EndChar

StartChar: uniE602
Encoding: 58882 58882 6
Width: 512
GlyphClass: 1
Flags: W
LayerCount: 2
Fore
SplineSet
512 -17 m 2,0,1
 511 13 511 13 496 41 c 128,-1,2
 481 69 481 69 455 91 c 128,-1,3
 429 113 429 113 393.5 129 c 128,-1,4
 358 145 358 145 316 151 c 1,5,-1
 316 194 l 1,6,7
 321 198 321 198 326 205 c 128,-1,8
 331 212 331 212 335 219 c 128,-1,9
 339 226 339 226 342 234 c 128,-1,10
 345 242 345 242 348 248 c 0,11,12
 352 251 352 251 355.5 253.5 c 128,-1,13
 359 256 359 256 362 260.5 c 128,-1,14
 365 265 365 265 367.5 269 c 128,-1,15
 370 273 370 273 372 280 c 256,16,17
 374 287 374 287 375 295 c 128,-1,18
 376 303 376 303 375 308.5 c 128,-1,19
 374 314 374 314 372 320 c 128,-1,20
 370 326 370 326 366 328 c 0,21,22
 366 332 366 332 366 334 c 128,-1,23
 366 336 366 336 366.5 339.5 c 128,-1,24
 367 343 367 343 366.5 345 c 128,-1,25
 366 347 366 347 366 351 c 0,26,27
 365 357 365 357 365.5 363.5 c 128,-1,28
 366 370 366 370 367 374.5 c 128,-1,29
 368 379 368 379 369 383.5 c 128,-1,30
 370 388 370 388 372 391 c 0,31,32
 373 395 373 395 374 398 c 128,-1,33
 375 401 375 401 376 405 c 128,-1,34
 377 409 377 409 376.5 412.5 c 128,-1,35
 376 416 376 416 375 421 c 0,36,37
 370 434 370 434 360.5 445.5 c 128,-1,38
 351 457 351 457 337 464 c 128,-1,39
 323 471 323 471 305 475.5 c 128,-1,40
 287 480 287 480 266 479 c 2,41,-1
 258 480 l 2,42,43
 243 478 243 478 233 475.5 c 128,-1,44
 223 473 223 473 216.5 468 c 128,-1,45
 210 463 210 463 206 457.5 c 128,-1,46
 202 452 202 452 199 445 c 1,47,48
 198 446 198 446 198 444.5 c 128,-1,49
 198 443 198 443 197.5 443 c 128,-1,50
 197 443 197 443 196.5 442 c 128,-1,51
 196 441 196 441 196 442 c 1,52,53
 177 439 177 439 166.5 431.5 c 128,-1,54
 156 424 156 424 151.5 411.5 c 128,-1,55
 147 399 147 399 146.5 386 c 128,-1,56
 146 373 146 373 146 359 c 2,57,-1
 146 349 l 2,58,59
 146 346 146 346 146 344 c 128,-1,60
 146 342 146 342 146 339 c 128,-1,61
 146 336 146 336 146 334 c 128,-1,62
 146 332 146 332 147 329 c 0,63,64
 142 326 142 326 139 320 c 128,-1,65
 136 314 136 314 135.5 308 c 128,-1,66
 135 302 135 302 136.5 293.5 c 128,-1,67
 138 285 138 285 141 278 c 0,68,69
 143 272 143 272 145.5 268.5 c 128,-1,70
 148 265 148 265 151 261 c 128,-1,71
 154 257 154 257 157 254.5 c 128,-1,72
 160 252 160 252 164 250 c 0,73,74
 167 243 167 243 170.5 234.5 c 128,-1,75
 174 226 174 226 178 218.5 c 128,-1,76
 182 211 182 211 187.5 203.5 c 128,-1,77
 193 196 193 196 199 191 c 1,78,-1
 199 152 l 1,79,80
 156 146 156 146 120 130 c 128,-1,81
 84 114 84 114 57.5 92 c 128,-1,82
 31 70 31 70 16 41.5 c 128,-1,83
 1 13 1 13 0 -17 c 2,84,-1
 0 -33 l 1,85,-1
 512 -32 l 1,86,-1
 512 -18 l 1,87,-1
 512 -17 l 2,0,1
32 -2 m 1,88,89
 36 21 36 21 51.5 42.5 c 128,-1,90
 67 64 67 64 91.5 80 c 128,-1,91
 116 96 116 96 147.5 108 c 128,-1,92
 179 120 179 120 216 124 c 2,93,-1
 229 126 l 1,94,-1
 229 206 l 1,95,-1
 223 211 l 2,96,97
 218 213 218 213 214 219 c 128,-1,98
 210 225 210 225 205.5 231.5 c 128,-1,99
 201 238 201 238 197 247.5 c 128,-1,100
 193 257 193 257 190 266 c 2,101,-1
 188 275 l 1,102,-1
 179 276 l 2,103,104
 178 277 178 277 177 277.5 c 128,-1,105
 176 278 176 278 174.5 280 c 128,-1,106
 173 282 173 282 171.5 284 c 128,-1,107
 170 286 170 286 169 290 c 0,108,109
 168 291 168 291 167.5 293 c 128,-1,110
 167 295 167 295 166.5 296 c 128,-1,111
 166 297 166 297 165.5 299 c 128,-1,112
 165 301 165 301 165 301 c 1,113,-1
 181 298 l 1,114,-1
 178 319 l 2,115,116
 177 324 177 324 177 327.5 c 128,-1,117
 177 331 177 331 176.5 335 c 128,-1,118
 176 339 176 339 176 342 c 128,-1,119
 176 345 176 345 176 349 c 2,120,-1
 176 360 l 2,121,122
 176 376 176 376 176.5 385 c 128,-1,123
 177 394 177 394 179.5 400 c 128,-1,124
 182 406 182 406 186.5 408 c 128,-1,125
 191 410 191 410 199 412 c 0,126,127
 205 411 205 411 209.5 414 c 128,-1,128
 214 417 214 417 217 419.5 c 128,-1,129
 220 422 220 422 222 426 c 128,-1,130
 224 430 224 430 226 431 c 0,131,132
 227 436 227 436 229 438.5 c 128,-1,133
 231 441 231 441 234.5 443.5 c 128,-1,134
 238 446 238 446 244 447 c 128,-1,135
 250 448 250 448 259 450 c 2,136,-1
 266 449 l 2,137,138
 275 450 275 450 287.5 448 c 128,-1,139
 300 446 300 446 311.5 442.5 c 128,-1,140
 323 439 323 439 332.5 431 c 128,-1,141
 342 423 342 423 346 411 c 0,142,143
 346 410 346 410 346 409.5 c 128,-1,144
 346 409 346 409 345.5 407.5 c 128,-1,145
 345 406 345 406 344.5 405 c 128,-1,146
 344 404 344 404 344 402 c 0,147,148
 342 399 342 399 340 393 c 128,-1,149
 338 387 338 387 337 380.5 c 128,-1,150
 336 374 336 374 335.5 365.5 c 128,-1,151
 335 357 335 357 336 347 c 0,152,153
 336 344 336 344 336 342 c 128,-1,154
 336 340 336 340 336 337 c 128,-1,155
 336 334 336 334 335.5 332 c 128,-1,156
 335 330 335 330 335 326 c 2,157,-1
 332 303 l 1,158,-1
 346 303 l 1,159,160
 346 303 346 303 346 301 c 128,-1,161
 346 299 346 299 345.5 297.5 c 128,-1,162
 345 296 345 296 344.5 293.5 c 128,-1,163
 344 291 344 291 343 290 c 0,164,165
 342 286 342 286 341 284 c 128,-1,166
 340 282 340 282 338.5 279.5 c 128,-1,167
 337 277 337 277 336.5 276.5 c 128,-1,168
 336 276 336 276 336 275 c 1,169,-1
 325 276 l 1,170,-1
 322 265 l 2,171,172
 319 256 319 256 315 247 c 128,-1,173
 311 238 311 238 307.5 232 c 128,-1,174
 304 226 304 226 300 220.5 c 128,-1,175
 296 215 296 215 291 213 c 2,176,-1
 285 207 l 1,177,-1
 285 126 l 1,178,-1
 299 123 l 1,179,180
 335 120 335 120 366 108 c 128,-1,181
 397 96 397 96 421 79.5 c 128,-1,182
 445 63 445 63 460.5 41.5 c 128,-1,183
 476 20 476 20 480 -2 c 1,184,-1
 32 -3 l 1,185,-1
 32 -2 l 1,88,89
EndSplineSet
EndChar

StartChar: uniE603
Encoding: 58883 58883 7
Width: 512
GlyphClass: 1
Flags: W
LayerCount: 2
Fore
SplineSet
286 150 m 2,0,1
 286 146 286 146 285 142 c 128,-1,2
 284 138 284 138 282 135 c 128,-1,3
 280 132 280 132 277 129 c 128,-1,4
 274 126 274 126 271 125 c 2,5,-1
 271 59 l 1,6,-1
 241 60 l 1,7,-1
 241 124 l 2,8,9
 238 127 238 127 235 129 c 128,-1,10
 232 131 232 131 230 135 c 128,-1,11
 228 139 228 139 227 142 c 128,-1,12
 226 145 226 145 226 151 c 0,13,14
 226 156 226 156 228.5 162 c 128,-1,15
 231 168 231 168 235 171.5 c 128,-1,16
 239 175 239 175 244.5 178 c 128,-1,17
 250 181 250 181 256 180 c 0,18,19
 262 181 262 181 267.5 178 c 128,-1,20
 273 175 273 175 277 171.5 c 128,-1,21
 281 168 281 168 283.5 162 c 128,-1,22
 286 156 286 156 286 151 c 2,23,-1
 286 150 l 2,0,1
452 225 m 1,24,-1
 452 13 l 2,25,26
 452 3 452 3 448 -5 c 128,-1,27
 444 -13 444 -13 438 -19.5 c 128,-1,28
 432 -26 432 -26 424 -29 c 128,-1,29
 416 -32 416 -32 406 -33 c 2,30,-1
 106 -32 l 2,31,32
 96 -33 96 -33 88 -29 c 128,-1,33
 80 -25 80 -25 74 -19.5 c 128,-1,34
 68 -14 68 -14 64 -5 c 128,-1,35
 60 4 60 4 60 12 c 2,36,-1
 60 226 l 2,37,38
 60 235 60 235 64 243.5 c 128,-1,39
 68 252 68 252 74 257.5 c 128,-1,40
 80 263 80 263 88 267 c 128,-1,41
 96 271 96 271 106 270 c 2,42,-1
 376 271 l 1,43,-1
 376 330 l 2,44,45
 376 356 376 356 367 377.5 c 128,-1,46
 358 399 358 399 341.5 416 c 128,-1,47
 325 433 325 433 303 442 c 128,-1,48
 281 451 281 451 256 452 c 0,49,50
 231 451 231 451 209 442 c 128,-1,51
 187 433 187 433 170.5 416 c 128,-1,52
 154 399 154 399 145 377.5 c 128,-1,53
 136 356 136 356 136 330 c 1,54,-1
 105 331 l 1,55,56
 105 361 105 361 117 389 c 128,-1,57
 129 417 129 417 149.5 437 c 128,-1,58
 170 457 170 457 197.5 469.5 c 128,-1,59
 225 482 225 482 256 481 c 0,60,61
 287 482 287 482 314.5 469.5 c 128,-1,62
 342 457 342 457 362.5 437 c 128,-1,63
 383 417 383 417 395 389 c 128,-1,64
 407 361 407 361 407 331 c 2,65,-1
 407 270 l 1,66,67
 416 271 416 271 424 267 c 128,-1,68
 432 263 432 263 438.5 257.5 c 128,-1,69
 445 252 445 252 448.5 243.5 c 128,-1,70
 452 235 452 235 452 226 c 2,71,-1
 452 225 l 1,24,-1
421 225 m 1,72,73
 421 229 421 229 420 231.5 c 128,-1,74
 419 234 419 234 417 236.5 c 128,-1,75
 415 239 415 239 412.5 239.5 c 128,-1,76
 410 240 410 240 406 241 c 2,77,-1
 106 240 l 2,78,79
 102 241 102 241 99.5 239.5 c 128,-1,80
 97 238 97 238 95 236.5 c 128,-1,81
 93 235 93 235 92 231.5 c 128,-1,82
 91 228 91 228 91 226 c 2,83,-1
 91 12 l 2,84,85
 91 10 91 10 92 6.5 c 128,-1,86
 93 3 93 3 95 1.5 c 128,-1,87
 97 0 97 0 99.5 -1.5 c 128,-1,88
 102 -3 102 -3 106 -2 c 2,89,-1
 406 -3 l 2,90,91
 410 -2 410 -2 412.5 -1.5 c 128,-1,92
 415 -1 415 -1 417 1.5 c 128,-1,93
 419 4 419 4 420 6.5 c 128,-1,94
 421 9 421 9 421 13 c 2,95,-1
 421 225 l 1,96,-1
 421 225 l 1,72,73
EndSplineSet
EndChar

StartChar: uniE604
Encoding: 58884 58884 8
Width: 512
GlyphClass: 1
Flags: W
LayerCount: 2
Fore
SplineSet
64 325 m 1,0,-1
 106 403 l 2,1,2
 119 422 119 422 136.5 433.5 c 128,-1,3
 154 445 154 445 174 449 c 128,-1,4
 194 453 194 453 214.5 449.5 c 128,-1,5
 235 446 235 446 253 434 c 1,6,-1
 237 409 l 1,7,8
 224 418 224 418 209 420.5 c 128,-1,9
 194 423 194 423 180 420 c 128,-1,10
 166 417 166 417 153.5 409 c 128,-1,11
 141 401 141 401 132 388 c 2,12,-1
 90 310 l 2,13,14
 81 296 81 296 78.5 281 c 128,-1,15
 76 266 76 266 78.5 252 c 128,-1,16
 81 238 81 238 89.5 225.5 c 128,-1,17
 98 213 98 213 111 204 c 0,18,19
 124 196 124 196 137 193 c 128,-1,20
 150 190 150 190 163 192 c 128,-1,21
 176 194 176 194 188 201 c 128,-1,22
 200 208 200 208 211 221 c 1,23,-1
 234 201 l 1,24,25
 225 191 225 191 215.5 183.5 c 128,-1,26
 206 176 206 176 196 171 c 128,-1,27
 186 166 186 166 175 163.5 c 128,-1,28
 164 161 164 161 153 161 c 0,29,30
 146 161 146 161 138.5 162 c 128,-1,31
 131 163 131 163 123.5 165 c 128,-1,32
 116 167 116 167 108.5 170.5 c 128,-1,33
 101 174 101 174 94 179 c 0,34,35
 76 191 76 191 64.5 208.5 c 128,-1,36
 53 226 53 226 49 246 c 128,-1,37
 45 266 45 266 48.5 286.5 c 128,-1,38
 52 307 52 307 64 325 c 1,39,-1
 64 325 l 1,0,-1
122 238 m 1,40,-1
 118 234 l 1,41,-1
 139 213 l 1,42,-1
 143 217 l 2,43,44
 154 228 154 228 168 233.5 c 128,-1,45
 182 239 182 239 196.5 239 c 128,-1,46
 211 239 211 239 224.5 233.5 c 128,-1,47
 238 228 238 228 249 217 c 256,48,49
 260 206 260 206 265.5 192 c 128,-1,50
 271 178 271 178 271 163.5 c 128,-1,51
 271 149 271 149 265.5 135 c 128,-1,52
 260 121 260 121 249 110 c 2,53,-1
 158 19 l 2,54,55
 147 8 147 8 133.5 2.5 c 128,-1,56
 120 -3 120 -3 105.5 -3 c 128,-1,57
 91 -3 91 -3 77 2.5 c 128,-1,58
 63 8 63 8 52 19 c 256,59,60
 41 30 41 30 35.5 44 c 128,-1,61
 30 58 30 58 30 72.5 c 128,-1,62
 30 87 30 87 35.5 101 c 128,-1,63
 41 115 41 115 52 126 c 2,64,-1
 84 158 l 1,65,-1
 62 179 l 1,66,-1
 31 147 l 2,67,68
 15 131 15 131 7.5 112 c 128,-1,69
 0 93 0 93 0 72.5 c 128,-1,70
 0 52 0 52 7.5 32.5 c 128,-1,71
 15 13 15 13 31 -2 c 0,72,73
 38 -10 38 -10 47 -15.5 c 128,-1,74
 56 -21 56 -21 65.5 -25 c 128,-1,75
 75 -29 75 -29 85 -31 c 128,-1,76
 95 -33 95 -33 105 -33 c 256,77,78
 115 -33 115 -33 125 -31 c 128,-1,79
 135 -29 135 -29 144.5 -25 c 128,-1,80
 154 -21 154 -21 163 -15.5 c 128,-1,81
 172 -10 172 -10 180 -2 c 2,82,-1
 271 89 l 2,83,84
 286 104 286 104 294 123.5 c 128,-1,85
 302 143 302 143 302 163.5 c 128,-1,86
 302 184 302 184 294 203.5 c 128,-1,87
 286 223 286 223 271 238 c 0,88,89
 255 253 255 253 235.5 261 c 128,-1,90
 216 269 216 269 196 269 c 128,-1,91
 176 269 176 269 156.5 261 c 128,-1,92
 137 253 137 253 122 238 c 1,93,-1
 122 238 l 1,40,-1
330 269 m 1,94,-1
 453 269 l 1,95,-1
 453 299 l 1,96,-1
 330 299 l 1,97,-1
 330 269 l 1,98,-1
 330 269 l 1,94,-1
316 229 m 1,99,-1
 375 195 l 1,100,-1
 390 221 l 1,101,-1
 331 255 l 1,102,-1
 316 229 l 1,103,-1
 316 229 l 1,99,-1
324 445 m 1,104,-1
 276 363 l 1,105,-1
 302 348 l 1,106,-1
 350 430 l 1,107,-1
 324 445 l 1,108,-1
 324 445 l 1,104,-1
478 398 m 1,109,-1
 463 424 l 1,110,-1
 312 337 l 1,111,-1
 328 311 l 1,112,-1
 478 398 l 1,113,-1
 478 398 l 1,109,-1
EndSplineSet
EndChar

StartChar: uniE605
Encoding: 58885 58885 9
Width: 512
GlyphClass: 1
Flags: W
LayerCount: 2
Fore
SplineSet
329 419 m 1,0,1
 327 429 327 429 321.5 437.5 c 128,-1,2
 316 446 316 446 308.5 452 c 128,-1,3
 301 458 301 458 291.5 461.5 c 128,-1,4
 282 465 282 465 271 465 c 0,5,6
 261 465 261 465 251.5 461.5 c 128,-1,7
 242 458 242 458 234 452 c 128,-1,8
 226 446 226 446 220.5 437.5 c 128,-1,9
 215 429 215 429 213 419 c 1,10,-1
 105 419 l 1,11,-1
 105 389 l 1,12,-1
 437 389 l 1,13,-1
 437 419 l 1,14,-1
 329 419 l 1,15,-1
 329 419 l 1,0,1
271 435 m 1,16,17
 275 435 275 435 279 433.5 c 128,-1,18
 283 432 283 432 286.5 430 c 128,-1,19
 290 428 290 428 292.5 425.5 c 128,-1,20
 295 423 295 423 297 419 c 1,21,-1
 245 419 l 1,22,23
 247 423 247 423 250 425.5 c 128,-1,24
 253 428 253 428 256 430.5 c 128,-1,25
 259 433 259 433 263 434 c 128,-1,26
 267 435 267 435 271 435 c 1,27,-1
 271 435 l 1,16,17
392 360 m 1,28,-1
 422 360 l 1,29,-1
 422 43 l 2,30,31
 422 33 422 33 418.5 25 c 128,-1,32
 415 17 415 17 408.5 11 c 128,-1,33
 402 5 402 5 394 1.5 c 128,-1,34
 386 -2 386 -2 376 -2 c 2,35,-1
 166 -2 l 2,36,37
 156 -2 156 -2 148 1.5 c 128,-1,38
 140 5 140 5 134 11 c 128,-1,39
 128 17 128 17 124 25 c 128,-1,40
 120 33 120 33 120 43 c 2,41,-1
 120 360 l 1,42,-1
 151 360 l 1,43,-1
 151 43 l 2,44,45
 151 40 151 40 152 37 c 128,-1,46
 153 34 153 34 155 32 c 128,-1,47
 157 30 157 30 160 29 c 128,-1,48
 163 28 163 28 166 28 c 2,49,-1
 376 28 l 2,50,51
 380 28 380 28 382.5 29 c 128,-1,52
 385 30 385 30 387 32 c 128,-1,53
 389 34 389 34 390.5 37 c 128,-1,54
 392 40 392 40 392 43 c 2,55,-1
 392 360 l 1,56,-1
 392 360 l 1,28,-1
241 329 m 1,57,-1
 241 88 l 1,58,-1
 211 88 l 1,59,-1
 211 329 l 1,60,-1
 241 329 l 1,61,-1
 241 329 l 1,57,-1
331 329 m 1,62,-1
 331 88 l 1,63,-1
 301 88 l 1,64,-1
 301 329 l 1,65,-1
 331 329 l 1,66,-1
 331 329 l 1,62,-1
EndSplineSet
EndChar

StartChar: uniE606
Encoding: 58886 58886 10
Width: 512
GlyphClass: 1
Flags: W
LayerCount: 2
Fore
SplineSet
346 175 m 1,0,1
 380 175 380 175 410.5 187 c 128,-1,2
 441 199 441 199 463 220 c 128,-1,3
 485 241 485 241 498.5 268.5 c 128,-1,4
 512 296 512 296 511 328 c 0,5,6
 512 359 512 359 498.5 387 c 128,-1,7
 485 415 485 415 463 435.5 c 128,-1,8
 441 456 441 456 410.5 468 c 128,-1,9
 380 480 380 480 346 480 c 0,10,11
 324 480 324 480 304 475 c 128,-1,12
 284 470 284 470 265 460.5 c 128,-1,13
 246 451 246 451 231 437.5 c 128,-1,14
 216 424 216 424 204 407 c 1,15,16
 197 411 197 411 188 414.5 c 128,-1,17
 179 418 179 418 171 420.5 c 128,-1,18
 163 423 163 423 153.5 424 c 128,-1,19
 144 425 144 425 136 425 c 0,20,21
 107 425 107 425 82.5 415 c 128,-1,22
 58 405 58 405 39 388.5 c 128,-1,23
 20 372 20 372 10 349 c 128,-1,24
 0 326 0 326 -1 300 c 0,25,26
 0 274 0 274 10 251.5 c 128,-1,27
 20 229 20 229 39 212 c 128,-1,28
 58 195 58 195 82.5 185 c 128,-1,29
 107 175 107 175 136 175 c 0,30,31
 137 175 137 175 139.5 175 c 128,-1,32
 142 175 142 175 143.5 175.5 c 128,-1,33
 145 176 145 176 148 176 c 128,-1,34
 151 176 151 176 152 176 c 0,35,36
 160 170 160 170 168 164.5 c 128,-1,37
 176 159 176 159 186 155.5 c 128,-1,38
 196 152 196 152 205.5 150.5 c 128,-1,39
 215 149 215 149 226 149 c 0,40,41
 236 149 236 149 247.5 151 c 128,-1,42
 259 153 259 153 268.5 157 c 128,-1,43
 278 161 278 161 287 167 c 128,-1,44
 296 173 296 173 303 181 c 1,45,46
 309 180 309 180 314 178.5 c 128,-1,47
 319 177 319 177 325 176.5 c 128,-1,48
 331 176 331 176 335.5 175.5 c 128,-1,49
 340 175 340 175 346 175 c 1,50,-1
 346 175 l 1,0,1
292 215 m 1,51,-1
 287 207 l 2,52,53
 281 201 281 201 274.5 195.5 c 128,-1,54
 268 190 268 190 259.5 186.5 c 128,-1,55
 251 183 251 183 243 181 c 128,-1,56
 235 179 235 179 225 179 c 0,57,58
 218 179 218 179 209.5 180.5 c 128,-1,59
 201 182 201 182 194 185 c 128,-1,60
 187 188 187 188 180 192.5 c 128,-1,61
 173 197 173 197 169 203 c 2,62,-1
 162 209 l 1,63,-1
 155 207 l 2,64,65
 152 207 152 207 150 206.5 c 128,-1,66
 148 206 148 206 145 206 c 128,-1,67
 142 206 142 206 140 205.5 c 128,-1,68
 138 205 138 205 135 205 c 0,69,70
 114 205 114 205 94 212.5 c 128,-1,71
 74 220 74 220 60.5 233 c 128,-1,72
 47 246 47 246 38 263.5 c 128,-1,73
 29 281 29 281 30 300 c 0,74,75
 29 320 29 320 38 337 c 128,-1,76
 47 354 47 354 60.5 367 c 128,-1,77
 74 380 74 380 94 387.5 c 128,-1,78
 114 395 114 395 135 395 c 0,79,80
 144 395 144 395 152.5 393.5 c 128,-1,81
 161 392 161 392 170 389.5 c 128,-1,82
 179 387 179 387 186 383 c 128,-1,83
 193 379 193 379 201 373 c 2,84,-1
 215 363 l 1,85,-1
 224 379 l 2,86,87
 231 395 231 395 244.5 408 c 128,-1,88
 258 421 258 421 273.5 430.5 c 128,-1,89
 289 440 289 440 308 445 c 128,-1,90
 327 450 327 450 345 450 c 0,91,92
 374 450 374 450 398.5 440.5 c 128,-1,93
 423 431 423 431 442 414 c 128,-1,94
 461 397 461 397 471 375 c 128,-1,95
 481 353 481 353 482 328 c 0,96,97
 481 302 481 302 471 280 c 128,-1,98
 461 258 461 258 442 241.5 c 128,-1,99
 423 225 423 225 398.5 215 c 128,-1,100
 374 205 374 205 345 205 c 0,101,102
 341 205 341 205 335.5 205.5 c 128,-1,103
 330 206 330 206 325 207 c 128,-1,104
 320 208 320 208 314 209.5 c 128,-1,105
 308 211 308 211 303 212 c 2,106,-1
 292 215 l 1,107,-1
 292 215 l 1,51,-1
346 164 m 1,108,109
 333 164 333 164 322.5 159 c 128,-1,110
 312 154 312 154 303.5 146 c 128,-1,111
 295 138 295 138 290.5 127 c 128,-1,112
 286 116 286 116 285 104 c 0,113,114
 286 91 286 91 290.5 80 c 128,-1,115
 295 69 295 69 303.5 61 c 128,-1,116
 312 53 312 53 322.5 48 c 128,-1,117
 333 43 333 43 346 43 c 0,118,119
 358 43 358 43 369.5 48 c 128,-1,120
 381 53 381 53 388.5 61 c 128,-1,121
 396 69 396 69 401.5 80 c 128,-1,122
 407 91 407 91 406 104 c 0,123,124
 407 116 407 116 401.5 127 c 128,-1,125
 396 138 396 138 388.5 146 c 128,-1,126
 381 154 381 154 369.5 159 c 128,-1,127
 358 164 358 164 346 164 c 1,128,-1
 346 164 l 1,108,109
345 73 m 1,129,130
 340 73 340 73 334 75.5 c 128,-1,131
 328 78 328 78 324.5 82 c 128,-1,132
 321 86 321 86 318 91.5 c 128,-1,133
 315 97 315 97 316 104 c 0,134,135
 315 110 315 110 318 115.5 c 128,-1,136
 321 121 321 121 324.5 125 c 128,-1,137
 328 129 328 129 334 131.5 c 128,-1,138
 340 134 340 134 345 134 c 0,139,140
 353 134 353 134 358 131.5 c 128,-1,141
 363 129 363 129 367.5 125 c 128,-1,142
 372 121 372 121 373.5 115.5 c 128,-1,143
 375 110 375 110 376 104 c 0,144,145
 375 97 375 97 373.5 91.5 c 128,-1,146
 372 86 372 86 367.5 82 c 128,-1,147
 363 78 363 78 358 75.5 c 128,-1,148
 353 73 353 73 345 73 c 1,149,-1
 345 73 l 1,129,130
459 58 m 1,150,151
 451 58 451 58 444.5 55 c 128,-1,152
 438 52 438 52 432.5 47 c 128,-1,153
 427 42 427 42 424.5 35 c 128,-1,154
 422 28 422 28 421 21 c 0,155,156
 422 13 422 13 424.5 6 c 128,-1,157
 427 -1 427 -1 432.5 -6 c 128,-1,158
 438 -11 438 -11 444.5 -14 c 128,-1,159
 451 -17 451 -17 459 -17 c 0,160,161
 466 -17 466 -17 473.5 -14 c 128,-1,162
 481 -11 481 -11 485.5 -6 c 128,-1,163
 490 -1 490 -1 493.5 6 c 128,-1,164
 497 13 497 13 496 21 c 0,165,166
 497 28 497 28 493.5 35 c 128,-1,167
 490 42 490 42 485.5 47 c 128,-1,168
 481 52 481 52 473.5 55 c 128,-1,169
 466 58 466 58 459 58 c 1,170,-1
 459 58 l 1,150,151
451 21 m 1,171,172
 452 22 452 22 452 23.5 c 128,-1,173
 452 25 452 25 453.5 26 c 128,-1,174
 455 27 455 27 456 27.5 c 128,-1,175
 457 28 457 28 459 28 c 0,176,177
 460 28 460 28 462 27.5 c 128,-1,178
 464 27 464 27 464.5 26 c 128,-1,179
 465 25 465 25 466 23.5 c 128,-1,180
 467 22 467 22 466 21 c 0,181,182
 467 18 467 18 464 16 c 128,-1,183
 461 14 461 14 458.5 14 c 128,-1,184
 456 14 456 14 453.5 16 c 128,-1,185
 451 18 451 18 452 21 c 1,186,-1
 451 21 l 1,171,172
EndSplineSet
EndChar

StartChar: uniE607
Encoding: 58887 58887 11
Width: 512
GlyphClass: 1
Flags: W
LayerCount: 2
Fore
SplineSet
513 239 m 1,0,-1
 451 239 l 1,1,2
 448 275 448 275 433 306.5 c 128,-1,3
 418 338 418 338 394 362.5 c 128,-1,4
 370 387 370 387 338 401.5 c 128,-1,5
 306 416 306 416 270 419 c 1,6,-1
 270 481 l 1,7,-1
 240 481 l 1,8,-1
 240 419 l 1,9,10
 204 416 204 416 172.5 401 c 128,-1,11
 141 386 141 386 117.5 362 c 128,-1,12
 94 338 94 338 79 306.5 c 128,-1,13
 64 275 64 275 61 239 c 1,14,-1
 -1 239 l 1,15,-1
 -1 209 l 1,16,-1
 61 209 l 1,17,18
 64 173 64 173 79 141.5 c 128,-1,19
 94 110 94 110 117.5 86 c 128,-1,20
 141 62 141 62 172.5 47 c 128,-1,21
 204 32 204 32 240 29 c 1,22,-1
 240 -32 l 1,23,-1
 270 -32 l 1,24,-1
 270 29 l 1,25,26
 306 32 306 32 338 46.5 c 128,-1,27
 370 61 370 61 394 85.5 c 128,-1,28
 418 110 418 110 433 141.5 c 128,-1,29
 448 173 448 173 451 209 c 1,30,-1
 513 209 l 1,31,-1
 513 239 l 1,32,-1
 513 239 l 1,0,-1
270 59 m 1,33,-1
 270 119 l 1,34,-1
 240 119 l 1,35,-1
 240 59 l 1,36,37
 210 62 210 62 184.5 74.5 c 128,-1,38
 159 87 159 87 139 107 c 128,-1,39
 119 127 119 127 106.5 153 c 128,-1,40
 94 179 94 179 91 209 c 1,41,-1
 150 209 l 1,42,-1
 150 239 l 1,43,-1
 91 239 l 1,44,45
 94 269 94 269 106.5 295 c 128,-1,46
 119 321 119 321 139 341 c 128,-1,47
 159 361 159 361 184.5 373.5 c 128,-1,48
 210 386 210 386 240 389 c 1,49,-1
 240 331 l 1,50,-1
 270 331 l 1,51,-1
 270 389 l 1,52,53
 300 386 300 386 326.5 373.5 c 128,-1,54
 353 361 353 361 373 341 c 128,-1,55
 393 321 393 321 405.5 295 c 128,-1,56
 418 269 418 269 421 239 c 1,57,-1
 362 239 l 1,58,-1
 362 209 l 1,59,-1
 421 209 l 1,60,61
 418 179 418 179 405.5 153 c 128,-1,62
 393 127 393 127 373 107 c 128,-1,63
 353 87 353 87 326.5 74.5 c 128,-1,64
 300 62 300 62 270 59 c 1,65,-1
 270 59 l 1,33,-1
EndSplineSet
EndChar

StartChar: uniE608
Encoding: 58888 58888 12
Width: 512
GlyphClass: 1
Flags: W
LayerCount: 2
Fore
SplineSet
270 450 m 1,0,-1
 151 363 l 1,1,-1
 150 -3 l 1,2,-1
 271 81 l 1,3,-1
 392 -3 l 1,4,-1
 393 363 l 1,5,-1
 270 450 l 1,6,-1
 270 450 l 1,0,-1
363 55 m 1,7,-1
 270 118 l 1,8,-1
 181 55 l 1,9,-1
 180 348 l 1,10,-1
 271 413 l 1,11,-1
 362 347 l 1,12,-1
 363 55 l 1,13,-1
 363 55 l 1,7,-1
218 299 m 1,14,15
 219 288 219 288 223 278.5 c 128,-1,16
 227 269 227 269 234.5 262 c 128,-1,17
 242 255 242 255 251 251 c 128,-1,18
 260 247 260 247 272 247 c 0,19,20
 282 247 282 247 292 251 c 128,-1,21
 302 255 302 255 309 262 c 128,-1,22
 316 269 316 269 320.5 278.5 c 128,-1,23
 325 288 325 288 324 299 c 0,24,25
 325 310 325 310 320.5 319.5 c 128,-1,26
 316 329 316 329 309 336.5 c 128,-1,27
 302 344 302 344 292 348 c 128,-1,28
 282 352 282 352 272 352 c 0,29,30
 260 352 260 352 251 348 c 128,-1,31
 242 344 242 344 234.5 336.5 c 128,-1,32
 227 329 227 329 223 319.5 c 128,-1,33
 219 310 219 310 218 299 c 1,34,-1
 218 299 l 1,14,15
272 322 m 1,35,36
 276 322 276 322 280.5 320 c 128,-1,37
 285 318 285 318 287.5 315 c 128,-1,38
 290 312 290 312 292.5 308 c 128,-1,39
 295 304 295 304 294 299 c 0,40,41
 295 295 295 295 292.5 290.5 c 128,-1,42
 290 286 290 286 287.5 283 c 128,-1,43
 285 280 285 280 280.5 278.5 c 128,-1,44
 276 277 276 277 272 277 c 0,45,46
 267 277 267 277 263 278.5 c 128,-1,47
 259 280 259 280 255.5 283 c 128,-1,48
 252 286 252 286 251 290.5 c 128,-1,49
 250 295 250 295 249 299 c 0,50,51
 250 304 250 304 251 308 c 128,-1,52
 252 312 252 312 255.5 315 c 128,-1,53
 259 318 259 318 263 320 c 128,-1,54
 267 322 267 322 272 322 c 1,55,-1
 272 322 l 1,35,36
EndSplineSet
EndChar

StartChar: uniE609
Encoding: 58889 58889 13
Width: 512
GlyphClass: 1
Flags: W
LayerCount: 2
Fore
SplineSet
279 43 m 1,0,1
 279 38 279 38 277 34 c 128,-1,2
 275 30 275 30 272 26.5 c 128,-1,3
 269 23 269 23 265 22 c 128,-1,4
 261 21 261 21 256 20 c 0,5,6
 251 21 251 21 247 22 c 128,-1,7
 243 23 243 23 240 26.5 c 128,-1,8
 237 30 237 30 235 34 c 128,-1,9
 233 38 233 38 233 43 c 0,10,11
 233 47 233 47 235 51.5 c 128,-1,12
 237 56 237 56 240 58.5 c 128,-1,13
 243 61 243 61 247 63.5 c 128,-1,14
 251 66 251 66 256 65 c 0,15,16
 261 66 261 66 265 63.5 c 128,-1,17
 269 61 269 61 272 58.5 c 128,-1,18
 275 56 275 56 277 51.5 c 128,-1,19
 279 47 279 47 279 43 c 1,20,-1
 279 43 l 1,0,1
482 434 m 1,21,-1
 482 13 l 2,22,23
 482 3 482 3 478.5 -5 c 128,-1,24
 475 -13 475 -13 469.5 -19.5 c 128,-1,25
 464 -26 464 -26 456.5 -29 c 128,-1,26
 449 -32 449 -32 440 -33 c 2,27,-1
 72 -32 l 2,28,29
 63 -33 63 -33 55.5 -29 c 128,-1,30
 48 -25 48 -25 42.5 -19.5 c 128,-1,31
 37 -14 37 -14 33.5 -5 c 128,-1,32
 30 4 30 4 30 12 c 2,33,-1
 30 435 l 2,34,35
 30 443 30 443 33.5 452 c 128,-1,36
 37 461 37 461 42.5 466.5 c 128,-1,37
 48 472 48 472 55.5 476 c 128,-1,38
 63 480 63 480 72 479 c 2,39,-1
 440 480 l 2,40,41
 449 479 449 479 456.5 476 c 128,-1,42
 464 473 464 473 469.5 466.5 c 128,-1,43
 475 460 475 460 478.5 452 c 128,-1,44
 482 444 482 444 482 434 c 1,45,-1
 482 434 l 1,21,-1
452 435 m 1,46,47
 452 437 452 437 451 440 c 128,-1,48
 450 443 450 443 448.5 444.5 c 128,-1,49
 447 446 447 446 444.5 448 c 128,-1,50
 442 450 442 450 440 449 c 2,51,-1
 72 450 l 2,52,53
 70 449 70 449 67.5 448 c 128,-1,54
 65 447 65 447 63.5 444.5 c 128,-1,55
 62 442 62 442 61 440 c 128,-1,56
 60 438 60 438 60 434 c 2,57,-1
 60 13 l 2,58,59
 60 9 60 9 61 7 c 128,-1,60
 62 5 62 5 63.5 2.5 c 128,-1,61
 65 0 65 0 67.5 -1 c 128,-1,62
 70 -2 70 -2 72 -3 c 2,63,-1
 440 -2 l 2,64,65
 442 -3 442 -3 444.5 -1 c 128,-1,66
 447 1 447 1 448.5 2.5 c 128,-1,67
 450 4 450 4 451 7 c 128,-1,68
 452 10 452 10 452 12 c 2,69,-1
 452 435 l 1,70,-1
 452 435 l 1,46,47
90 419 m 1,71,-1
 422 420 l 1,72,-1
 422 87 l 1,73,-1
 90 88 l 1,74,-1
 90 419 l 1,75,-1
 90 419 l 1,71,-1
120 119 m 1,76,-1
 392 118 l 1,77,-1
 392 390 l 1,78,-1
 120 389 l 1,79,-1
 120 119 l 1,80,-1
 120 119 l 1,76,-1
EndSplineSet
EndChar

StartChar: uniE60A
Encoding: 58890 58890 14
Width: 512
GlyphClass: 1
Flags: W
LayerCount: 2
Fore
SplineSet
501 269 m 1,0,-1
 314 269 l 1,1,-1
 256 447 l 1,2,-1
 198 269 l 1,3,-1
 11 269 l 1,4,-1
 162 158 l 1,5,-1
 104 -20 l 1,6,-1
 256 90 l 1,7,-1
 408 -20 l 1,8,-1
 350 158 l 1,9,-1
 501 269 l 1,10,-1
 501 269 l 1,0,-1
350 59 m 1,11,-1
 256 128 l 1,12,-1
 162 59 l 1,13,-1
 198 170 l 1,14,-1
 103 239 l 1,15,-1
 220 239 l 1,16,-1
 256 350 l 1,17,-1
 292 239 l 1,18,-1
 409 239 l 1,19,-1
 314 170 l 1,20,-1
 350 59 l 1,21,-1
 350 59 l 1,11,-1
EndSplineSet
EndChar

StartChar: uniE60B
Encoding: 58891 58891 15
Width: 512
GlyphClass: 1
Flags: W
LayerCount: 2
Fore
SplineSet
196 390 m 1,0,1
 180 390 180 390 164.5 385.5 c 128,-1,2
 149 381 149 381 135.5 373 c 128,-1,3
 122 365 122 365 111 354 c 128,-1,4
 100 343 100 343 92 329 c 1,5,-1
 60 329 l 1,6,-1
 60 13 l 2,7,8
 60 4 60 4 63.5 -4.5 c 128,-1,9
 67 -13 67 -13 73.5 -19 c 128,-1,10
 80 -25 80 -25 88 -28.5 c 128,-1,11
 96 -32 96 -32 105 -32 c 2,12,-1
 286 -32 l 2,13,14
 295 -32 295 -32 303.5 -28.5 c 128,-1,15
 312 -25 312 -25 318 -19 c 128,-1,16
 324 -13 324 -13 327.5 -4.5 c 128,-1,17
 331 4 331 4 331 13 c 2,18,-1
 331 329 l 1,19,-1
 300 329 l 1,20,21
 292 343 292 343 280.5 354 c 128,-1,22
 269 365 269 365 255.5 373 c 128,-1,23
 242 381 242 381 227 385.5 c 128,-1,24
 212 390 212 390 196 390 c 1,25,-1
 196 390 l 1,0,1
196 360 m 1,26,27
 205 360 205 360 214.5 357.5 c 128,-1,28
 224 355 224 355 232.5 351.5 c 128,-1,29
 241 348 241 348 249 342 c 128,-1,30
 257 336 257 336 263 329 c 1,31,-1
 129 329 l 1,32,33
 135 336 135 336 142.5 342 c 128,-1,34
 150 348 150 348 158.5 351.5 c 128,-1,35
 167 355 167 355 176.5 357.5 c 128,-1,36
 186 360 186 360 196 360 c 1,37,-1
 196 360 l 1,26,27
301 13 m 1,38,39
 301 10 301 10 300 7.5 c 128,-1,40
 299 5 299 5 297 2.5 c 128,-1,41
 295 0 295 0 292 -1 c 128,-1,42
 289 -2 289 -2 286 -2 c 2,43,-1
 105 -2 l 2,44,45
 102 -2 102 -2 99.5 -1 c 128,-1,46
 97 0 97 0 95 2.5 c 128,-1,47
 93 5 93 5 91.5 7.5 c 128,-1,48
 90 10 90 10 90 13 c 2,49,-1
 90 299 l 1,50,-1
 301 299 l 1,51,-1
 301 13 l 1,52,-1
 301 13 l 1,38,39
241 480 m 1,53,-1
 151 480 l 1,54,-1
 151 390 l 1,55,-1
 241 390 l 1,56,-1
 241 480 l 1,57,-1
 241 480 l 1,53,-1
211 420 m 1,58,-1
 181 420 l 1,59,-1
 181 450 l 1,60,-1
 211 450 l 1,61,-1
 211 420 l 1,62,-1
 211 420 l 1,58,-1
360 434 m 1,63,-1
 454 419 l 1,64,-1
 449 389 l 1,65,-1
 269 419 l 1,66,-1
 271 434 l 1,67,-1
 269 450 l 1,68,-1
 449 480 l 1,69,-1
 454 450 l 1,70,-1
 360 434 l 1,71,-1
 360 434 l 1,63,-1
EndSplineSet
EndChar

StartChar: uniE60C
Encoding: 58892 58892 16
Width: 512
GlyphClass: 1
Flags: W
LayerCount: 2
Fore
SplineSet
346 360 m 1,0,1
 346 379 346 379 339 395 c 128,-1,2
 332 411 332 411 320 424 c 128,-1,3
 308 437 308 437 291.5 443.5 c 128,-1,4
 275 450 275 450 256 451 c 0,5,6
 237 450 237 450 220.5 443.5 c 128,-1,7
 204 437 204 437 192 424 c 128,-1,8
 180 411 180 411 173 395 c 128,-1,9
 166 379 166 379 166 360 c 0,10,11
 166 344 166 344 171.5 328.5 c 128,-1,12
 177 313 177 313 187 301.5 c 128,-1,13
 197 290 197 290 211 281.5 c 128,-1,14
 225 273 225 273 241 272 c 1,15,-1
 241 28 l 1,16,-1
 181 29 l 1,17,-1
 181 -2 l 1,18,-1
 331 -1 l 1,19,-1
 331 28 l 1,20,-1
 271 29 l 1,21,-1
 271 271 l 1,22,23
 287 274 287 274 301 281.5 c 128,-1,24
 315 289 315 289 325 301.5 c 128,-1,25
 335 314 335 314 340.5 328.5 c 128,-1,26
 346 343 346 343 346 361 c 1,27,-1
 346 360 l 1,0,1
196 360 m 1,28,29
 196 373 196 373 200.5 383.5 c 128,-1,30
 205 394 205 394 213.5 402.5 c 128,-1,31
 222 411 222 411 233 415.5 c 128,-1,32
 244 420 244 420 256 421 c 0,33,34
 268 420 268 420 279 415.5 c 128,-1,35
 290 411 290 411 298.5 402.5 c 128,-1,36
 307 394 307 394 311.5 383.5 c 128,-1,37
 316 373 316 373 316 360 c 0,38,39
 316 348 316 348 311.5 336.5 c 128,-1,40
 307 325 307 325 298.5 317.5 c 128,-1,41
 290 310 290 310 279 304.5 c 128,-1,42
 268 299 268 299 256 300 c 0,43,44
 244 299 244 299 233 304.5 c 128,-1,45
 222 310 222 310 213.5 317.5 c 128,-1,46
 205 325 205 325 200.5 336.5 c 128,-1,47
 196 348 196 348 196 360 c 1,48,-1
 196 360 l 1,28,29
136 415 m 1,49,50
 131 409 131 409 128 404 c 128,-1,51
 125 399 125 399 123 392.5 c 128,-1,52
 121 386 121 386 119.5 380 c 128,-1,53
 118 374 118 374 118 367 c 0,54,55
 118 361 118 361 119.5 354.5 c 128,-1,56
 121 348 121 348 123 342.5 c 128,-1,57
 125 337 125 337 128 330.5 c 128,-1,58
 131 324 131 324 136 320 c 1,59,-1
 112 300 l 1,60,61
 106 308 106 308 101.5 315.5 c 128,-1,62
 97 323 97 323 94 332 c 128,-1,63
 91 341 91 341 89.5 349 c 128,-1,64
 88 357 88 357 88 368 c 0,65,66
 88 376 88 376 89.5 385 c 128,-1,67
 91 394 91 394 94 402 c 128,-1,68
 97 410 97 410 101.5 418.5 c 128,-1,69
 106 427 106 427 112 433 c 1,70,-1
 136 415 l 1,71,-1
 136 415 l 1,49,50
60 367 m 1,72,73
 60 355 60 355 62.5 343 c 128,-1,74
 65 331 65 331 69 320 c 128,-1,75
 73 309 73 309 79.5 298.5 c 128,-1,76
 86 288 86 288 94 279 c 1,77,-1
 71 258 l 1,78,79
 61 271 61 271 53.5 283 c 128,-1,80
 46 295 46 295 41 309.5 c 128,-1,81
 36 324 36 324 33 338 c 128,-1,82
 30 352 30 352 30 368 c 0,83,84
 30 381 30 381 33 396 c 128,-1,85
 36 411 36 411 41 424.5 c 128,-1,86
 46 438 46 438 53.5 451 c 128,-1,87
 61 464 61 464 71 475 c 1,88,-1
 94 456 l 1,89,90
 86 446 86 446 79.5 436 c 128,-1,91
 73 426 73 426 69 414 c 128,-1,92
 65 402 65 402 62.5 391 c 128,-1,93
 60 380 60 380 60 367 c 1,94,-1
 60 367 l 1,72,73
424 368 m 1,95,96
 424 357 424 357 422.5 349 c 128,-1,97
 421 341 421 341 418 332 c 128,-1,98
 415 323 415 323 410.5 315.5 c 128,-1,99
 406 308 406 308 400 300 c 1,100,-1
 376 320 l 1,101,102
 381 324 381 324 384 330.5 c 128,-1,103
 387 337 387 337 389 342.5 c 128,-1,104
 391 348 391 348 392.5 354.5 c 128,-1,105
 394 361 394 361 394 367 c 0,106,107
 394 374 394 374 392.5 380 c 128,-1,108
 391 386 391 386 389 392 c 128,-1,109
 387 398 387 398 384 403.5 c 128,-1,110
 381 409 381 409 376 415 c 1,111,-1
 400 433 l 1,112,113
 406 427 406 427 410.5 418.5 c 128,-1,114
 415 410 415 410 418 402 c 128,-1,115
 421 394 421 394 422.5 385 c 128,-1,116
 424 376 424 376 424 368 c 1,117,-1
 424 368 l 1,95,96
482 367 m 1,118,119
 482 353 482 353 479 338 c 128,-1,120
 476 323 476 323 471 309.5 c 128,-1,121
 466 296 466 296 458.5 283 c 128,-1,122
 451 270 451 270 441 259 c 1,123,-1
 418 278 l 1,124,125
 426 289 426 289 432.5 298.5 c 128,-1,126
 439 308 439 308 443 320 c 128,-1,127
 447 332 447 332 449.5 343 c 128,-1,128
 452 354 452 354 452 368 c 0,129,130
 452 379 452 379 449.5 391 c 128,-1,131
 447 403 447 403 443 414 c 128,-1,132
 439 425 439 425 432.5 436 c 128,-1,133
 426 447 426 447 418 455 c 1,134,-1
 441 476 l 1,135,136
 451 463 451 463 458.5 451 c 128,-1,137
 466 439 466 439 471 424.5 c 128,-1,138
 476 410 476 410 479 396 c 128,-1,139
 482 382 482 382 482 367 c 1,140,-1
 482 367 l 1,118,119
EndSplineSet
EndChar

StartChar: uniE60D
Encoding: 58893 58893 17
Width: 512
GlyphClass: 1
Flags: W
LayerCount: 2
Fore
SplineSet
83 104 m 1,0,1
 72 104 72 104 62.5 99.5 c 128,-1,2
 53 95 53 95 45.5 88 c 128,-1,3
 38 81 38 81 34 71.5 c 128,-1,4
 30 62 30 62 30 51 c 256,5,6
 30 40 30 40 34 30.5 c 128,-1,7
 38 21 38 21 45.5 13.5 c 128,-1,8
 53 6 53 6 62.5 2 c 128,-1,9
 72 -2 72 -2 83 -2 c 256,10,11
 94 -2 94 -2 103.5 2 c 128,-1,12
 113 6 113 6 120 13.5 c 128,-1,13
 127 21 127 21 131.5 30.5 c 128,-1,14
 136 40 136 40 136 51 c 256,15,16
 136 62 136 62 131.5 71.5 c 128,-1,17
 127 81 127 81 120 88 c 128,-1,18
 113 95 113 95 103.5 99.5 c 128,-1,19
 94 104 94 104 83 104 c 1,20,-1
 83 104 l 1,0,1
83 28 m 1,21,22
 78 28 78 28 74 30 c 128,-1,23
 70 32 70 32 67 35 c 128,-1,24
 64 38 64 38 62 42 c 128,-1,25
 60 46 60 46 60 51 c 0,26,27
 60 55 60 55 62 59.5 c 128,-1,28
 64 64 64 64 67 67 c 128,-1,29
 70 70 70 70 74 71.5 c 128,-1,30
 78 73 78 73 83 73 c 0,31,32
 87 73 87 73 91.5 71.5 c 128,-1,33
 96 70 96 70 99 67 c 128,-1,34
 102 64 102 64 103.5 59.5 c 128,-1,35
 105 55 105 55 105 51 c 0,36,37
 105 46 105 46 103.5 42 c 128,-1,38
 102 38 102 38 99 35 c 128,-1,39
 96 32 96 32 91.5 30 c 128,-1,40
 87 28 87 28 83 28 c 1,41,-1
 83 28 l 1,21,22
339 104 m 1,42,43
 328 104 328 104 318.5 99.5 c 128,-1,44
 309 95 309 95 301.5 88 c 128,-1,45
 294 81 294 81 290 71.5 c 128,-1,46
 286 62 286 62 286 51 c 256,47,48
 286 40 286 40 290 30.5 c 128,-1,49
 294 21 294 21 301.5 13.5 c 128,-1,50
 309 6 309 6 318.5 2 c 128,-1,51
 328 -2 328 -2 339 -2 c 256,52,53
 350 -2 350 -2 359.5 2 c 128,-1,54
 369 6 369 6 376 13.5 c 128,-1,55
 383 21 383 21 387.5 30.5 c 128,-1,56
 392 40 392 40 392 51 c 256,57,58
 392 62 392 62 387.5 71.5 c 128,-1,59
 383 81 383 81 376 88 c 128,-1,60
 369 95 369 95 359.5 99.5 c 128,-1,61
 350 104 350 104 339 104 c 1,62,-1
 339 104 l 1,42,43
339 28 m 1,63,64
 334 28 334 28 330 30 c 128,-1,65
 326 32 326 32 323 35 c 128,-1,66
 320 38 320 38 318 42 c 128,-1,67
 316 46 316 46 316 51 c 0,68,69
 316 55 316 55 318 59.5 c 128,-1,70
 320 64 320 64 323 67 c 128,-1,71
 326 70 326 70 330 71.5 c 128,-1,72
 334 73 334 73 339 73 c 0,73,74
 343 73 343 73 347.5 71.5 c 128,-1,75
 352 70 352 70 355 67 c 128,-1,76
 358 64 358 64 359.5 59.5 c 128,-1,77
 361 55 361 55 361 51 c 0,78,79
 361 46 361 46 359.5 42 c 128,-1,80
 358 38 358 38 355 35 c 128,-1,81
 352 32 352 32 347.5 30 c 128,-1,82
 343 28 343 28 339 28 c 1,83,-1
 339 28 l 1,63,64
403 420 m 1,84,-1
 394 360 l 1,85,-1
 -2 360 l 1,86,-1
 31 118 l 1,87,-1
 390 118 l 1,88,-1
 421 342 l 1,89,-1
 429 390 l 1,90,-1
 512 390 l 1,91,-1
 512 420 l 1,92,-1
 403 420 l 1,93,-1
 403 420 l 1,84,-1
389 329 m 1,94,-1
 385 299 l 1,95,-1
 37 299 l 1,96,-1
 32 329 l 1,97,-1
 389 329 l 1,98,-1
 389 329 l 1,94,-1
58 148 m 1,99,-1
 41 269 l 1,100,-1
 381 269 l 1,101,-1
 364 148 l 1,102,-1
 58 148 l 1,103,-1
 58 148 l 1,99,-1
EndSplineSet
EndChar

StartChar: uniE60E
Encoding: 58894 58894 18
Width: 512
GlyphClass: 1
Flags: W
LayerCount: 2
Fore
SplineSet
83 104 m 1,0,1
 72 104 72 104 62.5 99.5 c 128,-1,2
 53 95 53 95 45.5 88 c 128,-1,3
 38 81 38 81 34 71.5 c 128,-1,4
 30 62 30 62 30 51 c 256,5,6
 30 40 30 40 34 30.5 c 128,-1,7
 38 21 38 21 45.5 13.5 c 128,-1,8
 53 6 53 6 62.5 2 c 128,-1,9
 72 -2 72 -2 83 -2 c 256,10,11
 94 -2 94 -2 103.5 2 c 128,-1,12
 113 6 113 6 120 13.5 c 128,-1,13
 127 21 127 21 131.5 30.5 c 128,-1,14
 136 40 136 40 136 51 c 256,15,16
 136 62 136 62 131.5 71.5 c 128,-1,17
 127 81 127 81 120 88 c 128,-1,18
 113 95 113 95 103.5 99.5 c 128,-1,19
 94 104 94 104 83 104 c 1,20,-1
 83 104 l 1,0,1
83 28 m 1,21,22
 78 28 78 28 74 30 c 128,-1,23
 70 32 70 32 67 35 c 128,-1,24
 64 38 64 38 62 42 c 128,-1,25
 60 46 60 46 60 51 c 0,26,27
 60 55 60 55 62 59.5 c 128,-1,28
 64 64 64 64 67 67 c 128,-1,29
 70 70 70 70 74 71.5 c 128,-1,30
 78 73 78 73 83 73 c 0,31,32
 87 73 87 73 91.5 71.5 c 128,-1,33
 96 70 96 70 99 67 c 128,-1,34
 102 64 102 64 103.5 59.5 c 128,-1,35
 105 55 105 55 105 51 c 0,36,37
 105 46 105 46 103.5 42 c 128,-1,38
 102 38 102 38 99 35 c 128,-1,39
 96 32 96 32 91.5 30 c 128,-1,40
 87 28 87 28 83 28 c 1,41,-1
 83 28 l 1,21,22
339 104 m 1,42,43
 328 104 328 104 318.5 99.5 c 128,-1,44
 309 95 309 95 301.5 88 c 128,-1,45
 294 81 294 81 290 71.5 c 128,-1,46
 286 62 286 62 286 51 c 256,47,48
 286 40 286 40 290 30.5 c 128,-1,49
 294 21 294 21 301.5 13.5 c 128,-1,50
 309 6 309 6 318.5 2 c 128,-1,51
 328 -2 328 -2 339 -2 c 256,52,53
 350 -2 350 -2 359.5 2 c 128,-1,54
 369 6 369 6 376 13.5 c 128,-1,55
 383 21 383 21 387.5 30.5 c 128,-1,56
 392 40 392 40 392 51 c 256,57,58
 392 62 392 62 387.5 71.5 c 128,-1,59
 383 81 383 81 376 88 c 128,-1,60
 369 95 369 95 359.5 99.5 c 128,-1,61
 350 104 350 104 339 104 c 1,62,-1
 339 104 l 1,42,43
339 28 m 1,63,64
 334 28 334 28 330 30 c 128,-1,65
 326 32 326 32 323 35 c 128,-1,66
 320 38 320 38 318 42 c 128,-1,67
 316 46 316 46 316 51 c 0,68,69
 316 55 316 55 318 59.5 c 128,-1,70
 320 64 320 64 323 67 c 128,-1,71
 326 70 326 70 330 71.5 c 128,-1,72
 334 73 334 73 339 73 c 0,73,74
 343 73 343 73 347.5 71.5 c 128,-1,75
 352 70 352 70 355 67 c 128,-1,76
 358 64 358 64 359.5 59.5 c 128,-1,77
 361 55 361 55 361 51 c 0,78,79
 361 46 361 46 359.5 42 c 128,-1,80
 358 38 358 38 355 35 c 128,-1,81
 352 32 352 32 347.5 30 c 128,-1,82
 343 28 343 28 339 28 c 1,83,-1
 339 28 l 1,63,64
403 420 m 1,84,-1
 394 360 l 1,85,-1
 -2 360 l 1,86,-1
 31 118 l 1,87,-1
 390 118 l 1,88,-1
 422 343 l 1,89,-1
 429 390 l 1,90,-1
 512 390 l 1,91,-1
 512 420 l 1,92,-1
 403 420 l 1,93,-1
 403 420 l 1,84,-1
364 148 m 1,94,-1
 58 148 l 1,95,-1
 32 329 l 1,96,-1
 389 329 l 1,97,-1
 364 148 l 1,98,-1
 364 148 l 1,94,-1
331 179 m 1,99,-1
 90 179 l 1,100,-1
 90 298 l 1,101,-1
 120 298 l 1,102,-1
 120 209 l 1,103,-1
 301 209 l 1,104,-1
 301 298 l 1,105,-1
 331 298 l 1,106,-1
 331 179 l 1,107,-1
 331 179 l 1,99,-1
120 391 m 1,108,-1
 90 391 l 1,109,-1
 90 450 l 1,110,-1
 331 450 l 1,111,-1
 331 392 l 1,112,-1
 301 392 l 1,113,-1
 301 420 l 1,114,-1
 120 420 l 1,115,-1
 120 391 l 1,116,-1
 120 391 l 1,108,-1
EndSplineSet
EndChar

StartChar: uniE60F
Encoding: 58895 58895 19
Width: 512
GlyphClass: 1
Flags: W
LayerCount: 2
Fore
SplineSet
256 300 m 1,0,1
 240 300 240 300 226.5 294 c 128,-1,2
 213 288 213 288 203 278 c 128,-1,3
 193 268 193 268 187 254 c 128,-1,4
 181 240 181 240 181 225 c 0,5,6
 181 209 181 209 187 195.5 c 128,-1,7
 193 182 193 182 203 171.5 c 128,-1,8
 213 161 213 161 226.5 155.5 c 128,-1,9
 240 150 240 150 256 150 c 256,10,11
 272 150 272 150 285.5 155.5 c 128,-1,12
 299 161 299 161 309 171.5 c 128,-1,13
 319 182 319 182 325 195.5 c 128,-1,14
 331 209 331 209 331 225 c 0,15,16
 331 240 331 240 325 254 c 128,-1,17
 319 268 319 268 309 278 c 128,-1,18
 299 288 299 288 285.5 294 c 128,-1,19
 272 300 272 300 256 300 c 1,20,-1
 256 300 l 1,0,1
256 180 m 1,21,22
 247 180 247 180 238.5 183.5 c 128,-1,23
 230 187 230 187 224 193 c 128,-1,24
 218 199 218 199 214.5 207.5 c 128,-1,25
 211 216 211 216 211 225 c 256,26,27
 211 234 211 234 214.5 242.5 c 128,-1,28
 218 251 218 251 224 257 c 128,-1,29
 230 263 230 263 238.5 266.5 c 128,-1,30
 247 270 247 270 256 270 c 256,31,32
 265 270 265 270 273.5 266.5 c 128,-1,33
 282 263 282 263 288 257 c 128,-1,34
 294 251 294 251 297.5 242.5 c 128,-1,35
 301 234 301 234 301 225 c 256,36,37
 301 216 301 216 297.5 207.5 c 128,-1,38
 294 199 294 199 288 193 c 128,-1,39
 282 187 282 187 273.5 183.5 c 128,-1,40
 265 180 265 180 256 180 c 1,41,-1
 256 180 l 1,21,22
510 196 m 1,42,43
 511 199 511 199 511 202.5 c 128,-1,44
 511 206 511 206 511.5 210 c 128,-1,45
 512 214 512 214 512 217.5 c 128,-1,46
 512 221 512 221 512 225 c 256,47,48
 512 229 512 229 512 232.5 c 128,-1,49
 512 236 512 236 511.5 239.5 c 128,-1,50
 511 243 511 243 511 247 c 128,-1,51
 511 251 511 251 510 254 c 2,52,-1
 432 278 l 2,53,54
 431 282 431 282 429.5 286.5 c 128,-1,55
 428 291 428 291 426 295.5 c 128,-1,56
 424 300 424 300 422 304 c 128,-1,57
 420 308 420 308 418 312 c 2,58,-1
 456 384 l 1,59,60
 452 390 452 390 447 395.5 c 128,-1,61
 442 401 442 401 437 406 c 128,-1,62
 432 411 432 411 426.5 416 c 128,-1,63
 421 421 421 421 415 425 c 1,64,-1
 343 387 l 2,65,66
 339 389 339 389 335 391 c 128,-1,67
 331 393 331 393 326.5 395 c 128,-1,68
 322 397 322 397 317.5 398.5 c 128,-1,69
 313 400 313 400 309 401 c 2,70,-1
 285 479 l 2,71,72
 282 479 282 479 278 479.5 c 128,-1,73
 274 480 274 480 270.5 480.5 c 128,-1,74
 267 481 267 481 263.5 481 c 128,-1,75
 260 481 260 481 256 481 c 256,76,77
 252 481 252 481 248.5 481 c 128,-1,78
 245 481 245 481 241.5 480.5 c 128,-1,79
 238 480 238 480 234 479.5 c 128,-1,80
 230 479 230 479 227 479 c 2,81,-1
 203 401 l 2,82,83
 199 400 199 400 194.5 398.5 c 128,-1,84
 190 397 190 397 185.5 395 c 128,-1,85
 181 393 181 393 177 391 c 128,-1,86
 173 389 173 389 169 387 c 2,87,-1
 97 425 l 1,88,89
 91 421 91 421 85.5 416 c 128,-1,90
 80 411 80 411 75 406 c 128,-1,91
 70 401 70 401 65 395.5 c 128,-1,92
 60 390 60 390 56 384 c 1,93,-1
 94 312 l 2,94,95
 92 308 92 308 90 304 c 128,-1,96
 88 300 88 300 86 295.5 c 128,-1,97
 84 291 84 291 82.5 286.5 c 128,-1,98
 81 282 81 282 80 278 c 2,99,-1
 2 254 l 2,100,101
 1 251 1 251 1 247 c 128,-1,102
 1 243 1 243 0.5 239.5 c 128,-1,103
 0 236 0 236 0 232.5 c 128,-1,104
 0 229 0 229 0 225 c 256,105,106
 0 221 0 221 0 217.5 c 128,-1,107
 0 214 0 214 0.5 210 c 128,-1,108
 1 206 1 206 1 202.5 c 128,-1,109
 1 199 1 199 2 196 c 2,110,-1
 80 172 l 2,111,112
 81 168 81 168 82.5 163.5 c 128,-1,113
 84 159 84 159 86 154.5 c 128,-1,114
 88 150 88 150 90 146 c 128,-1,115
 92 142 92 142 94 137 c 1,116,-1
 56 66 l 1,117,118
 60 60 60 60 65 54.5 c 128,-1,119
 70 49 70 49 75 44 c 128,-1,120
 80 39 80 39 85.5 34 c 128,-1,121
 91 29 91 29 97 24 c 1,122,-1
 169 63 l 2,123,124
 173 61 173 61 177 59 c 128,-1,125
 181 57 181 57 185.5 55 c 128,-1,126
 190 53 190 53 194.5 51.5 c 128,-1,127
 199 50 199 50 203 49 c 2,128,-1
 227 -29 l 2,129,130
 230 -30 230 -30 234 -30 c 128,-1,131
 238 -30 238 -30 241.5 -30.5 c 128,-1,132
 245 -31 245 -31 248.5 -31 c 128,-1,133
 252 -31 252 -31 256 -31 c 256,134,135
 260 -31 260 -31 263.5 -31 c 128,-1,136
 267 -31 267 -31 270.5 -30.5 c 128,-1,137
 274 -30 274 -30 278 -30 c 128,-1,138
 282 -30 282 -30 285 -29 c 2,139,-1
 309 49 l 2,140,141
 313 50 313 50 317.5 51.5 c 128,-1,142
 322 53 322 53 326.5 55 c 128,-1,143
 331 57 331 57 335 59 c 128,-1,144
 339 61 339 61 343 63 c 2,145,-1
 415 24 l 1,146,147
 421 29 421 29 426.5 34 c 128,-1,148
 432 39 432 39 437 44 c 128,-1,149
 442 49 442 49 447 54.5 c 128,-1,150
 452 60 452 60 456 66 c 1,151,-1
 418 138 l 2,152,153
 420 142 420 142 422 146 c 128,-1,154
 424 150 424 150 426 154.5 c 128,-1,155
 428 159 428 159 429.5 163.5 c 128,-1,156
 431 168 431 168 432 172 c 2,157,-1
 510 196 l 1,158,-1
 510 196 l 1,42,43
408 196 m 1,159,-1
 403 181 l 2,160,161
 402 177 402 177 401 173 c 128,-1,162
 400 169 400 169 398.5 165.5 c 128,-1,163
 397 162 397 162 395 158.5 c 128,-1,164
 393 155 393 155 391 152 c 2,165,-1
 384 138 l 1,166,-1
 391 123 l 1,167,-1
 420 70 l 2,168,169
 419 69 419 69 418 67.5 c 128,-1,170
 417 66 417 66 415.5 65 c 128,-1,171
 414 64 414 64 413 63 c 128,-1,172
 412 62 412 62 411 61 c 2,173,-1
 343 97 l 1,174,-1
 329 89 l 2,175,176
 326 88 326 88 322.5 86 c 128,-1,177
 319 84 319 84 315 82.5 c 128,-1,178
 311 81 311 81 307.5 80 c 128,-1,179
 304 79 304 79 300 77 c 2,180,-1
 285 73 l 1,181,-1
 280 57 l 1,182,-1
 262 -1 l 1,183,184
 262 -1 262 -1 261 -1 c 128,-1,185
 260 -1 260 -1 259 -1 c 128,-1,186
 258 -1 258 -1 257.5 -1 c 128,-1,187
 257 -1 257 -1 256 -1 c 256,188,189
 255 -1 255 -1 254.5 -1 c 128,-1,190
 254 -1 254 -1 253 -1 c 128,-1,191
 252 -1 252 -1 251 -1 c 128,-1,192
 250 -1 250 -1 250 -1 c 1,193,-1
 232 57 l 1,194,-1
 227 73 l 1,195,-1
 212 77 l 2,196,197
 208 79 208 79 204.5 80 c 128,-1,198
 201 81 201 81 197 82.5 c 128,-1,199
 193 84 193 84 189.5 86 c 128,-1,200
 186 88 186 88 183 89 c 2,201,-1
 169 97 l 1,202,-1
 101 61 l 2,203,204
 100 62 100 62 99 63 c 128,-1,205
 98 64 98 64 96.5 65 c 128,-1,206
 95 66 95 66 94 67.5 c 128,-1,207
 93 69 93 69 92 70 c 2,208,-1
 128 138 l 1,209,-1
 121 152 l 2,210,211
 119 155 119 155 117 158.5 c 128,-1,212
 115 162 115 162 113.5 166 c 128,-1,213
 112 170 112 170 111 173.5 c 128,-1,214
 110 177 110 177 109 181 c 2,215,-1
 104 196 l 1,216,-1
 30 218 l 2,217,218
 30 219 30 219 30 220 c 128,-1,219
 30 221 30 221 30 221.5 c 128,-1,220
 30 222 30 222 30 223 c 128,-1,221
 30 224 30 224 30 225 c 256,222,223
 30 226 30 226 30 226.5 c 128,-1,224
 30 227 30 227 30 228 c 128,-1,225
 30 229 30 229 30 229.5 c 128,-1,226
 30 230 30 230 30 231 c 2,227,-1
 104 253 l 1,228,-1
 109 269 l 2,229,230
 110 273 110 273 111 276.5 c 128,-1,231
 112 280 112 280 113.5 283.5 c 128,-1,232
 115 287 115 287 117 290.5 c 128,-1,233
 119 294 119 294 121 298 c 2,234,-1
 128 312 l 1,235,-1
 92 380 l 2,236,237
 93 381 93 381 94 382 c 128,-1,238
 95 383 95 383 96.5 384.5 c 128,-1,239
 98 386 98 386 99 387 c 128,-1,240
 100 388 100 388 101 389 c 2,241,-1
 169 353 l 1,242,-1
 183 360 l 2,243,244
 186 362 186 362 189.5 364 c 128,-1,245
 193 366 193 366 197 367 c 128,-1,246
 201 368 201 368 204.5 369.5 c 128,-1,247
 208 371 208 371 212 372 c 2,248,-1
 227 377 l 1,249,-1
 232 392 l 1,250,-1
 250 451 l 1,251,252
 250 451 250 451 251 451 c 128,-1,253
 252 451 252 451 253 451 c 128,-1,254
 254 451 254 451 254.5 451 c 128,-1,255
 255 451 255 451 256 451 c 256,256,257
 257 451 257 451 257.5 451 c 128,-1,258
 258 451 258 451 259 451 c 128,-1,259
 260 451 260 451 261 451 c 128,-1,260
 262 451 262 451 262 451 c 1,261,-1
 280 392 l 1,262,-1
 285 377 l 1,263,-1
 300 372 l 2,264,265
 304 371 304 371 307.5 369.5 c 128,-1,266
 311 368 311 368 315 366.5 c 128,-1,267
 319 365 319 365 322.5 363.5 c 128,-1,268
 326 362 326 362 329 360 c 2,269,-1
 343 353 l 1,270,-1
 411 389 l 2,271,272
 412 388 412 388 413 387 c 128,-1,273
 414 386 414 386 415.5 384.5 c 128,-1,274
 417 383 417 383 418 382 c 128,-1,275
 419 381 419 381 420 380 c 2,276,-1
 391 326 l 1,277,-1
 384 312 l 1,278,-1
 391 298 l 2,279,280
 393 294 393 294 395 290.5 c 128,-1,281
 397 287 397 287 398.5 283.5 c 128,-1,282
 400 280 400 280 401 276.5 c 128,-1,283
 402 273 402 273 403 269 c 2,284,-1
 408 253 l 1,285,-1
 424 249 l 1,286,-1
 482 231 l 2,287,288
 482 230 482 230 482 229.5 c 128,-1,289
 482 229 482 229 482 228 c 128,-1,290
 482 227 482 227 482 226.5 c 128,-1,291
 482 226 482 226 482 225 c 256,292,293
 482 224 482 224 482 223 c 128,-1,294
 482 222 482 222 482 221.5 c 128,-1,295
 482 221 482 221 482 220 c 128,-1,296
 482 219 482 219 482 218 c 2,297,-1
 408 196 l 1,298,-1
 408 196 l 1,159,-1
EndSplineSet
EndChar

StartChar: uniE610
Encoding: 58896 58896 20
Width: 512
GlyphClass: 1
Flags: W
LayerCount: 2
Fore
SplineSet
500 2 m 1,0,-1
 344 158 l 1,1,2
 355 171 355 171 364 185.5 c 128,-1,3
 373 200 373 200 379 216 c 128,-1,4
 385 232 385 232 388.5 249.5 c 128,-1,5
 392 267 392 267 392 285 c 0,6,7
 392 326 392 326 376.5 361.5 c 128,-1,8
 361 397 361 397 334.5 423.5 c 128,-1,9
 308 450 308 450 272 465.5 c 128,-1,10
 236 481 236 481 196 481 c 0,11,12
 176 481 176 481 157 477 c 128,-1,13
 138 473 138 473 120.5 466 c 128,-1,14
 103 459 103 459 87 448 c 128,-1,15
 71 437 71 437 57 424 c 0,16,17
 43 410 43 410 32.5 394 c 128,-1,18
 22 378 22 378 14.5 360 c 128,-1,19
 7 342 7 342 3.5 323.5 c 128,-1,20
 0 305 0 305 0 285 c 0,21,22
 0 245 0 245 15.5 209 c 128,-1,23
 31 173 31 173 57.5 146.5 c 128,-1,24
 84 120 84 120 119.5 104.5 c 128,-1,25
 155 89 155 89 196 89 c 0,26,27
 214 89 214 89 231.5 92.5 c 128,-1,28
 249 96 249 96 265 102 c 128,-1,29
 281 108 281 108 295.5 117 c 128,-1,30
 310 126 310 126 323 137 c 1,31,-1
 479 -19 l 1,32,-1
 500 2 l 1,33,-1
 500 2 l 1,0,-1
196 119 m 1,34,35
 162 119 162 119 131.5 132.5 c 128,-1,36
 101 146 101 146 78.5 168 c 128,-1,37
 56 190 56 190 43 220.5 c 128,-1,38
 30 251 30 251 30 285 c 0,39,40
 30 302 30 302 33 318 c 128,-1,41
 36 334 36 334 42.5 348.5 c 128,-1,42
 49 363 49 363 58 376.5 c 128,-1,43
 67 390 67 390 79 402 c 0,44,45
 90 414 90 414 103.5 423 c 128,-1,46
 117 432 117 432 132 438 c 128,-1,47
 147 444 147 444 163 447.5 c 128,-1,48
 179 451 179 451 196 451 c 0,49,50
 230 451 230 451 260 438 c 128,-1,51
 290 425 290 425 312.5 402.5 c 128,-1,52
 335 380 335 380 348 349.5 c 128,-1,53
 361 319 361 319 361 285 c 256,54,55
 361 251 361 251 348 221 c 128,-1,56
 335 191 335 191 312.5 168.5 c 128,-1,57
 290 146 290 146 260 132.5 c 128,-1,58
 230 119 230 119 196 119 c 1,59,-1
 196 119 l 1,34,35
EndSplineSet
EndChar

StartChar: uniE611
Encoding: 58897 58897 21
Width: 512
GlyphClass: 1
Flags: W
LayerCount: 2
Fore
SplineSet
500 1 m 1,0,-1
 344 157 l 1,1,2
 355 170 355 170 364 184.5 c 128,-1,3
 373 199 373 199 379 215 c 128,-1,4
 385 231 385 231 388.5 248.5 c 128,-1,5
 392 266 392 266 392 284 c 0,6,7
 392 325 392 325 376.5 360.5 c 128,-1,8
 361 396 361 396 334.5 422.5 c 128,-1,9
 308 449 308 449 272 464.5 c 128,-1,10
 236 480 236 480 196 480 c 0,11,12
 176 480 176 480 157 476 c 128,-1,13
 138 472 138 472 120.5 465 c 128,-1,14
 103 458 103 458 87 447.5 c 128,-1,15
 71 437 71 437 57 423 c 256,16,17
 43 409 43 409 32.5 393 c 128,-1,18
 22 377 22 377 15 359.5 c 128,-1,19
 8 342 8 342 4 323 c 128,-1,20
 0 304 0 304 0 284 c 0,21,22
 0 244 0 244 15.5 208 c 128,-1,23
 31 172 31 172 57.5 145.5 c 128,-1,24
 84 119 84 119 119.5 103.5 c 128,-1,25
 155 88 155 88 196 88 c 0,26,27
 214 88 214 88 231.5 91.5 c 128,-1,28
 249 95 249 95 265 101 c 128,-1,29
 281 107 281 107 295.5 116 c 128,-1,30
 310 125 310 125 323 136 c 1,31,-1
 479 -20 l 1,32,-1
 500 1 l 1,33,-1
 500 1 l 1,0,-1
196 119 m 1,34,35
 162 119 162 119 131.5 132 c 128,-1,36
 101 145 101 145 78.5 167.5 c 128,-1,37
 56 190 56 190 43 220 c 128,-1,38
 30 250 30 250 30 284 c 0,39,40
 30 301 30 301 33 317 c 128,-1,41
 36 333 36 333 42.5 348 c 128,-1,42
 49 363 49 363 58 376.5 c 128,-1,43
 67 390 67 390 79 401 c 0,44,45
 90 413 90 413 103.5 422 c 128,-1,46
 117 431 117 431 132 437.5 c 128,-1,47
 147 444 147 444 163 447 c 128,-1,48
 179 450 179 450 196 450 c 0,49,50
 230 450 230 450 260 437 c 128,-1,51
 290 424 290 424 312.5 401.5 c 128,-1,52
 335 379 335 379 348 348.5 c 128,-1,53
 361 318 361 318 361 284 c 256,54,55
 361 250 361 250 348 220 c 128,-1,56
 335 190 335 190 312.5 167.5 c 128,-1,57
 290 145 290 145 260 132 c 128,-1,58
 230 119 230 119 196 119 c 1,59,-1
 196 119 l 1,34,35
211 299 m 1,60,-1
 271 299 l 1,61,-1
 271 269 l 1,62,-1
 211 269 l 1,63,-1
 211 209 l 1,64,-1
 181 209 l 1,65,-1
 181 269 l 1,66,-1
 120 269 l 1,67,-1
 120 299 l 1,68,-1
 181 299 l 1,69,-1
 181 360 l 1,70,-1
 211 360 l 1,71,-1
 211 299 l 1,72,-1
 211 299 l 1,60,-1
EndSplineSet
EndChar

StartChar: uniE612
Encoding: 58898 58898 22
Width: 512
GlyphClass: 1
Flags: W
LayerCount: 2
Fore
SplineSet
500 2 m 1,0,-1
 344 158 l 1,1,2
 355 171 355 171 364 185.5 c 128,-1,3
 373 200 373 200 379 216 c 128,-1,4
 385 232 385 232 388.5 249.5 c 128,-1,5
 392 267 392 267 392 285 c 0,6,7
 392 326 392 326 376.5 361.5 c 128,-1,8
 361 397 361 397 334.5 423.5 c 128,-1,9
 308 450 308 450 272 465.5 c 128,-1,10
 236 481 236 481 196 481 c 0,11,12
 176 481 176 481 157 477 c 128,-1,13
 138 473 138 473 120.5 466 c 128,-1,14
 103 459 103 459 87 448 c 128,-1,15
 71 437 71 437 57 424 c 0,16,17
 43 410 43 410 32.5 394 c 128,-1,18
 22 378 22 378 14.5 360 c 128,-1,19
 7 342 7 342 3.5 323.5 c 128,-1,20
 0 305 0 305 0 285 c 0,21,22
 0 245 0 245 15.5 209 c 128,-1,23
 31 173 31 173 57.5 146.5 c 128,-1,24
 84 120 84 120 119.5 104.5 c 128,-1,25
 155 89 155 89 196 89 c 0,26,27
 214 89 214 89 231.5 92.5 c 128,-1,28
 249 96 249 96 265 102 c 128,-1,29
 281 108 281 108 295.5 117 c 128,-1,30
 310 126 310 126 323 137 c 1,31,-1
 479 -19 l 1,32,-1
 500 2 l 1,33,-1
 500 2 l 1,0,-1
196 119 m 1,34,35
 162 119 162 119 131.5 132.5 c 128,-1,36
 101 146 101 146 78.5 168 c 128,-1,37
 56 190 56 190 43 220.5 c 128,-1,38
 30 251 30 251 30 285 c 0,39,40
 30 302 30 302 33 318 c 128,-1,41
 36 334 36 334 42.5 348.5 c 128,-1,42
 49 363 49 363 58 376.5 c 128,-1,43
 67 390 67 390 79 402 c 0,44,45
 90 414 90 414 103.5 423 c 128,-1,46
 117 432 117 432 132 438 c 128,-1,47
 147 444 147 444 163 447.5 c 128,-1,48
 179 451 179 451 196 451 c 0,49,50
 230 451 230 451 260 438 c 128,-1,51
 290 425 290 425 312.5 402.5 c 128,-1,52
 335 380 335 380 348 349.5 c 128,-1,53
 361 319 361 319 361 285 c 256,54,55
 361 251 361 251 348 221 c 128,-1,56
 335 191 335 191 312.5 168.5 c 128,-1,57
 290 146 290 146 260 132.5 c 128,-1,58
 230 119 230 119 196 119 c 1,59,-1
 196 119 l 1,34,35
120 300 m 1,60,-1
 271 300 l 1,61,-1
 271 270 l 1,62,-1
 120 270 l 1,63,-1
 120 300 l 1,64,-1
 120 300 l 1,60,-1
EndSplineSet
EndChar

StartChar: uniE613
Encoding: 58899 58899 23
Width: 512
GlyphClass: 1
Flags: W
LayerCount: 2
Fore
SplineSet
392 149 m 1,0,1
 386 149 386 149 380 148 c 128,-1,2
 374 147 374 147 368.5 145.5 c 128,-1,3
 363 144 363 144 357.5 141.5 c 128,-1,4
 352 139 352 139 348 136 c 1,5,-1
 277 210 l 1,6,-1
 466 409 l 1,7,-1
 443 430 l 1,8,-1
 257 232 l 1,9,-1
 69 430 l 1,10,-1
 48 409 l 1,11,-1
 235 210 l 1,12,-1
 166 136 l 1,13,14
 160 139 160 139 155.5 141.5 c 128,-1,15
 151 144 151 144 144.5 145.5 c 128,-1,16
 138 147 138 147 133 148 c 128,-1,17
 128 149 128 149 120 149 c 0,18,19
 103 149 103 149 86 141.5 c 128,-1,20
 69 134 69 134 57 122 c 128,-1,21
 45 110 45 110 37.5 93.5 c 128,-1,22
 30 77 30 77 31 58 c 0,23,24
 30 40 30 40 37.5 23.5 c 128,-1,25
 45 7 45 7 57 -5.5 c 128,-1,26
 69 -18 69 -18 86 -25 c 128,-1,27
 103 -32 103 -32 120 -32 c 0,28,29
 140 -32 140 -32 156 -25 c 128,-1,30
 172 -18 172 -18 185 -5.5 c 128,-1,31
 198 7 198 7 204.5 23.5 c 128,-1,32
 211 40 211 40 212 58 c 0,33,34
 211 67 211 67 210 75 c 128,-1,35
 209 83 209 83 205.5 90.5 c 128,-1,36
 202 98 202 98 198.5 104.5 c 128,-1,37
 195 111 195 111 189 117 c 1,38,-1
 257 188 l 1,39,-1
 323 117 l 1,40,41
 319 111 319 111 314.5 104.5 c 128,-1,42
 310 98 310 98 307.5 90.5 c 128,-1,43
 305 83 305 83 303 75 c 128,-1,44
 301 67 301 67 302 58 c 0,45,46
 301 40 301 40 308.5 23.5 c 128,-1,47
 316 7 316 7 328 -5.5 c 128,-1,48
 340 -18 340 -18 357 -25 c 128,-1,49
 374 -32 374 -32 392 -32 c 0,50,51
 411 -32 411 -32 427 -25 c 128,-1,52
 443 -18 443 -18 456 -5.5 c 128,-1,53
 469 7 469 7 475.5 23.5 c 128,-1,54
 482 40 482 40 483 58 c 0,55,56
 482 77 482 77 475.5 93.5 c 128,-1,57
 469 110 469 110 456 122 c 128,-1,58
 443 134 443 134 427 141.5 c 128,-1,59
 411 149 411 149 392 149 c 1,60,-1
 392 149 l 1,0,1
121 -2 m 1,61,62
 108 -2 108 -2 97.5 3 c 128,-1,63
 87 8 87 8 78.5 16 c 128,-1,64
 70 24 70 24 65.5 35 c 128,-1,65
 61 46 61 46 60 58 c 0,66,67
 61 71 61 71 65.5 82 c 128,-1,68
 70 93 70 93 78.5 101 c 128,-1,69
 87 109 87 109 97.5 114 c 128,-1,70
 108 119 108 119 121 119 c 0,71,72
 133 119 133 119 144.5 114 c 128,-1,73
 156 109 156 109 163.5 101 c 128,-1,74
 171 93 171 93 176.5 82 c 128,-1,75
 182 71 182 71 181 58 c 0,76,77
 182 46 182 46 176.5 35 c 128,-1,78
 171 24 171 24 163.5 16 c 128,-1,79
 156 8 156 8 144.5 3 c 128,-1,80
 133 -2 133 -2 121 -2 c 1,81,-1
 121 -2 l 1,61,62
392 -2 m 1,82,83
 380 -2 380 -2 368.5 3 c 128,-1,84
 357 8 357 8 349.5 16 c 128,-1,85
 342 24 342 24 336.5 35 c 128,-1,86
 331 46 331 46 332 58 c 0,87,88
 331 71 331 71 336.5 82 c 128,-1,89
 342 93 342 93 349.5 101 c 128,-1,90
 357 109 357 109 368.5 114 c 128,-1,91
 380 119 380 119 392 119 c 0,92,93
 405 119 405 119 415.5 114 c 128,-1,94
 426 109 426 109 434.5 101 c 128,-1,95
 443 93 443 93 447.5 82 c 128,-1,96
 452 71 452 71 453 58 c 0,97,98
 452 46 452 46 447.5 35 c 128,-1,99
 443 24 443 24 434.5 16 c 128,-1,100
 426 8 426 8 415.5 3 c 128,-1,101
 405 -2 405 -2 392 -2 c 1,102,-1
 392 -2 l 1,82,83
EndSplineSet
EndChar

StartChar: uniE614
Encoding: 58900 58900 24
Width: 512
GlyphClass: 1
Flags: W
LayerCount: 2
Fore
SplineSet
151 480 m 1,0,-1
 151 -32 l 1,1,-1
 361 -32 l 1,2,-1
 361 480 l 1,3,-1
 151 480 l 1,4,-1
 151 480 l 1,0,-1
331 -2 m 1,5,-1
 181 -2 l 1,6,-1
 181 28 l 1,7,-1
 241 28 l 1,8,-1
 241 58 l 1,9,-1
 181 58 l 1,10,-1
 181 88 l 1,11,-1
 211 88 l 1,12,-1
 211 119 l 1,13,-1
 181 119 l 1,14,-1
 181 149 l 1,15,-1
 241 149 l 1,16,-1
 241 179 l 1,17,-1
 181 179 l 1,18,-1
 181 208 l 1,19,-1
 211 208 l 1,20,-1
 211 239 l 1,21,-1
 181 239 l 1,22,-1
 181 269 l 1,23,-1
 241 269 l 1,24,-1
 241 299 l 1,25,-1
 181 299 l 1,26,-1
 181 329 l 1,27,-1
 211 329 l 1,28,-1
 211 360 l 1,29,-1
 181 360 l 1,30,-1
 181 390 l 1,31,-1
 241 390 l 1,32,-1
 241 420 l 1,33,-1
 181 420 l 1,34,-1
 181 450 l 1,35,-1
 331 450 l 1,36,-1
 331 -2 l 1,37,-1
 331 -2 l 1,5,-1
EndSplineSet
EndChar

StartChar: uniE615
Encoding: 58901 58901 25
Width: 512
GlyphClass: 1
Flags: W
LayerCount: 2
Fore
SplineSet
135 480 m 1,0,-1
 75 480 l 2,1,2
 66 480 66 480 57.5 476.5 c 128,-1,3
 49 473 49 473 43 467 c 128,-1,4
 37 461 37 461 33 452.5 c 128,-1,5
 29 444 29 444 30 435 c 2,6,-1
 29 114 l 1,7,-1
 106 -35 l 1,8,-1
 179 114 l 1,9,-1
 180 435 l 2,10,11
 179 444 179 444 176 452.5 c 128,-1,12
 173 461 173 461 166.5 467 c 128,-1,13
 160 473 160 473 152.5 476.5 c 128,-1,14
 145 480 145 480 134 480 c 1,15,-1
 135 480 l 1,0,-1
76 450 m 1,16,-1
 134 450 l 2,17,18
 138 450 138 450 140.5 449 c 128,-1,19
 143 448 143 448 145.5 445.5 c 128,-1,20
 148 443 148 443 148.5 440.5 c 128,-1,21
 149 438 149 438 150 435 c 2,22,-1
 149 404 l 1,23,-1
 60 404 l 1,24,-1
 59 435 l 2,25,26
 60 438 60 438 61 440.5 c 128,-1,27
 62 443 62 443 64.5 445.5 c 128,-1,28
 67 448 67 448 69 449 c 128,-1,29
 71 450 71 450 76 450 c 1,30,-1
 76 450 l 1,16,-1
59 343 m 1,31,-1
 60 374 l 1,32,-1
 149 374 l 1,33,-1
 150 343 l 1,34,-1
 59 343 l 1,35,-1
 59 343 l 1,31,-1
119 58 m 1,36,-1
 92 58 l 1,37,-1
 60 121 l 1,38,-1
 59 313 l 1,39,-1
 91 313 l 1,40,-1
 90 118 l 1,41,-1
 121 118 l 1,42,-1
 120 313 l 1,43,-1
 150 313 l 1,44,-1
 149 121 l 1,45,-1
 119 58 l 1,46,-1
 119 58 l 1,36,-1
240 480 m 1,47,-1
 241 -32 l 1,48,-1
 451 -32 l 1,49,-1
 452 480 l 1,50,-1
 240 480 l 1,51,-1
 240 480 l 1,47,-1
422 -2 m 1,52,-1
 270 -2 l 1,53,-1
 271 28 l 1,54,-1
 330 28 l 1,55,-1
 331 58 l 1,56,-1
 270 58 l 1,57,-1
 271 88 l 1,58,-1
 300 88 l 1,59,-1
 301 119 l 1,60,-1
 270 119 l 1,61,-1
 271 149 l 1,62,-1
 330 149 l 1,63,-1
 331 179 l 1,64,-1
 270 179 l 1,65,-1
 271 208 l 1,66,-1
 300 208 l 1,67,-1
 301 239 l 1,68,-1
 270 239 l 1,69,-1
 271 269 l 1,70,-1
 330 269 l 1,71,-1
 331 299 l 1,72,-1
 270 299 l 1,73,-1
 271 329 l 1,74,-1
 300 329 l 1,75,-1
 301 360 l 1,76,-1
 270 360 l 1,77,-1
 271 390 l 1,78,-1
 330 390 l 1,79,-1
 331 420 l 1,80,-1
 270 420 l 1,81,-1
 271 450 l 1,82,-1
 421 450 l 1,83,-1
 422 -2 l 1,84,-1
 422 -2 l 1,52,-1
EndSplineSet
EndChar

StartChar: uniE616
Encoding: 58902 58902 26
Width: 512
GlyphClass: 1
Flags: W
LayerCount: 2
Fore
SplineSet
362 480 m 1,0,-1
 0 118 l 1,1,-1
 150 -32 l 1,2,-1
 512 330 l 1,3,-1
 362 480 l 1,4,-1
 362 480 l 1,0,-1
43 118 m 1,5,-1
 64 138 l 1,6,-1
 107 96 l 1,7,-1
 128 117 l 1,8,-1
 85 160 l 1,9,-1
 107 181 l 1,10,-1
 128 160 l 1,11,-1
 150 181 l 1,12,-1
 128 203 l 1,13,-1
 150 224 l 1,14,-1
 192 181 l 1,15,-1
 213 203 l 1,16,-1
 171 245 l 1,17,-1
 192 266 l 1,18,-1
 213 245 l 1,19,-1
 234 266 l 1,20,-1
 213 288 l 1,21,-1
 234 309 l 1,22,-1
 277 266 l 1,23,-1
 298 288 l 1,24,-1
 256 330 l 1,25,-1
 277 352 l 1,26,-1
 299 330 l 1,27,-1
 320 352 l 1,28,-1
 299 373 l 1,29,-1
 320 394 l 1,30,-1
 362 352 l 1,31,-1
 384 373 l 1,32,-1
 341 416 l 1,33,-1
 362 437 l 1,34,-1
 469 330 l 1,35,-1
 150 11 l 1,36,-1
 43 118 l 1,37,-1
 43 118 l 1,5,-1
EndSplineSet
EndChar

StartChar: uniE617
Encoding: 58903 58903 27
Width: 512
GlyphClass: 1
Flags: W
LayerCount: 2
Fore
SplineSet
107 450 m 1,0,-1
 107 -16 l 1,1,-1
 248 83 l 1,2,-1
 392 -15 l 1,3,-1
 392 450 l 1,4,-1
 107 450 l 1,5,-1
 107 450 l 1,0,-1
361 42 m 1,6,-1
 248 119 l 1,7,-1
 137 42 l 1,8,-1
 137 420 l 1,9,-1
 361 420 l 1,10,-1
 361 42 l 1,11,-1
 361 42 l 1,6,-1
EndSplineSet
EndChar

StartChar: uniE618
Encoding: 58904 58904 28
Width: 512
GlyphClass: 1
Flags: W
LayerCount: 2
Fore
SplineSet
302 177 m 1,0,-1
 302 480 l 1,1,-1
 120 480 l 1,2,-1
 120 177 l 1,3,-1
 211 238 l 1,4,-1
 302 177 l 1,5,-1
 302 177 l 1,0,-1
150 233 m 1,6,-1
 150 450 l 1,7,-1
 272 450 l 1,8,-1
 272 233 l 1,9,-1
 211 275 l 1,10,-1
 150 233 l 1,11,-1
 150 233 l 1,6,-1
482 450 m 1,12,-1
 482 -2 l 1,13,-1
 30 -2 l 1,14,-1
 30 450 l 1,15,-1
 90 450 l 1,16,-1
 90 420 l 1,17,-1
 60 420 l 1,18,-1
 60 28 l 1,19,-1
 452 28 l 1,20,-1
 452 420 l 1,21,-1
 331 420 l 1,22,-1
 331 450 l 1,23,-1
 482 450 l 1,24,-1
 482 450 l 1,12,-1
EndSplineSet
EndChar

StartChar: uniE619
Encoding: 58905 58905 29
Width: 512
GlyphClass: 1
Flags: W
LayerCount: 2
Fore
SplineSet
181 239 m 1,0,-1
 0 239 l 1,1,-1
 0 420 l 1,2,-1
 30 420 l 1,3,-1
 30 296 l 1,4,5
 42 332 42 332 64 362.5 c 128,-1,6
 86 393 86 393 115.5 415 c 128,-1,7
 145 437 145 437 181 449 c 128,-1,8
 217 461 217 461 256 461 c 0,9,10
 296 461 296 461 332.5 448.5 c 128,-1,11
 369 436 369 436 399 413 c 128,-1,12
 429 390 429 390 451 358 c 128,-1,13
 473 326 473 326 484 288 c 1,14,-1
 455 280 l 1,15,16
 446 313 446 313 426.5 341 c 128,-1,17
 407 369 407 369 380.5 389 c 128,-1,18
 354 409 354 409 322.5 420 c 128,-1,19
 291 431 291 431 256 431 c 0,20,21
 220 431 220 431 186.5 419 c 128,-1,22
 153 407 153 407 126.5 385.5 c 128,-1,23
 100 364 100 364 81 334 c 128,-1,24
 62 304 62 304 54 269 c 1,25,-1
 181 269 l 1,26,-1
 181 239 l 1,27,-1
 181 239 l 1,0,-1
331 209 m 1,28,-1
 331 179 l 1,29,-1
 458 179 l 1,30,31
 450 144 450 144 431 114 c 128,-1,32
 412 84 412 84 385.5 62.5 c 128,-1,33
 359 41 359 41 325.5 29 c 128,-1,34
 292 17 292 17 256 17 c 0,35,36
 221 17 221 17 189.5 28 c 128,-1,37
 158 39 158 39 131.5 59 c 128,-1,38
 105 79 105 79 85.5 107 c 128,-1,39
 66 135 66 135 57 168 c 1,40,-1
 28 160 l 1,41,42
 39 122 39 122 61 90 c 128,-1,43
 83 58 83 58 113 35 c 128,-1,44
 143 12 143 12 179.5 -0.5 c 128,-1,45
 216 -13 216 -13 256 -13 c 0,46,47
 295 -13 295 -13 331 -1 c 128,-1,48
 367 11 367 11 396.5 33 c 128,-1,49
 426 55 426 55 448 85.5 c 128,-1,50
 470 116 470 116 482 152 c 1,51,-1
 482 28 l 1,52,-1
 512 28 l 1,53,-1
 512 209 l 1,54,-1
 331 209 l 1,55,-1
 331 209 l 1,28,-1
EndSplineSet
EndChar

StartChar: uniE61A
Encoding: 58906 58906 30
Width: 512
GlyphClass: 1
Flags: W
LayerCount: 2
Fore
SplineSet
482 209 m 1,0,-1
 271 209 l 1,1,-1
 271 -2 l 1,2,-1
 241 -2 l 1,3,-1
 241 209 l 1,4,-1
 30 209 l 1,5,-1
 30 239 l 1,6,-1
 241 239 l 1,7,-1
 241 450 l 1,8,-1
 271 450 l 1,9,-1
 271 239 l 1,10,-1
 482 239 l 1,11,-1
 482 209 l 1,12,-1
 482 209 l 1,0,-1
EndSplineSet
EndChar

StartChar: uniE61B
Encoding: 58907 58907 31
Width: 512
GlyphClass: 1
Flags: W
LayerCount: 2
Fore
SplineSet
361 344 m 1,0,1
 361 366 361 366 353 385.5 c 128,-1,2
 345 405 345 405 330.5 419 c 128,-1,3
 316 433 316 433 297 441.5 c 128,-1,4
 278 450 278 450 256 450 c 256,5,6
 234 450 234 450 215 441.5 c 128,-1,7
 196 433 196 433 181.5 419 c 128,-1,8
 167 405 167 405 159 385.5 c 128,-1,9
 151 366 151 366 151 344 c 0,10,11
 151 325 151 325 157.5 307.5 c 128,-1,12
 164 290 164 290 176 276 c 128,-1,13
 188 262 188 262 204.5 253 c 128,-1,14
 221 244 221 244 240 241 c 1,15,-1
 240 -2 l 1,16,-1
 270 -2 l 1,17,-1
 270 240 l 1,18,19
 289 243 289 243 306 252 c 128,-1,20
 323 261 323 261 335 275 c 128,-1,21
 347 289 347 289 354 306.5 c 128,-1,22
 361 324 361 324 361 344 c 1,23,-1
 361 344 l 1,0,1
256 269 m 1,24,25
 240 269 240 269 226.5 275 c 128,-1,26
 213 281 213 281 203 291 c 128,-1,27
 193 301 193 301 187 315 c 128,-1,28
 181 329 181 329 181 344 c 0,29,30
 181 360 181 360 187 373.5 c 128,-1,31
 193 387 193 387 203 397.5 c 128,-1,32
 213 408 213 408 226.5 414 c 128,-1,33
 240 420 240 420 256 420 c 256,34,35
 272 420 272 420 285.5 414 c 128,-1,36
 299 408 299 408 309 397.5 c 128,-1,37
 319 387 319 387 325 373.5 c 128,-1,38
 331 360 331 360 331 344 c 0,39,40
 331 329 331 329 325 315 c 128,-1,41
 319 301 319 301 309 291 c 128,-1,42
 299 281 299 281 285.5 275 c 128,-1,43
 272 269 272 269 256 269 c 1,44,-1
 256 269 l 1,24,25
301 329 m 1,45,-1
 271 329 l 1,46,47
 271 336 271 336 268.5 341.5 c 128,-1,48
 266 347 266 347 262 351 c 128,-1,49
 258 355 258 355 252.5 357.5 c 128,-1,50
 247 360 247 360 241 360 c 1,51,-1
 241 390 l 1,52,53
 253 390 253 390 264 385 c 128,-1,54
 275 380 275 380 283.5 372 c 128,-1,55
 292 364 292 364 296.5 353 c 128,-1,56
 301 342 301 342 301 329 c 1,57,-1
 301 329 l 1,45,-1
EndSplineSet
EndChar

StartChar: uniE61C
Encoding: 58908 58908 32
Width: 512
GlyphClass: 1
Flags: W
LayerCount: 2
Fore
SplineSet
468 394 m 1,0,-1
 426 436 l 2,1,2
 419 443 419 443 411 446 c 128,-1,3
 403 449 403 449 394 449 c 128,-1,4
 385 449 385 449 377 446 c 128,-1,5
 369 443 369 443 362 436 c 2,6,-1
 90 163 l 1,7,-1
 37 4 l 1,8,-1
 196 57 l 1,9,-1
 468 330 l 2,10,11
 475 337 475 337 478 345 c 128,-1,12
 481 353 481 353 481.5 362 c 128,-1,13
 482 371 482 371 478 379 c 128,-1,14
 474 387 474 387 469 394 c 1,15,-1
 468 394 l 1,0,-1
93 80 m 1,16,-1
 114 139 l 1,17,-1
 171 81 l 1,18,-1
 113 61 l 1,19,-1
 93 80 l 1,20,-1
 93 80 l 1,16,-1
132 163 m 1,21,-1
 297 329 l 1,22,-1
 361 265 l 1,23,-1
 195 100 l 1,24,-1
 132 163 l 1,25,-1
 132 163 l 1,21,-1
318 350 m 1,26,-1
 341 372 l 1,27,-1
 403 308 l 1,28,-1
 382 286 l 1,29,-1
 318 350 l 1,30,-1
 318 350 l 1,26,-1
447 351 m 1,31,-1
 425 330 l 1,32,-1
 362 393 l 1,33,-1
 383 415 l 2,34,35
 386 417 386 417 388.5 418 c 128,-1,36
 391 419 391 419 394 419 c 128,-1,37
 397 419 397 419 399.5 418 c 128,-1,38
 402 417 402 417 405 415 c 2,39,-1
 446 373 l 2,40,41
 450 370 450 370 450.5 367.5 c 128,-1,42
 451 365 451 365 451.5 362 c 128,-1,43
 452 359 452 359 450.5 356.5 c 128,-1,44
 449 354 449 354 447 351 c 1,45,-1
 447 351 l 1,31,-1
EndSplineSet
EndChar

StartChar: uniE61D
Encoding: 58909 58909 33
Width: 512
GlyphClass: 1
Flags: W
LayerCount: 2
Fore
SplineSet
497 424 m 1,0,-1
 455 466 l 2,1,2
 448 473 448 473 439.5 476 c 128,-1,3
 431 479 431 479 422.5 479.5 c 128,-1,4
 414 480 414 480 405.5 476 c 128,-1,5
 397 472 397 472 391 467 c 2,6,-1
 164 239 l 1,7,-1
 112 81 l 1,8,-1
 270 133 l 1,9,-1
 497 361 l 2,10,11
 500 363 500 363 502.5 367 c 128,-1,12
 505 371 505 371 506.5 374.5 c 128,-1,13
 508 378 508 378 509 383 c 128,-1,14
 510 388 510 388 510 392 c 0,15,16
 510 397 510 397 509 401 c 128,-1,17
 508 405 508 405 506.5 409.5 c 128,-1,18
 505 414 505 414 502.5 417 c 128,-1,19
 500 420 500 420 497 424 c 1,20,-1
 497 424 l 1,0,-1
168 155 m 1,21,-1
 187 215 l 1,22,-1
 245 156 l 1,23,-1
 187 137 l 1,24,-1
 168 155 l 1,25,-1
 168 155 l 1,21,-1
206 239 m 1,26,-1
 326 358 l 1,27,-1
 389 296 l 1,28,-1
 269 175 l 1,29,-1
 206 239 l 1,30,-1
 206 239 l 1,26,-1
347 380 m 1,31,-1
 369 402 l 1,32,-1
 433 338 l 1,33,-1
 411 317 l 1,34,-1
 347 380 l 1,35,-1
 347 380 l 1,31,-1
476 382 m 1,36,-1
 454 359 l 1,37,-1
 390 424 l 1,38,-1
 412 444 l 2,39,40
 414 448 414 448 417 448.5 c 128,-1,41
 420 449 420 449 423 449.5 c 128,-1,42
 426 450 426 450 428.5 448.5 c 128,-1,43
 431 447 431 447 433 445 c 2,44,-1
 476 402 l 2,45,46
 477 402 477 402 477.5 400.5 c 128,-1,47
 478 399 478 399 478.5 398 c 128,-1,48
 479 397 479 397 479.5 395 c 128,-1,49
 480 393 480 393 480 393 c 2,50,51
 480 390 480 390 479.5 389 c 128,-1,52
 479 388 479 388 478.5 386 c 128,-1,53
 478 384 478 384 477.5 383.5 c 128,-1,54
 477 383 477 383 476 381 c 1,55,-1
 476 382 l 1,36,-1
452 254 m 1,56,-1
 482 253 l 1,57,-1
 482 -32 l 1,58,-1
 0 -33 l 1,59,-1
 0 420 l 1,60,-1
 226 419 l 1,61,-1
 226 390 l 1,62,-1
 30 389 l 1,63,-1
 30 -2 l 1,64,-1
 452 -3 l 1,65,-1
 452 254 l 1,66,-1
 452 254 l 1,56,-1
EndSplineSet
EndChar

StartChar: uniE61E
Encoding: 58910 58910 34
Width: 512
GlyphClass: 1
Flags: W
LayerCount: 2
Fore
SplineSet
452 420 m 1,0,-1
 452 480 l 1,1,-1
 60 480 l 1,2,-1
 60 420 l 1,3,-1
 45 420 l 2,4,5
 35 420 35 420 27 416.5 c 128,-1,6
 19 413 19 413 13 406.5 c 128,-1,7
 7 400 7 400 3.5 392 c 128,-1,8
 0 384 0 384 0 374 c 2,9,-1
 0 284 l 2,10,11
 0 275 0 275 3.5 267 c 128,-1,12
 7 259 7 259 13 252.5 c 128,-1,13
 19 246 19 246 27 242.5 c 128,-1,14
 35 239 35 239 45 239 c 2,15,-1
 226 239 l 2,16,17
 229 239 229 239 232 238 c 128,-1,18
 235 237 235 237 237 235 c 128,-1,19
 239 233 239 233 240 230 c 128,-1,20
 241 227 241 227 241 224 c 2,21,-1
 241 179 l 1,22,-1
 211 179 l 1,23,-1
 211 -32 l 1,24,-1
 301 -32 l 1,25,-1
 301 179 l 1,26,-1
 271 179 l 1,27,-1
 271 224 l 2,28,29
 271 233 271 233 267.5 241.5 c 128,-1,30
 264 250 264 250 258 256 c 128,-1,31
 252 262 252 262 243.5 265.5 c 128,-1,32
 235 269 235 269 226 269 c 2,33,-1
 45 269 l 2,34,35
 42 269 42 269 39 270.5 c 128,-1,36
 36 272 36 272 34 274 c 128,-1,37
 32 276 32 276 31 278.5 c 128,-1,38
 30 281 30 281 30 284 c 2,39,-1
 30 374 l 2,40,41
 30 378 30 378 31 380.5 c 128,-1,42
 32 383 32 383 34 385 c 128,-1,43
 36 387 36 387 39 388.5 c 128,-1,44
 42 390 42 390 45 390 c 2,45,-1
 60 390 l 1,46,-1
 60 299 l 1,47,-1
 452 299 l 1,48,-1
 452 390 l 1,49,-1
 482 390 l 1,50,-1
 482 420 l 1,51,-1
 452 420 l 1,52,-1
 452 420 l 1,0,-1
271 -2 m 1,53,-1
 241 -2 l 1,54,-1
 241 149 l 1,55,-1
 271 149 l 1,56,-1
 271 -2 l 1,57,-1
 271 -2 l 1,53,-1
422 329 m 1,58,-1
 90 329 l 1,59,-1
 90 450 l 1,60,-1
 422 450 l 1,61,-1
 422 329 l 1,62,-1
 422 329 l 1,58,-1
EndSplineSet
EndChar

StartChar: uniE61F
Encoding: 58911 58911 35
Width: 512
GlyphClass: 1
Flags: W
LayerCount: 2
Fore
SplineSet
503 184 m 1,0,-1
 236 453 l 1,1,-1
 232 449 l 1,2,3
 224 457 224 457 215.5 462.5 c 128,-1,4
 207 468 207 468 197.5 472 c 128,-1,5
 188 476 188 476 177.5 478 c 128,-1,6
 167 480 167 480 157 480 c 1,7,8
 157 480 157 480 157 480 c 129,-1,9
 157 480 157 480 157 480 c 129,-1,10
 157 480 157 480 157 480 c 129,-1,11
 157 480 157 480 157 480 c 1,12,13
 146 480 146 480 135.5 478 c 128,-1,14
 125 476 125 476 115.5 472 c 128,-1,15
 106 468 106 468 97.5 462 c 128,-1,16
 89 456 89 456 81 449 c 0,17,18
 74 441 74 441 68 432.5 c 128,-1,19
 62 424 62 424 58 414 c 128,-1,20
 54 404 54 404 52 394 c 128,-1,21
 50 384 50 384 50 373 c 256,22,23
 50 362 50 362 52 352 c 128,-1,24
 54 342 54 342 58 332.5 c 128,-1,25
 62 323 62 323 67.5 314 c 128,-1,26
 73 305 73 305 81 298 c 1,27,-1
 14 231 l 2,28,29
 11 228 11 228 8 224 c 128,-1,30
 5 220 5 220 3.5 215.5 c 128,-1,31
 2 211 2 211 1 206.5 c 128,-1,32
 0 202 0 202 0 197 c 256,33,34
 0 192 0 192 1 187.5 c 128,-1,35
 2 183 2 183 3.5 178.5 c 128,-1,36
 5 174 5 174 8 170.5 c 128,-1,37
 11 167 11 167 14 163 c 2,38,-1
 159 17 l 2,39,40
 162 13 162 13 166 10.5 c 128,-1,41
 170 8 170 8 174.5 6.5 c 128,-1,42
 179 5 179 5 183.5 4 c 128,-1,43
 188 3 188 3 193 3 c 256,44,45
 198 3 198 3 202.5 4 c 128,-1,46
 207 5 207 5 211.5 6.5 c 128,-1,47
 216 8 216 8 220 10.5 c 128,-1,48
 224 13 224 13 227 17 c 2,49,-1
 395 184 l 1,50,-1
 503 184 l 1,51,-1
 503 184 l 1,0,-1
80 373 m 1,52,53
 80 381 80 381 81.5 388 c 128,-1,54
 83 395 83 395 86 402 c 128,-1,55
 89 409 89 409 93 415.5 c 128,-1,56
 97 422 97 422 102 427 c 0,57,58
 108 433 108 433 114 437 c 128,-1,59
 120 441 120 441 127 444 c 128,-1,60
 134 447 134 447 141.5 448.5 c 128,-1,61
 149 450 149 450 157 450 c 1,62,63
 157 450 157 450 157 450 c 129,-1,64
 157 450 157 450 157 450 c 129,-1,65
 157 450 157 450 157 450 c 129,-1,66
 157 450 157 450 157 450 c 1,67,68
 164 450 164 450 171.5 448.5 c 128,-1,69
 179 447 179 447 186 444 c 128,-1,70
 193 441 193 441 199 437 c 128,-1,71
 205 433 205 433 211 428 c 1,72,-1
 102 319 l 1,73,74
 97 325 97 325 92.5 331 c 128,-1,75
 88 337 88 337 85.5 344 c 128,-1,76
 83 351 83 351 81.5 358 c 128,-1,77
 80 365 80 365 80 373 c 1,78,-1
 80 373 l 1,52,53
206 38 m 1,79,80
 205 37 205 37 203.5 36 c 128,-1,81
 202 35 202 35 200 34.5 c 128,-1,82
 198 34 198 34 196.5 33.5 c 128,-1,83
 195 33 195 33 193 33 c 256,84,85
 191 33 191 33 189.5 33.5 c 128,-1,86
 188 34 188 34 186 34.5 c 128,-1,87
 184 35 184 35 183 36 c 128,-1,88
 182 37 182 37 180 38 c 2,89,-1
 71 149 l 1,90,-1
 316 149 l 1,91,-1
 206 38 l 1,92,-1
 206 38 l 1,79,80
346 179 m 1,93,-1
 41 179 l 1,94,-1
 35 184 l 2,95,96
 34 186 34 186 33 187.5 c 128,-1,97
 32 189 32 189 31.5 190.5 c 128,-1,98
 31 192 31 192 30.5 193.5 c 128,-1,99
 30 195 30 195 30 197 c 256,100,101
 30 199 30 199 30.5 200.5 c 128,-1,102
 31 202 31 202 31.5 204 c 128,-1,103
 32 206 32 206 33 207.5 c 128,-1,104
 34 209 34 209 35 210 c 2,105,-1
 236 410 l 1,106,-1
 431 214 l 1,107,-1
 382 214 l 1,108,-1
 346 179 l 1,109,-1
 346 179 l 1,93,-1
472 120 m 1,110,-1
 460 138 l 1,111,-1
 448 120 l 2,112,113
 444 115 444 115 437 104.5 c 128,-1,114
 430 94 430 94 423.5 81.5 c 128,-1,115
 417 69 417 69 412 57 c 128,-1,116
 407 45 407 45 407 36 c 0,117,118
 407 25 407 25 411 15.5 c 128,-1,119
 415 6 415 6 422 -1.5 c 128,-1,120
 429 -9 429 -9 438.5 -13 c 128,-1,121
 448 -17 448 -17 459 -17 c 256,122,123
 470 -17 470 -17 479.5 -13 c 128,-1,124
 489 -9 489 -9 496.5 -1.5 c 128,-1,125
 504 6 504 6 508 15.5 c 128,-1,126
 512 25 512 25 512 36 c 0,127,128
 512 45 512 45 507 57 c 128,-1,129
 502 69 502 69 495.5 81.5 c 128,-1,130
 489 94 489 94 482.5 104.5 c 128,-1,131
 476 115 476 115 472 120 c 1,132,-1
 472 120 l 1,110,-1
459 13 m 1,133,134
 455 13 455 13 450.5 15 c 128,-1,135
 446 17 446 17 443 20 c 128,-1,136
 440 23 440 23 438.5 27 c 128,-1,137
 437 31 437 31 437 36 c 0,138,139
 437 38 437 38 438.5 43 c 128,-1,140
 440 48 440 48 443.5 54.5 c 128,-1,141
 447 61 447 61 451 68.5 c 128,-1,142
 455 76 455 76 460 84 c 1,143,144
 464 76 464 76 468 68.5 c 128,-1,145
 472 61 472 61 475 54.5 c 128,-1,146
 478 48 478 48 480 43 c 128,-1,147
 482 38 482 38 482 36 c 0,148,149
 482 31 482 31 480 27 c 128,-1,150
 478 23 478 23 475 20 c 128,-1,151
 472 17 472 17 468 15 c 128,-1,152
 464 13 464 13 459 13 c 1,153,-1
 459 13 l 1,133,134
EndSplineSet
EndChar

StartChar: uniE620
Encoding: 58912 58912 36
Width: 512
GlyphClass: 1
Flags: W
LayerCount: 2
Fore
SplineSet
256 465 m 1,0,1
 206 465 206 465 162 446 c 128,-1,2
 118 427 118 427 85.5 394.5 c 128,-1,3
 53 362 53 362 34 318 c 128,-1,4
 15 274 15 274 15 224 c 256,5,6
 15 174 15 174 34 130 c 128,-1,7
 53 86 53 86 85.5 53.5 c 128,-1,8
 118 21 118 21 162 2 c 128,-1,9
 206 -17 206 -17 256 -17 c 256,10,11
 306 -17 306 -17 350 2 c 128,-1,12
 394 21 394 21 426.5 53.5 c 128,-1,13
 459 86 459 86 478 130 c 128,-1,14
 497 174 497 174 497 224 c 256,15,16
 497 274 497 274 478 318 c 128,-1,17
 459 362 459 362 426.5 394.5 c 128,-1,18
 394 427 394 427 350 446 c 128,-1,19
 306 465 306 465 256 465 c 1,20,-1
 256 465 l 1,0,1
256 435 m 1,21,22
 276 435 276 435 294.5 431.5 c 128,-1,23
 313 428 313 428 330.5 421 c 128,-1,24
 348 414 348 414 364 404.5 c 128,-1,25
 380 395 380 395 394 383 c 1,26,-1
 97 86 l 1,27,28
 85 100 85 100 75.5 116 c 128,-1,29
 66 132 66 132 59 149.5 c 128,-1,30
 52 167 52 167 48.5 185.5 c 128,-1,31
 45 204 45 204 45 224 c 0,32,33
 45 268 45 268 61.5 306 c 128,-1,34
 78 344 78 344 107 373 c 128,-1,35
 136 402 136 402 174 418.5 c 128,-1,36
 212 435 212 435 256 435 c 1,37,-1
 256 435 l 1,21,22
256 13 m 1,38,39
 236 13 236 13 217.5 16.5 c 128,-1,40
 199 20 199 20 181.5 27 c 128,-1,41
 164 34 164 34 148 43.5 c 128,-1,42
 132 53 132 53 118 65 c 1,43,-1
 415 362 l 1,44,45
 427 348 427 348 436.5 332 c 128,-1,46
 446 316 446 316 453 298.5 c 128,-1,47
 460 281 460 281 463.5 262.5 c 128,-1,48
 467 244 467 244 467 224 c 0,49,50
 467 180 467 180 450.5 142 c 128,-1,51
 434 104 434 104 405 75 c 128,-1,52
 376 46 376 46 338 29.5 c 128,-1,53
 300 13 300 13 256 13 c 1,54,-1
 256 13 l 1,38,39
EndSplineSet
EndChar

StartChar: uniE621
Encoding: 58913 58913 37
Width: 512
GlyphClass: 1
Flags: W
LayerCount: 2
Fore
SplineSet
376 480 m 1,0,-1
 135 480 l 2,1,2
 126 480 126 480 117.5 476.5 c 128,-1,3
 109 473 109 473 103 467 c 128,-1,4
 97 461 97 461 93 452.5 c 128,-1,5
 89 444 89 444 90 435 c 2,6,-1
 89 13 l 2,7,8
 90 4 90 4 93 -4.5 c 128,-1,9
 96 -13 96 -13 103 -19 c 128,-1,10
 110 -25 110 -25 117.5 -28.5 c 128,-1,11
 125 -32 125 -32 136 -32 c 2,12,-1
 375 -32 l 2,13,14
 386 -32 386 -32 393.5 -28.5 c 128,-1,15
 401 -25 401 -25 408 -19 c 128,-1,16
 415 -13 415 -13 418 -4.5 c 128,-1,17
 421 4 421 4 422 13 c 2,18,-1
 421 435 l 2,19,20
 422 444 422 444 418 452.5 c 128,-1,21
 414 461 414 461 408 467 c 128,-1,22
 402 473 402 473 393.5 476.5 c 128,-1,23
 385 480 385 480 376 480 c 1,24,-1
 376 480 l 1,0,-1
135 450 m 1,25,-1
 376 450 l 2,26,27
 379 450 379 450 382 449 c 128,-1,28
 385 448 385 448 386.5 445.5 c 128,-1,29
 388 443 388 443 390 440.5 c 128,-1,30
 392 438 392 438 391 435 c 2,31,-1
 392 390 l 1,32,-1
 119 390 l 1,33,-1
 120 435 l 2,34,35
 119 438 119 438 121 440.5 c 128,-1,36
 123 443 123 443 124.5 445.5 c 128,-1,37
 126 448 126 448 129 449 c 128,-1,38
 132 450 132 450 135 450 c 1,39,-1
 135 450 l 1,25,-1
392 360 m 1,40,-1
 391 119 l 1,41,-1
 120 119 l 1,42,-1
 119 360 l 1,43,-1
 392 360 l 1,44,-1
 392 360 l 1,40,-1
375 -2 m 1,45,-1
 136 -2 l 2,46,47
 131 -2 131 -2 129 -1 c 128,-1,48
 127 0 127 0 124.5 2.5 c 128,-1,49
 122 5 122 5 121 7.5 c 128,-1,50
 120 10 120 10 119 13 c 2,51,-1
 120 88 l 1,52,-1
 391 88 l 1,53,-1
 392 13 l 2,54,55
 391 10 391 10 390 7.5 c 128,-1,56
 389 5 389 5 386.5 2.5 c 128,-1,57
 384 0 384 0 382 -1 c 128,-1,58
 380 -2 380 -2 375 -2 c 1,59,-1
 375 -2 l 1,45,-1
271 43 m 1,60,61
 270 40 270 40 269.5 37.5 c 128,-1,62
 269 35 269 35 266.5 33 c 128,-1,63
 264 31 264 31 261.5 29.5 c 128,-1,64
 259 28 259 28 255 28 c 0,65,66
 253 28 253 28 249.5 29.5 c 128,-1,67
 246 31 246 31 244.5 33 c 128,-1,68
 243 35 243 35 241.5 37.5 c 128,-1,69
 240 40 240 40 241 43 c 0,70,71
 240 46 240 46 241.5 49 c 128,-1,72
 243 52 243 52 244.5 54 c 128,-1,73
 246 56 246 56 249.5 57 c 128,-1,74
 253 58 253 58 255 58 c 0,75,76
 259 58 259 58 261.5 57 c 128,-1,77
 264 56 264 56 266.5 54 c 128,-1,78
 269 52 269 52 269.5 49 c 128,-1,79
 270 46 270 46 271 43 c 1,80,-1
 271 43 l 1,60,61
EndSplineSet
EndChar

StartChar: uniE622
Encoding: 58914 58914 38
Width: 512
GlyphClass: 1
Flags: W
LayerCount: 2
Fore
SplineSet
452 239 m 1,0,-1
 452 209 l 1,1,-1
 60 209 l 1,2,-1
 60 239 l 1,3,-1
 452 239 l 1,4,-1
 452 239 l 1,0,-1
EndSplineSet
EndChar

StartChar: uniE623
Encoding: 58915 58915 39
Width: 512
GlyphClass: 1
Flags: W
LayerCount: 2
Fore
SplineSet
256 480 m 1,0,1
 225 480 225 480 197.5 468 c 128,-1,2
 170 456 170 456 149.5 435.5 c 128,-1,3
 129 415 129 415 117 388 c 128,-1,4
 105 361 105 361 105 329 c 0,5,6
 105 314 105 314 108.5 299 c 128,-1,7
 112 284 112 284 118 270 c 128,-1,8
 124 256 124 256 132.5 243.5 c 128,-1,9
 141 231 141 231 152 221 c 0,10,11
 153 220 153 220 154 219 c 128,-1,12
 155 218 155 218 156.5 217 c 128,-1,13
 158 216 158 216 159 215.5 c 128,-1,14
 160 215 160 215 161 214 c 2,15,-1
 164 211 l 2,16,17
 166 210 166 210 168 208.5 c 128,-1,18
 170 207 170 207 172 205.5 c 128,-1,19
 174 204 174 204 176.5 202.5 c 128,-1,20
 179 201 179 201 181 200 c 2,21,-1
 181 -17 l 1,22,-1
 255 40 l 1,23,-1
 331 -17 l 1,24,-1
 331 200 l 2,25,26
 333 201 333 201 335.5 202.5 c 128,-1,27
 338 204 338 204 340 205.5 c 128,-1,28
 342 207 342 207 344 208.5 c 128,-1,29
 346 210 346 210 348 211 c 2,30,-1
 351 214 l 2,31,32
 352 215 352 215 353 215.5 c 128,-1,33
 354 216 354 216 355.5 217 c 128,-1,34
 357 218 357 218 358 219 c 128,-1,35
 359 220 359 220 360 221 c 0,36,37
 371 231 371 231 379.5 243.5 c 128,-1,38
 388 256 388 256 394 270 c 128,-1,39
 400 284 400 284 403.5 299 c 128,-1,40
 407 314 407 314 407 329 c 0,41,42
 407 361 407 361 395 388 c 128,-1,43
 383 415 383 415 362.5 435.5 c 128,-1,44
 342 456 342 456 314.5 468 c 128,-1,45
 287 480 287 480 256 480 c 1,46,-1
 256 480 l 1,0,1
301 44 m 1,47,-1
 255 78 l 1,48,-1
 211 44 l 1,49,-1
 211 171 l 1,50,51
 216 169 216 169 221.5 168 c 128,-1,52
 227 167 227 167 233 166 c 128,-1,53
 239 165 239 165 244.5 164.5 c 128,-1,54
 250 164 250 164 256 164 c 256,55,56
 262 164 262 164 267.5 164.5 c 128,-1,57
 273 165 273 165 279 166 c 128,-1,58
 285 167 285 167 290.5 168 c 128,-1,59
 296 169 296 169 301 171 c 1,60,-1
 301 44 l 1,61,-1
 301 44 l 1,47,-1
339 242 m 1,62,63
 338 242 338 242 337.5 241.5 c 128,-1,64
 337 241 337 241 336 240 c 128,-1,65
 335 239 335 239 334.5 238.5 c 128,-1,66
 334 238 334 238 333 238 c 2,67,-1
 330 235 l 2,68,69
 313 222 313 222 294 215.5 c 128,-1,70
 275 209 275 209 256 209 c 128,-1,71
 237 209 237 209 218 215.5 c 128,-1,72
 199 222 199 222 183 235 c 2,73,-1
 179 238 l 2,74,75
 178 238 178 238 177.5 238.5 c 128,-1,76
 177 239 177 239 176 240 c 128,-1,77
 175 241 175 241 174.5 241.5 c 128,-1,78
 174 242 174 242 173 242 c 0,79,80
 164 251 164 251 157 261 c 128,-1,81
 150 271 150 271 145 282 c 128,-1,82
 140 293 140 293 138 305 c 128,-1,83
 136 317 136 317 136 329 c 0,84,85
 136 354 136 354 145 376 c 128,-1,86
 154 398 154 398 170.5 414.5 c 128,-1,87
 187 431 187 431 209 440.5 c 128,-1,88
 231 450 231 450 256 450 c 256,89,90
 281 450 281 450 303 440.5 c 128,-1,91
 325 431 325 431 341.5 414.5 c 128,-1,92
 358 398 358 398 367 376 c 128,-1,93
 376 354 376 354 376 329 c 0,94,95
 376 317 376 317 374 305 c 128,-1,96
 372 293 372 293 367 282 c 128,-1,97
 362 271 362 271 355 261 c 128,-1,98
 348 251 348 251 339 242 c 1,99,-1
 339 242 l 1,62,63
330 374 m 1,100,-1
 335 345 l 1,101,-1
 280 334 l 1,102,-1
 315 276 l 1,103,-1
 289 261 l 1,104,-1
 256 316 l 1,105,-1
 223 261 l 1,106,-1
 198 276 l 1,107,-1
 232 334 l 1,108,-1
 179 345 l 1,109,-1
 184 374 l 1,110,-1
 241 363 l 1,111,-1
 241 420 l 1,112,-1
 271 420 l 1,113,-1
 271 363 l 1,114,-1
 330 374 l 1,115,-1
 330 374 l 1,100,-1
EndSplineSet
EndChar

StartChar: uniE624
Encoding: 58916 58916 40
Width: 512
GlyphClass: 1
Flags: W
LayerCount: 2
Fore
SplineSet
256 480 m 1,0,1
 225 480 225 480 197.5 468 c 128,-1,2
 170 456 170 456 149.5 435.5 c 128,-1,3
 129 415 129 415 117 388 c 128,-1,4
 105 361 105 361 105 329 c 0,5,6
 105 314 105 314 108.5 299 c 128,-1,7
 112 284 112 284 118 270 c 128,-1,8
 124 256 124 256 132.5 243.5 c 128,-1,9
 141 231 141 231 152 221 c 0,10,11
 153 220 153 220 154 219 c 128,-1,12
 155 218 155 218 156.5 217 c 128,-1,13
 158 216 158 216 159 215.5 c 128,-1,14
 160 215 160 215 161 214 c 2,15,-1
 164 211 l 2,16,17
 166 210 166 210 168 208.5 c 128,-1,18
 170 207 170 207 172 205.5 c 128,-1,19
 174 204 174 204 176.5 202.5 c 128,-1,20
 179 201 179 201 181 200 c 2,21,-1
 181 -17 l 1,22,-1
 255 40 l 1,23,-1
 331 -17 l 1,24,-1
 331 200 l 2,25,26
 333 201 333 201 335.5 202.5 c 128,-1,27
 338 204 338 204 340 205.5 c 128,-1,28
 342 207 342 207 344 208.5 c 128,-1,29
 346 210 346 210 348 211 c 2,30,-1
 351 214 l 2,31,32
 352 215 352 215 353 215.5 c 128,-1,33
 354 216 354 216 355.5 217 c 128,-1,34
 357 218 357 218 358 219 c 128,-1,35
 359 220 359 220 360 221 c 0,36,37
 371 231 371 231 379.5 243.5 c 128,-1,38
 388 256 388 256 394 270 c 128,-1,39
 400 284 400 284 403.5 299 c 128,-1,40
 407 314 407 314 407 329 c 0,41,42
 407 361 407 361 395 388 c 128,-1,43
 383 415 383 415 362.5 435.5 c 128,-1,44
 342 456 342 456 314.5 468 c 128,-1,45
 287 480 287 480 256 480 c 1,46,-1
 256 480 l 1,0,1
301 44 m 1,47,-1
 255 78 l 1,48,-1
 211 44 l 1,49,-1
 211 171 l 1,50,51
 216 169 216 169 221.5 168 c 128,-1,52
 227 167 227 167 233 166 c 128,-1,53
 239 165 239 165 244.5 164.5 c 128,-1,54
 250 164 250 164 256 164 c 256,55,56
 262 164 262 164 267.5 164.5 c 128,-1,57
 273 165 273 165 279 166 c 128,-1,58
 285 167 285 167 290.5 168 c 128,-1,59
 296 169 296 169 301 171 c 1,60,-1
 301 44 l 1,61,-1
 301 44 l 1,47,-1
339 242 m 1,62,63
 338 242 338 242 337.5 241.5 c 128,-1,64
 337 241 337 241 336 240 c 128,-1,65
 335 239 335 239 334.5 238.5 c 128,-1,66
 334 238 334 238 333 238 c 2,67,-1
 330 235 l 2,68,69
 313 222 313 222 294 215.5 c 128,-1,70
 275 209 275 209 256 209 c 128,-1,71
 237 209 237 209 218 215.5 c 128,-1,72
 199 222 199 222 183 235 c 2,73,-1
 179 238 l 2,74,75
 178 238 178 238 177.5 238.5 c 128,-1,76
 177 239 177 239 176 240 c 128,-1,77
 175 241 175 241 174.5 241.5 c 128,-1,78
 174 242 174 242 173 242 c 0,79,80
 164 251 164 251 157 261 c 128,-1,81
 150 271 150 271 145 282 c 128,-1,82
 140 293 140 293 138 305 c 128,-1,83
 136 317 136 317 136 329 c 0,84,85
 136 354 136 354 145 376 c 128,-1,86
 154 398 154 398 170.5 414.5 c 128,-1,87
 187 431 187 431 209 440.5 c 128,-1,88
 231 450 231 450 256 450 c 256,89,90
 281 450 281 450 303 440.5 c 128,-1,91
 325 431 325 431 341.5 414.5 c 128,-1,92
 358 398 358 398 367 376 c 128,-1,93
 376 354 376 354 376 329 c 0,94,95
 376 317 376 317 374 305 c 128,-1,96
 372 293 372 293 367 282 c 128,-1,97
 362 271 362 271 355 261 c 128,-1,98
 348 251 348 251 339 242 c 1,99,-1
 339 242 l 1,62,63
309 329 m 1,100,101
 309 319 309 319 304.5 309 c 128,-1,102
 300 299 300 299 293 292 c 128,-1,103
 286 285 286 285 276.5 281 c 128,-1,104
 267 277 267 277 256 277 c 256,105,106
 245 277 245 277 235.5 281 c 128,-1,107
 226 285 226 285 219 292 c 128,-1,108
 212 299 212 299 207.5 309 c 128,-1,109
 203 319 203 319 203 329 c 0,110,111
 203 340 203 340 207.5 350 c 128,-1,112
 212 360 212 360 219 367 c 128,-1,113
 226 374 226 374 235.5 378 c 128,-1,114
 245 382 245 382 256 382 c 256,115,116
 267 382 267 382 276.5 378 c 128,-1,117
 286 374 286 374 293 367 c 128,-1,118
 300 360 300 360 304.5 350 c 128,-1,119
 309 340 309 340 309 329 c 1,120,-1
 309 329 l 1,100,101
EndSplineSet
EndChar

StartChar: uniE625
Encoding: 58917 58917 41
Width: 512
GlyphClass: 1
Flags: W
LayerCount: 2
Fore
SplineSet
321 450 m 1,0,-1
 298 450 l 1,1,2
 295 457 295 457 290.5 462.5 c 128,-1,3
 286 468 286 468 281 472 c 128,-1,4
 276 476 276 476 269.5 478 c 128,-1,5
 263 480 263 480 256 480 c 2,6,-1
 181 480 l 2,7,8
 178 480 178 480 175 479.5 c 128,-1,9
 172 479 172 479 169.5 478 c 128,-1,10
 167 477 167 477 164.5 475.5 c 128,-1,11
 162 474 162 474 160 472 c 0,12,13
 156 468 156 468 154.5 464 c 128,-1,14
 153 460 153 460 152 455 c 128,-1,15
 151 450 151 450 151 445 c 128,-1,16
 151 440 151 440 151 434 c 2,17,-1
 151 79 l 1,18,-1
 206 9 l 1,19,-1
 211 9 l 1,20,-1
 211 -32 l 1,21,-1
 241 -11 l 1,22,-1
 241 9 l 1,23,-1
 245 9 l 1,24,-1
 301 79 l 1,25,-1
 301 420 l 1,26,-1
 321 420 l 2,27,28
 324 420 324 420 326.5 417.5 c 128,-1,29
 329 415 329 415 330 411.5 c 128,-1,30
 331 408 331 408 331 404.5 c 128,-1,31
 331 401 331 401 331 400 c 2,32,-1
 331 272 l 1,33,-1
 361 272 l 1,34,-1
 361 400 l 2,35,36
 361 411 361 411 358 420 c 128,-1,37
 355 429 355 429 350 436 c 128,-1,38
 345 443 345 443 337.5 446.5 c 128,-1,39
 330 450 330 450 321 450 c 1,40,-1
 321 450 l 1,0,-1
181 450 m 1,41,-1
 256 450 l 2,42,43
 259 450 259 450 261.5 448.5 c 128,-1,44
 264 447 264 447 266.5 444.5 c 128,-1,45
 269 442 269 442 270 438 c 128,-1,46
 271 434 271 434 271 430 c 2,47,-1
 271 329 l 1,48,-1
 181 329 l 1,49,-1
 181 434 l 2,50,51
 181 437 181 437 181 439.5 c 128,-1,52
 181 442 181 442 181 444 c 128,-1,53
 181 446 181 446 181 448 c 128,-1,54
 181 450 181 450 181 450 c 1,55,-1
 181 450 l 1,41,-1
231 40 m 1,56,-1
 221 40 l 1,57,-1
 181 90 l 1,58,-1
 181 299 l 1,59,-1
 271 299 l 1,60,-1
 271 90 l 1,61,-1
 231 40 l 1,62,-1
 231 40 l 1,56,-1
EndSplineSet
EndChar

StartChar: uniE626
Encoding: 58918 58918 42
Width: 512
GlyphClass: 1
Flags: W
LayerCount: 2
Fore
SplineSet
472 309 m 1,0,-1
 456 325 l 2,1,2
 456 327 456 327 457.5 329 c 128,-1,3
 459 331 459 331 459 333.5 c 128,-1,4
 459 336 459 336 459.5 338 c 128,-1,5
 460 340 460 340 460 342 c 0,6,7
 461 347 461 347 460 351.5 c 128,-1,8
 459 356 459 356 457.5 360.5 c 128,-1,9
 456 365 456 365 453 369 c 128,-1,10
 450 373 450 373 448 376 c 2,11,-1
 394 429 l 2,12,13
 393 431 393 431 390 433 c 128,-1,14
 387 435 387 435 385 436 c 128,-1,15
 383 437 383 437 380 437.5 c 128,-1,16
 377 438 377 438 375 438 c 0,17,18
 369 438 369 438 365 436.5 c 128,-1,19
 361 435 361 435 356.5 432 c 128,-1,20
 352 429 352 429 348.5 425.5 c 128,-1,21
 345 422 345 422 340 418 c 2,22,-1
 69 146 l 1,23,-1
 58 57 l 1,24,-1
 62 54 l 1,25,-1
 32 24 l 1,26,-1
 69 18 l 1,27,-1
 83 32 l 1,28,-1
 87 29 l 1,29,-1
 175 39 l 1,30,-1
 438 301 l 1,31,-1
 450 288 l 2,32,33
 452 287 452 287 452 286 c 128,-1,34
 452 285 452 285 453 284 c 128,-1,35
 454 283 454 283 453.5 282 c 128,-1,36
 453 281 453 281 454 280 c 1,37,38
 452 279 452 279 452 277 c 128,-1,39
 452 275 452 275 450.5 273.5 c 128,-1,40
 449 272 449 272 448 270 c 128,-1,41
 447 268 447 268 444 266 c 2,42,-1
 354 175 l 1,43,-1
 375 154 l 1,44,-1
 466 245 l 2,45,46
 469 248 469 248 472.5 252 c 128,-1,47
 476 256 476 256 477.5 259.5 c 128,-1,48
 479 263 479 263 481 267 c 128,-1,49
 483 271 483 271 482 275 c 0,50,51
 484 280 484 280 483.5 284.5 c 128,-1,52
 483 289 483 289 482 293 c 128,-1,53
 481 297 481 297 478 301 c 128,-1,54
 475 305 475 305 473 309 c 1,55,-1
 472 309 l 1,0,-1
161 68 m 1,56,-1
 98 61 l 1,57,-1
 90 68 l 1,58,-1
 98 132 l 1,59,-1
 266 301 l 1,60,-1
 331 237 l 1,61,-1
 161 68 l 1,62,-1
 161 68 l 1,56,-1
353 259 m 1,63,-1
 288 323 l 1,64,-1
 363 397 l 2,65,66
 363 398 363 398 365.5 400 c 128,-1,67
 368 402 368 402 369 403.5 c 128,-1,68
 370 405 370 405 372 406 c 128,-1,69
 374 407 374 407 373 407 c 1,70,-1
 427 355 l 2,71,72
 427 354 427 354 428.5 352 c 128,-1,73
 430 350 430 350 429.5 349 c 128,-1,74
 429 348 429 348 430 346.5 c 128,-1,75
 431 345 431 345 430 344 c 0,76,77
 430 342 430 342 429 340 c 128,-1,78
 428 338 428 338 428 336.5 c 128,-1,79
 428 335 428 335 426 333.5 c 128,-1,80
 424 332 424 332 424 330 c 2,81,-1
 352 259 l 1,82,-1
 353 259 l 1,63,-1
EndSplineSet
EndChar

StartChar: uniE627
Encoding: 58919 58919 43
Width: 512
GlyphClass: 1
Flags: W
LayerCount: 2
Fore
SplineSet
456 213 m 1,0,-1
 271 398 l 1,1,-1
 271 -2 l 1,2,-1
 241 -2 l 1,3,-1
 241 398 l 1,4,-1
 56 213 l 1,5,-1
 35 235 l 1,6,-1
 256 456 l 1,7,-1
 477 235 l 1,8,-1
 456 213 l 1,9,-1
 456 213 l 1,0,-1
EndSplineSet
EndChar

StartChar: uniE628
Encoding: 58920 58920 44
Width: 512
GlyphClass: 1
Flags: W
LayerCount: 2
Fore
SplineSet
473 225 m 1,0,-1
 252 4 l 1,1,-1
 230 25 l 1,2,-1
 415 211 l 1,3,-1
 30 210 l 1,4,-1
 30 241 l 1,5,-1
 415 240 l 1,6,-1
 230 426 l 1,7,-1
 252 446 l 1,8,-1
 473 226 l 1,9,-1
 473 225 l 1,0,-1
EndSplineSet
EndChar

StartChar: uniE629
Encoding: 58921 58921 45
Width: 512
GlyphClass: 1
Flags: W
LayerCount: 2
Fore
SplineSet
482 210 m 1,0,-1
 97 210 l 1,1,-1
 282 25 l 1,2,-1
 260 3 l 1,3,-1
 39 225 l 1,4,-1
 260 446 l 1,5,-1
 282 425 l 1,6,-1
 97 240 l 1,7,-1
 482 240 l 1,8,-1
 482 210 l 1,9,-1
 482 210 l 1,0,-1
EndSplineSet
EndChar

StartChar: uniE62A
Encoding: 58922 58922 46
Width: 512
GlyphClass: 1
Flags: W
LayerCount: 2
Fore
SplineSet
477 213 m 1,0,-1
 256 -8 l 1,1,-1
 35 213 l 1,2,-1
 56 235 l 1,3,-1
 241 50 l 1,4,-1
 241 450 l 1,5,-1
 271 450 l 1,6,-1
 271 50 l 1,7,-1
 456 235 l 1,8,-1
 477 213 l 1,9,-1
 477 213 l 1,0,-1
EndSplineSet
EndChar

StartChar: uniE62B
Encoding: 58923 58923 47
Width: 512
GlyphClass: 1
Flags: W
LayerCount: 2
Fore
SplineSet
286 150 m 2,0,1
 286 146 286 146 285 142 c 128,-1,2
 284 138 284 138 282 135 c 128,-1,3
 280 132 280 132 277 129 c 128,-1,4
 274 126 274 126 271 125 c 2,5,-1
 271 59 l 1,6,-1
 241 60 l 1,7,-1
 241 124 l 2,8,9
 238 127 238 127 235 129 c 128,-1,10
 232 131 232 131 230 135 c 128,-1,11
 228 139 228 139 227 142 c 128,-1,12
 226 145 226 145 226 151 c 0,13,14
 226 156 226 156 228.5 162 c 128,-1,15
 231 168 231 168 235 171.5 c 128,-1,16
 239 175 239 175 244.5 178 c 128,-1,17
 250 181 250 181 256 180 c 0,18,19
 262 181 262 181 267.5 178 c 128,-1,20
 273 175 273 175 277 171.5 c 128,-1,21
 281 168 281 168 283.5 162 c 128,-1,22
 286 156 286 156 286 151 c 2,23,-1
 286 150 l 2,0,1
451 225 m 1,24,-1
 451 13 l 2,25,26
 451 3 451 3 447.5 -5 c 128,-1,27
 444 -13 444 -13 437.5 -19.5 c 128,-1,28
 431 -26 431 -26 423 -29 c 128,-1,29
 415 -32 415 -32 406 -33 c 2,30,-1
 105 -32 l 2,31,32
 95 -33 95 -33 87 -29 c 128,-1,33
 79 -25 79 -25 73 -19.5 c 128,-1,34
 67 -14 67 -14 63.5 -5 c 128,-1,35
 60 4 60 4 60 12 c 2,36,-1
 60 226 l 2,37,38
 60 235 60 235 63.5 243.5 c 128,-1,39
 67 252 67 252 73 257.5 c 128,-1,40
 79 263 79 263 87 267 c 128,-1,41
 95 271 95 271 105 270 c 1,42,-1
 105 271 l 1,43,-1
 105 330 l 2,44,45
 105 362 105 362 117 389 c 128,-1,46
 129 416 129 416 149.5 437 c 128,-1,47
 170 458 170 458 197.5 469.5 c 128,-1,48
 225 481 225 481 256 482 c 0,49,50
 287 481 287 481 314.5 469.5 c 128,-1,51
 342 458 342 458 362.5 437 c 128,-1,52
 383 416 383 416 395 389 c 128,-1,53
 407 362 407 362 407 330 c 2,54,-1
 407 271 l 1,55,56
 416 270 416 270 424 267 c 128,-1,57
 432 264 432 264 438 257.5 c 128,-1,58
 444 251 444 251 447.5 243 c 128,-1,59
 451 235 451 235 451 225 c 1,60,-1
 451 225 l 1,24,-1
136 271 m 1,61,-1
 376 270 l 1,62,-1
 376 331 l 2,63,64
 376 355 376 355 367 377.5 c 128,-1,65
 358 400 358 400 341.5 416 c 128,-1,66
 325 432 325 432 303 442 c 128,-1,67
 281 452 281 452 256 451 c 0,68,69
 231 452 231 452 209 442 c 128,-1,70
 187 432 187 432 170.5 416 c 128,-1,71
 154 400 154 400 145 377.5 c 128,-1,72
 136 355 136 355 136 331 c 2,73,-1
 136 270 l 1,74,-1
 136 271 l 1,61,-1
421 226 m 2,75,76
 421 228 421 228 419.5 231 c 128,-1,77
 418 234 418 234 416.5 235.5 c 128,-1,78
 415 237 415 237 412.5 239 c 128,-1,79
 410 241 410 241 407 240 c 1,80,-1
 407 241 l 1,81,-1
 105 240 l 1,82,-1
 105 241 l 1,83,-1
 105 240 l 1,84,85
 102 241 102 241 99 239.5 c 128,-1,86
 96 238 96 238 94 236.5 c 128,-1,87
 92 235 92 235 91 231.5 c 128,-1,88
 90 228 90 228 90 226 c 2,89,-1
 90 12 l 2,90,91
 90 10 90 10 91 6.5 c 128,-1,92
 92 3 92 3 94 1.5 c 128,-1,93
 96 0 96 0 99 -1.5 c 128,-1,94
 102 -3 102 -3 105 -2 c 2,95,-1
 406 -3 l 2,96,97
 409 -2 409 -2 411.5 -1.5 c 128,-1,98
 414 -1 414 -1 416 1.5 c 128,-1,99
 418 4 418 4 419.5 6.5 c 128,-1,100
 421 9 421 9 421 13 c 2,101,-1
 421 225 l 1,102,-1
 421 226 l 2,75,76
EndSplineSet
EndChar

StartChar: uniE62C
Encoding: 58924 58924 48
Width: 512
GlyphClass: 1
Flags: W
LayerCount: 2
Fore
SplineSet
59 421 m 1,0,-1
 218 -4 l 1,1,-1
 255 225 l 1,2,-1
 483 262 l 1,3,-1
 59 421 l 1,4,-1
 59 421 l 1,0,-1
228 251 m 1,5,-1
 207 113 l 1,6,-1
 110 369 l 1,7,-1
 367 273 l 1,8,-1
 228 251 l 1,9,-1
 228 251 l 1,5,-1
EndSplineSet
EndChar

StartChar: uniE62D
Encoding: 58925 58925 49
Width: 512
GlyphClass: 1
Flags: W
LayerCount: 2
Fore
SplineSet
391 271 m 1,0,-1
 363 243 l 1,1,-1
 341 264 l 1,2,-1
 370 292 l 2,3,4
 381 303 381 303 386.5 317 c 128,-1,5
 392 331 392 331 392 345.5 c 128,-1,6
 392 360 392 360 386.5 374 c 128,-1,7
 381 388 381 388 370 399 c 256,8,9
 359 410 359 410 345 415.5 c 128,-1,10
 331 421 331 421 316.5 421 c 128,-1,11
 302 421 302 421 288 415.5 c 128,-1,12
 274 410 274 410 263 399 c 2,13,-1
 173 309 l 2,14,15
 162 298 162 298 156.5 284 c 128,-1,16
 151 270 151 270 151 255.5 c 128,-1,17
 151 241 151 241 156.5 227 c 128,-1,18
 162 213 162 213 173 202 c 256,19,20
 184 191 184 191 198 185.5 c 128,-1,21
 212 180 212 180 226.5 180 c 128,-1,22
 241 180 241 180 255 185.5 c 128,-1,23
 269 191 269 191 280 202 c 1,24,-1
 301 181 l 1,25,26
 293 173 293 173 284.5 167.5 c 128,-1,27
 276 162 276 162 266.5 158 c 128,-1,28
 257 154 257 154 247 152 c 128,-1,29
 237 150 237 150 227 150 c 0,30,31
 216 150 216 150 206 152 c 128,-1,32
 196 154 196 154 186.5 158 c 128,-1,33
 177 162 177 162 168.5 167.5 c 128,-1,34
 160 173 160 173 152 181 c 0,35,36
 137 196 137 196 129 215.5 c 128,-1,37
 121 235 121 235 121 255.5 c 128,-1,38
 121 276 121 276 129 295.5 c 128,-1,39
 137 315 137 315 152 330 c 2,40,-1
 242 420 l 2,41,42
 257 435 257 435 276.5 443 c 128,-1,43
 296 451 296 451 316.5 451 c 128,-1,44
 337 451 337 451 356.5 443 c 128,-1,45
 376 435 376 435 391 420 c 256,46,47
 406 405 406 405 414 385.5 c 128,-1,48
 422 366 422 366 422 345.5 c 128,-1,49
 422 325 422 325 414 305.5 c 128,-1,50
 406 286 406 286 391 271 c 1,51,-1
 391 271 l 1,0,-1
182 238 m 1,52,-1
 178 234 l 1,53,-1
 199 213 l 1,54,-1
 203 217 l 2,55,56
 214 228 214 228 228 233.5 c 128,-1,57
 242 239 242 239 256.5 239 c 128,-1,58
 271 239 271 239 285 233.5 c 128,-1,59
 299 228 299 228 310 217 c 256,60,61
 321 206 321 206 326.5 192 c 128,-1,62
 332 178 332 178 332 163.5 c 128,-1,63
 332 149 332 149 326.5 135 c 128,-1,64
 321 121 321 121 310 110 c 2,65,-1
 219 19 l 2,66,67
 208 8 208 8 194 2.5 c 128,-1,68
 180 -3 180 -3 165.5 -3 c 128,-1,69
 151 -3 151 -3 137 2.5 c 128,-1,70
 123 8 123 8 112 19 c 256,71,72
 101 30 101 30 95.5 44 c 128,-1,73
 90 58 90 58 90 72.5 c 128,-1,74
 90 87 90 87 95.5 101 c 128,-1,75
 101 115 101 115 112 126 c 2,76,-1
 144 158 l 1,77,-1
 123 179 l 1,78,-1
 91 147 l 2,79,80
 75 131 75 131 67.5 112 c 128,-1,81
 60 93 60 93 60 72.5 c 128,-1,82
 60 52 60 52 67.5 32.5 c 128,-1,83
 75 13 75 13 91 -2 c 0,84,85
 99 -10 99 -10 107.5 -15.5 c 128,-1,86
 116 -21 116 -21 125.5 -25 c 128,-1,87
 135 -29 135 -29 145 -31 c 128,-1,88
 155 -33 155 -33 165 -33 c 0,89,90
 176 -33 176 -33 186 -31 c 128,-1,91
 196 -29 196 -29 205.5 -25 c 128,-1,92
 215 -21 215 -21 223.5 -15.5 c 128,-1,93
 232 -10 232 -10 240 -2 c 2,94,-1
 331 89 l 2,95,96
 346 104 346 104 354 123.5 c 128,-1,97
 362 143 362 143 362 163.5 c 128,-1,98
 362 184 362 184 354 203.5 c 128,-1,99
 346 223 346 223 331 238 c 256,100,101
 316 253 316 253 296.5 261 c 128,-1,102
 277 269 277 269 256.5 269 c 128,-1,103
 236 269 236 269 216.5 261 c 128,-1,104
 197 253 197 253 182 238 c 1,105,-1
 182 238 l 1,52,-1
EndSplineSet
EndChar

StartChar: uniE62E
Encoding: 58926 58926 50
Width: 512
GlyphClass: 1
Flags: W
LayerCount: 2
Fore
SplineSet
0 480 m 1,0,-1
 0 -32 l 1,1,-1
 512 -32 l 1,2,-1
 512 480 l 1,3,-1
 0 480 l 1,4,-1
 0 480 l 1,0,-1
30 299 m 1,5,-1
 301 299 l 1,6,-1
 301 -2 l 1,7,-1
 30 -2 l 1,8,-1
 30 299 l 1,9,-1
 30 299 l 1,5,-1
482 -2 m 1,10,-1
 331 -2 l 1,11,-1
 331 299 l 1,12,-1
 482 299 l 1,13,-1
 482 -2 l 1,14,-1
 482 -2 l 1,10,-1
30 329 m 1,15,-1
 30 450 l 1,16,-1
 482 450 l 1,17,-1
 482 329 l 1,18,-1
 30 329 l 1,19,-1
 30 329 l 1,15,-1
EndSplineSet
EndChar

StartChar: uniE62F
Encoding: 58927 58927 51
Width: 512
GlyphClass: 1
Flags: W
LayerCount: 2
Fore
SplineSet
392 450 m 1,0,-1
 0 450 l 1,1,-1
 0 119 l 1,2,-1
 392 119 l 1,3,-1
 392 450 l 1,4,-1
 392 450 l 1,0,-1
361 149 m 1,5,-1
 30 149 l 1,6,-1
 30 420 l 1,7,-1
 361 420 l 1,8,-1
 361 149 l 1,9,-1
 361 149 l 1,5,-1
512 329 m 1,10,-1
 512 -2 l 1,11,-1
 120 -2 l 1,12,-1
 120 89 l 1,13,-1
 151 89 l 1,14,-1
 151 28 l 1,15,-1
 482 28 l 1,16,-1
 482 299 l 1,17,-1
 421 299 l 1,18,-1
 421 329 l 1,19,-1
 512 329 l 1,20,-1
 512 329 l 1,10,-1
EndSplineSet
EndChar

StartChar: uniE630
Encoding: 58928 58928 52
Width: 512
GlyphClass: 1
Flags: W
LayerCount: 2
Fore
SplineSet
331 450 m 1,0,-1
 0 450 l 1,1,-1
 0 179 l 1,2,-1
 331 179 l 1,3,-1
 331 450 l 1,4,-1
 331 450 l 1,0,-1
301 209 m 1,5,-1
 30 209 l 1,6,-1
 30 420 l 1,7,-1
 301 420 l 1,8,-1
 301 209 l 1,9,-1
 301 209 l 1,5,-1
422 88 m 1,10,-1
 90 88 l 1,11,-1
 90 148 l 1,12,-1
 120 148 l 1,13,-1
 120 119 l 1,14,-1
 392 119 l 1,15,-1
 392 329 l 1,16,-1
 362 329 l 1,17,-1
 362 360 l 1,18,-1
 422 360 l 1,19,-1
 422 88 l 1,20,-1
 422 88 l 1,10,-1
512 269 m 1,21,-1
 512 -2 l 1,22,-1
 181 -2 l 1,23,-1
 181 58 l 1,24,-1
 211 58 l 1,25,-1
 211 28 l 1,26,-1
 482 28 l 1,27,-1
 482 239 l 1,28,-1
 452 239 l 1,29,-1
 452 269 l 1,30,-1
 512 269 l 1,31,-1
 512 269 l 1,21,-1
EndSplineSet
EndChar

StartChar: uniE631
Encoding: 58929 58929 53
Width: 512
GlyphClass: 1
Flags: W
LayerCount: 2
Fore
SplineSet
446 290 m 1,0,-1
 467 311 l 1,1,-1
 415 364 l 1,2,-1
 438 385 l 1,3,-1
 417 408 l 1,4,-1
 171 163 l 1,5,6
 166 167 166 167 160 169.5 c 128,-1,7
 154 172 154 172 147.5 175 c 128,-1,8
 141 178 141 178 134 178.5 c 128,-1,9
 127 179 127 179 120 180 c 0,10,11
 101 179 101 179 85 172.5 c 128,-1,12
 69 166 69 166 56.5 153 c 128,-1,13
 44 140 44 140 37 124 c 128,-1,14
 30 108 30 108 30 88 c 0,15,16
 30 71 30 71 37 54 c 128,-1,17
 44 37 44 37 56.5 25 c 128,-1,18
 69 13 69 13 85 5.5 c 128,-1,19
 101 -2 101 -2 120 -1 c 0,20,21
 139 -2 139 -2 155.5 5.5 c 128,-1,22
 172 13 172 13 184 25 c 128,-1,23
 196 37 196 37 203 54 c 128,-1,24
 210 71 210 71 210 88 c 0,25,26
 210 97 210 97 209 103.5 c 128,-1,27
 208 110 208 110 205.5 117.5 c 128,-1,28
 203 125 203 125 200 130.5 c 128,-1,29
 197 136 197 136 193 143 c 1,30,-1
 351 299 l 1,31,-1
 404 248 l 1,32,-1
 425 268 l 1,33,-1
 373 322 l 1,34,-1
 394 342 l 1,35,-1
 446 290 l 1,36,-1
 446 290 l 1,0,-1
120 28 m 1,37,38
 108 29 108 29 97 33.5 c 128,-1,39
 86 38 86 38 77.5 46.5 c 128,-1,40
 69 55 69 55 64.5 65.5 c 128,-1,41
 60 76 60 76 60 89 c 0,42,43
 60 101 60 101 64.5 112.5 c 128,-1,44
 69 124 69 124 77.5 131.5 c 128,-1,45
 86 139 86 139 97 144.5 c 128,-1,46
 108 150 108 150 120 149 c 0,47,48
 133 150 133 150 143.5 144.5 c 128,-1,49
 154 139 154 139 162.5 131.5 c 128,-1,50
 171 124 171 124 175.5 112.5 c 128,-1,51
 180 101 180 101 180 89 c 0,52,53
 180 76 180 76 175.5 65.5 c 128,-1,54
 171 55 171 55 162.5 46.5 c 128,-1,55
 154 38 154 38 143.5 33.5 c 128,-1,56
 133 29 133 29 120 28 c 1,57,-1
 120 28 l 1,37,38
EndSplineSet
EndChar

StartChar: uniE632
Encoding: 58930 58930 54
Width: 512
GlyphClass: 1
Flags: W
LayerCount: 2
Fore
SplineSet
256 68 m 1,0,-1
 110 213 l 1,1,-1
 131 235 l 1,2,-1
 241 125 l 1,3,-1
 241 451 l 1,4,-1
 271 450 l 1,5,-1
 271 126 l 1,6,-1
 381 234 l 1,7,-1
 402 214 l 1,8,-1
 256 67 l 1,9,-1
 256 68 l 1,0,-1
482 208 m 1,10,-1
 482 12 l 2,11,12
 482 10 482 10 481 7 c 128,-1,13
 480 4 480 4 477.5 2 c 128,-1,14
 475 0 475 0 472.5 -1.5 c 128,-1,15
 470 -3 470 -3 467 -2 c 2,16,-1
 45 -3 l 2,17,18
 42 -2 42 -2 39.5 -1.5 c 128,-1,19
 37 -1 37 -1 34.5 2 c 128,-1,20
 32 5 32 5 31 7 c 128,-1,21
 30 9 30 9 30 13 c 2,22,-1
 30 207 l 1,23,-1
 0 208 l 1,24,-1
 0 12 l 2,25,26
 0 4 0 4 3.5 -5 c 128,-1,27
 7 -14 7 -14 13 -19.5 c 128,-1,28
 19 -25 19 -25 27.5 -29 c 128,-1,29
 36 -33 36 -33 45 -32 c 2,30,-1
 467 -33 l 2,31,32
 476 -32 476 -32 484.5 -29 c 128,-1,33
 493 -26 493 -26 499 -19.5 c 128,-1,34
 505 -13 505 -13 508.5 -5 c 128,-1,35
 512 3 512 3 512 13 c 2,36,-1
 512 207 l 1,37,-1
 482 208 l 1,38,-1
 482 208 l 1,10,-1
EndSplineSet
EndChar

StartChar: uniE633
Encoding: 58931 58931 55
Width: 512
GlyphClass: 1
Flags: W
LayerCount: 2
Fore
SplineSet
30 450 m 1,0,-1
 30 -2 l 1,1,-1
 482 -2 l 1,2,-1
 482 450 l 1,3,-1
 30 450 l 1,4,-1
 30 450 l 1,0,-1
452 28 m 1,5,-1
 60 28 l 1,6,-1
 60 88 l 1,7,-1
 452 88 l 1,8,-1
 452 28 l 1,9,-1
 452 28 l 1,5,-1
60 119 m 1,10,-1
 60 420 l 1,11,-1
 452 420 l 1,12,-1
 452 119 l 1,13,-1
 60 119 l 1,14,-1
 60 119 l 1,10,-1
428 174 m 1,15,-1
 407 152 l 1,16,-1
 334 223 l 1,17,-1
 287 173 l 1,18,-1
 212 305 l 1,19,-1
 110 156 l 1,20,-1
 85 173 l 1,21,-1
 215 362 l 1,22,-1
 293 223 l 1,23,-1
 333 266 l 1,24,-1
 428 174 l 1,25,-1
 428 174 l 1,15,-1
EndSplineSet
EndChar

StartChar: uniE634
Encoding: 58932 58932 56
Width: 512
GlyphClass: 1
Flags: W
LayerCount: 2
Fore
SplineSet
376 460 m 1,0,1
 356 460 356 460 338.5 454.5 c 128,-1,2
 321 449 321 449 304.5 439.5 c 128,-1,3
 288 430 288 430 276 416.5 c 128,-1,4
 264 403 264 403 255 387 c 1,5,6
 248 403 248 403 235 416.5 c 128,-1,7
 222 430 222 430 206.5 439.5 c 128,-1,8
 191 449 191 449 172.5 454.5 c 128,-1,9
 154 460 154 460 136 460 c 0,10,11
 107 460 107 460 82.5 449.5 c 128,-1,12
 58 439 58 439 39 420.5 c 128,-1,13
 20 402 20 402 10 377.5 c 128,-1,14
 0 353 0 353 -1 325 c 0,15,16
 0 321 0 321 0 317 c 128,-1,17
 0 313 0 313 1 309 c 128,-1,18
 2 305 2 305 2 300.5 c 128,-1,19
 2 296 2 296 5 291 c 2,20,-1
 7 280 l 1,21,22
 24 231 24 231 61.5 180.5 c 128,-1,23
 99 130 99 130 139.5 89 c 128,-1,24
 180 48 180 48 211.5 21 c 128,-1,25
 243 -6 243 -6 247 -9 c 2,26,-1
 255 -16 l 1,27,-1
 265 -9 l 2,28,29
 268 -6 268 -6 302 22.5 c 128,-1,30
 336 51 336 51 376.5 93 c 128,-1,31
 417 135 417 135 455 185 c 128,-1,32
 493 235 493 235 503 281 c 1,33,-1
 508 292 l 2,34,35
 508 296 508 296 509 300.5 c 128,-1,36
 510 305 510 305 510 309 c 128,-1,37
 510 313 510 313 511 317 c 128,-1,38
 512 321 512 321 511 325 c 0,39,40
 512 353 512 353 501 377.5 c 128,-1,41
 490 402 490 402 472 420.5 c 128,-1,42
 454 439 454 439 428.5 449.5 c 128,-1,43
 403 460 403 460 376 460 c 1,44,-1
 376 460 l 1,0,1
478 300 m 1,45,-1
 475 289 l 2,46,47
 465 252 465 252 436 210.5 c 128,-1,48
 407 169 407 169 371 131.5 c 128,-1,49
 335 94 335 94 303 64.5 c 128,-1,50
 271 35 271 35 255 22 c 1,51,52
 242 35 242 35 210 63 c 128,-1,53
 178 91 178 91 144.5 128 c 128,-1,54
 111 165 111 165 80 207.5 c 128,-1,55
 49 250 49 250 37 290 c 1,56,-1
 33 299 l 2,57,58
 33 303 33 303 31.5 306 c 128,-1,59
 30 309 30 309 30.5 312.5 c 128,-1,60
 31 316 31 316 30 319 c 128,-1,61
 29 322 29 322 30 325 c 0,62,63
 29 346 29 346 38 365.5 c 128,-1,64
 47 385 47 385 60.5 399 c 128,-1,65
 74 413 74 413 94 421.5 c 128,-1,66
 114 430 114 430 135 430 c 0,67,68
 157 430 157 430 176 421.5 c 128,-1,69
 195 413 195 413 209.5 399 c 128,-1,70
 224 385 224 385 232 365.5 c 128,-1,71
 240 346 240 346 241 325 c 2,72,-1
 240 317 l 1,73,-1
 271 317 l 1,74,-1
 270 325 l 2,75,76
 271 346 271 346 279 365.5 c 128,-1,77
 287 385 287 385 301.5 399 c 128,-1,78
 316 413 316 413 335 421.5 c 128,-1,79
 354 430 354 430 376 430 c 0,80,81
 397 430 397 430 417 421.5 c 128,-1,82
 437 413 437 413 450.5 399 c 128,-1,83
 464 385 464 385 473 365.5 c 128,-1,84
 482 346 482 346 481 325 c 0,85,86
 482 322 482 322 481 319 c 128,-1,87
 480 316 480 316 480.5 313 c 128,-1,88
 481 310 481 310 479.5 306.5 c 128,-1,89
 478 303 478 303 479 300 c 1,90,-1
 478 300 l 1,45,-1
EndSplineSet
EndChar

StartChar: uniE635
Encoding: 58933 58933 57
Width: 512
GlyphClass: 1
Flags: W
LayerCount: 2
Fore
SplineSet
5 291 m 1,0,1
 4 296 4 296 3 300.5 c 128,-1,2
 2 305 2 305 2 309 c 128,-1,3
 2 313 2 313 1 317 c 128,-1,4
 0 321 0 321 1 325 c 0,5,6
 0 353 0 353 11 377.5 c 128,-1,7
 22 402 22 402 40 420.5 c 128,-1,8
 58 439 58 439 83.5 449.5 c 128,-1,9
 109 460 109 460 136 460 c 0,10,11
 156 460 156 460 173.5 454.5 c 128,-1,12
 191 449 191 449 207.5 439.5 c 128,-1,13
 224 430 224 430 236 416.5 c 128,-1,14
 248 403 248 403 257 387 c 1,15,16
 264 403 264 403 277 416.5 c 128,-1,17
 290 430 290 430 305.5 439.5 c 128,-1,18
 321 449 321 449 339.5 454.5 c 128,-1,19
 358 460 358 460 376 460 c 0,20,21
 405 460 405 460 429.5 449.5 c 128,-1,22
 454 439 454 439 473 420.5 c 128,-1,23
 492 402 492 402 502 377.5 c 128,-1,24
 512 353 512 353 513 325 c 0,25,26
 512 321 512 321 512 317 c 128,-1,27
 512 313 512 313 511 309 c 128,-1,28
 510 305 510 305 510 300.5 c 128,-1,29
 510 296 510 296 508 292 c 2,30,-1
 505 281 l 2,31,32
 503 277 503 277 502.5 273 c 128,-1,33
 502 269 502 269 499.5 264.5 c 128,-1,34
 497 260 497 260 495.5 255 c 128,-1,35
 494 250 494 250 491 245 c 1,36,-1
 464 257 l 1,37,38
 466 262 466 262 468 266.5 c 128,-1,39
 470 271 470 271 471 274.5 c 128,-1,40
 472 278 472 278 473.5 281.5 c 128,-1,41
 475 285 475 285 475 289 c 2,42,-1
 480 300 l 2,43,44
 479 303 479 303 480.5 306.5 c 128,-1,45
 482 310 482 310 481.5 313 c 128,-1,46
 481 316 481 316 482 319 c 128,-1,47
 483 322 483 322 482 325 c 0,48,49
 483 346 483 346 474 365.5 c 128,-1,50
 465 385 465 385 451.5 399 c 128,-1,51
 438 413 438 413 418 421.5 c 128,-1,52
 398 430 398 430 377 430 c 0,53,54
 355 430 355 430 336 421.5 c 128,-1,55
 317 413 317 413 302.5 399 c 128,-1,56
 288 385 288 385 280 365.5 c 128,-1,57
 272 346 272 346 271 325 c 1,58,-1
 242 325 l 1,59,60
 241 346 241 346 233 365.5 c 128,-1,61
 225 385 225 385 210.5 399 c 128,-1,62
 196 413 196 413 177 421.5 c 128,-1,63
 158 430 158 430 136 430 c 0,64,65
 115 430 115 430 95 421.5 c 128,-1,66
 75 413 75 413 61.5 399 c 128,-1,67
 48 385 48 385 39 365.5 c 128,-1,68
 30 346 30 346 31 325 c 0,69,70
 30 322 30 322 31 319 c 128,-1,71
 32 316 32 316 31.5 312.5 c 128,-1,72
 31 309 31 309 32.5 306 c 128,-1,73
 34 303 34 303 34 299 c 2,74,-1
 38 290 l 2,75,76
 38 286 38 286 39.5 282.5 c 128,-1,77
 41 279 41 279 42.5 275.5 c 128,-1,78
 44 272 44 272 46.5 267.5 c 128,-1,79
 49 263 49 263 50 259 c 2,80,-1
 24 245 l 1,81,82
 20 250 20 250 18.5 255 c 128,-1,83
 17 260 17 260 14.5 264 c 128,-1,84
 12 268 12 268 11 272.5 c 128,-1,85
 10 277 10 277 8 280 c 2,86,-1
 6 291 l 1,87,-1
 5 291 l 1,0,1
256 22 m 1,88,89
 248 29 248 29 231 43 c 128,-1,90
 214 57 214 57 194 76.5 c 128,-1,91
 174 96 174 96 150.5 120.5 c 128,-1,92
 127 145 127 145 107 173 c 1,93,-1
 82 155 l 1,94,95
 110 119 110 119 138 89.5 c 128,-1,96
 166 60 166 60 190.5 38 c 128,-1,97
 215 16 215 16 230.5 4 c 128,-1,98
 246 -8 246 -8 248 -9 c 2,99,-1
 256 -16 l 1,100,-1
 266 -9 l 2,101,102
 266 -8 266 -8 283 4.5 c 128,-1,103
 300 17 300 17 324 39 c 128,-1,104
 348 61 348 61 377 90.5 c 128,-1,105
 406 120 406 120 432 155 c 1,106,-1
 409 173 l 1,107,108
 387 146 387 146 364.5 121.5 c 128,-1,109
 342 97 342 97 320.5 77.5 c 128,-1,110
 299 58 299 58 282.5 43.5 c 128,-1,111
 266 29 266 29 256 22 c 1,112,-1
 256 22 l 1,88,89
428 257 m 1,113,-1
 342 196 l 1,114,-1
 257 257 l 1,115,-1
 171 196 l 1,116,-1
 86 257 l 1,117,-1
 -9 190 l 1,118,-1
 10 166 l 1,119,-1
 85 220 l 1,120,-1
 172 160 l 1,121,-1
 256 220 l 1,122,-1
 343 160 l 1,123,-1
 427 220 l 1,124,-1
 504 166 l 1,125,-1
 521 190 l 1,126,-1
 428 257 l 1,127,-1
 428 257 l 1,113,-1
EndSplineSet
EndChar

StartChar: uniE636
Encoding: 58934 58934 58
Width: 512
GlyphClass: 1
Flags: W
LayerCount: 2
Fore
SplineSet
422 347 m 1,0,-1
 422 128 l 2,1,2
 422 119 422 119 420 108 c 128,-1,3
 418 97 418 97 415.5 87 c 128,-1,4
 413 77 413 77 409.5 66 c 128,-1,5
 406 55 406 55 403 46 c 0,6,7
 401 39 401 39 399 33.5 c 128,-1,8
 397 28 397 28 395 22 c 128,-1,9
 393 16 393 16 392.5 12 c 128,-1,10
 392 8 392 8 392 5 c 2,11,-1
 392 -17 l 2,12,13
 392 -21 392 -21 390.5 -23.5 c 128,-1,14
 389 -26 389 -26 387 -28.5 c 128,-1,15
 385 -31 385 -31 382.5 -31.5 c 128,-1,16
 380 -32 380 -32 376 -33 c 0,17,18
 373 -32 373 -32 370.5 -31.5 c 128,-1,19
 368 -31 368 -31 366 -28.5 c 128,-1,20
 364 -26 364 -26 362.5 -23.5 c 128,-1,21
 361 -21 361 -21 361 -17 c 2,22,-1
 361 5 l 2,23,24
 361 10 361 10 362 15 c 128,-1,25
 363 20 363 20 365 26.5 c 128,-1,26
 367 33 367 33 369 39.5 c 128,-1,27
 371 46 371 46 374 55 c 0,28,29
 377 63 377 63 380 73 c 128,-1,30
 383 83 383 83 385.5 92.5 c 128,-1,31
 388 102 388 102 390 111.5 c 128,-1,32
 392 121 392 121 392 128 c 2,33,-1
 392 347 l 2,34,35
 392 349 392 349 390.5 352.5 c 128,-1,36
 389 356 389 356 387 357.5 c 128,-1,37
 385 359 385 359 382.5 360.5 c 128,-1,38
 380 362 380 362 377 361 c 0,39,40
 374 362 374 362 371 360.5 c 128,-1,41
 368 359 368 359 366 357.5 c 128,-1,42
 364 356 364 356 363 353 c 128,-1,43
 362 350 362 350 361 348 c 0,44,45
 361 347 361 347 361 347.5 c 129,-1,46
 361 348 361 348 361 347.5 c 129,-1,47
 361 347 361 347 361 347.5 c 129,-1,48
 361 348 361 348 361 347 c 2,49,-1
 361 231 l 2,50,51
 361 227 361 227 360 225 c 128,-1,52
 359 223 359 223 357 220.5 c 128,-1,53
 355 218 355 218 352 217 c 128,-1,54
 349 216 349 216 346 215 c 0,55,56
 343 216 343 216 340.5 217 c 128,-1,57
 338 218 338 218 336 220.5 c 128,-1,58
 334 223 334 223 332.5 225 c 128,-1,59
 331 227 331 227 331 231 c 2,60,-1
 331 353 l 2,61,62
 331 354 331 354 331 354 c 129,-1,63
 331 354 331 354 331 354.5 c 129,-1,64
 331 355 331 355 331 354.5 c 129,-1,65
 331 354 331 354 331 355 c 2,66,-1
 331 396 l 2,67,68
 331 400 331 400 330.5 402 c 128,-1,69
 330 404 330 404 328 406.5 c 128,-1,70
 326 409 326 409 323.5 410 c 128,-1,71
 321 411 321 411 318 412 c 0,72,73
 315 411 315 411 312 410.5 c 128,-1,74
 309 410 309 410 307 407.5 c 128,-1,75
 305 405 305 405 303.5 403 c 128,-1,76
 302 401 302 401 302 397 c 1,77,78
 302 398 302 398 301.5 397.5 c 128,-1,79
 301 397 301 397 301 397 c 129,-1,80
 301 397 301 397 301 396.5 c 128,-1,81
 301 396 301 396 301 397 c 1,82,-1
 301 261 l 2,83,84
 301 259 301 259 300 255.5 c 128,-1,85
 299 252 299 252 297 250.5 c 128,-1,86
 295 249 295 249 292 247.5 c 128,-1,87
 289 246 289 246 286 247 c 0,88,89
 283 246 283 246 280.5 247.5 c 128,-1,90
 278 249 278 249 275.5 250.5 c 128,-1,91
 273 252 273 252 272 255.5 c 128,-1,92
 271 259 271 259 271 261 c 2,93,-1
 271 410 l 1,94,95
 271 409 271 409 271 409.5 c 128,-1,96
 271 410 271 410 271 410 c 129,-1,97
 271 410 271 410 271 410.5 c 128,-1,98
 271 411 271 411 271 410 c 1,99,-1
 271 435 l 2,100,101
 271 437 271 437 270 440.5 c 128,-1,102
 269 444 269 444 267 445.5 c 128,-1,103
 265 447 265 447 262 448.5 c 128,-1,104
 259 450 259 450 256 449 c 0,105,106
 252 450 252 450 249.5 448.5 c 128,-1,107
 247 447 247 447 245 445.5 c 128,-1,108
 243 444 243 444 242 440.5 c 128,-1,109
 241 437 241 437 241 435 c 2,110,-1
 241 408 l 1,111,112
 241 409 241 409 241 408.5 c 128,-1,113
 241 408 241 408 241 408 c 129,-1,114
 241 408 241 408 241 407.5 c 128,-1,115
 241 407 241 407 241 408 c 1,116,-1
 241 407 l 1,117,-1
 241 261 l 2,118,119
 241 256 241 256 240 254 c 128,-1,120
 239 252 239 252 236.5 249.5 c 128,-1,121
 234 247 234 247 231.5 246 c 128,-1,122
 229 245 229 245 226 244 c 0,123,124
 223 245 223 245 220 246 c 128,-1,125
 217 247 217 247 215 249.5 c 128,-1,126
 213 252 213 252 212 254 c 128,-1,127
 211 256 211 256 211 261 c 1,128,-1
 211 260 l 1,129,-1
 211 399 l 1,130,131
 211 398 211 398 211 398.5 c 129,-1,132
 211 399 211 399 211 398.5 c 129,-1,133
 211 398 211 398 211 398.5 c 129,-1,134
 211 399 211 399 211 398 c 1,135,136
 210 402 210 402 209 403.5 c 128,-1,137
 208 405 208 405 206 407.5 c 128,-1,138
 204 410 204 410 201 410.5 c 128,-1,139
 198 411 198 411 196 412 c 0,140,141
 192 411 192 411 189.5 410 c 128,-1,142
 187 409 187 409 185 406.5 c 128,-1,143
 183 404 183 404 181.5 402 c 128,-1,144
 180 400 180 400 180 396 c 2,145,-1
 180 225 l 2,146,147
 180 222 180 222 179.5 220.5 c 128,-1,148
 179 219 179 219 178 216.5 c 128,-1,149
 177 214 177 214 175 213 c 128,-1,150
 173 212 173 212 171 210 c 0,151,152
 169 210 169 210 166.5 209.5 c 128,-1,153
 164 209 164 209 162 210 c 128,-1,154
 160 211 160 211 158 212 c 128,-1,155
 156 213 156 213 154 215 c 2,156,-1
 120 252 l 2,157,158
 116 258 116 258 112.5 259.5 c 128,-1,159
 109 261 109 261 106 262 c 128,-1,160
 103 263 103 263 101 261.5 c 128,-1,161
 99 260 99 260 98 261 c 1,162,163
 97 259 97 259 95.5 258.5 c 128,-1,164
 94 258 94 258 93 256.5 c 128,-1,165
 92 255 92 255 91.5 254 c 128,-1,166
 91 253 91 253 91 251 c 0,167,168
 90 250 90 250 90 248.5 c 128,-1,169
 90 247 90 247 90.5 246 c 128,-1,170
 91 245 91 245 91.5 243 c 128,-1,171
 92 241 92 241 92 241 c 1,172,-1
 191 29 l 2,173,174
 192 29 192 29 193 27.5 c 128,-1,175
 194 26 194 26 195 26 c 128,-1,176
 196 26 196 26 197.5 25 c 128,-1,177
 199 24 199 24 200 24 c 0,178,179
 203 23 203 23 205 22 c 128,-1,180
 207 21 207 21 208.5 18.5 c 128,-1,181
 210 16 210 16 211 14 c 128,-1,182
 212 12 212 12 212 9 c 2,183,-1
 212 -17 l 2,184,185
 212 -21 212 -21 210.5 -23.5 c 128,-1,186
 209 -26 209 -26 207 -28.5 c 128,-1,187
 205 -31 205 -31 202.5 -31.5 c 128,-1,188
 200 -32 200 -32 197 -33 c 0,189,190
 194 -32 194 -32 191 -31.5 c 128,-1,191
 188 -31 188 -31 186 -28.5 c 128,-1,192
 184 -26 184 -26 183 -23.5 c 128,-1,193
 182 -21 182 -21 182 -17 c 2,194,-1
 182 -1 l 2,195,196
 179 1 179 1 176.5 2 c 128,-1,197
 174 3 174 3 172 6 c 128,-1,198
 170 9 170 9 168 10.5 c 128,-1,199
 166 12 166 12 165 16 c 2,200,-1
 66 226 l 2,201,202
 64 230 64 230 62.5 233.5 c 128,-1,203
 61 237 61 237 60.5 242 c 128,-1,204
 60 247 60 247 60.5 250.5 c 128,-1,205
 61 254 61 254 62 260 c 0,206,207
 63 263 63 263 65 267.5 c 128,-1,208
 67 272 67 272 69.5 275 c 128,-1,209
 72 278 72 278 75.5 281.5 c 128,-1,210
 79 285 79 285 83 286 c 0,211,212
 91 291 91 291 98.5 292 c 128,-1,213
 106 293 106 293 114 291.5 c 128,-1,214
 122 290 122 290 129.5 285 c 128,-1,215
 137 280 137 280 143 273 c 2,216,-1
 150 264 l 1,217,-1
 150 397 l 2,218,219
 150 405 150 405 153.5 414 c 128,-1,220
 157 423 157 423 163.5 428.5 c 128,-1,221
 170 434 170 434 178 438 c 128,-1,222
 186 442 186 442 196 441 c 0,223,224
 198 442 198 442 200 441.5 c 128,-1,225
 202 441 202 441 203.5 441 c 128,-1,226
 205 441 205 441 207 440 c 128,-1,227
 209 439 209 439 211 439 c 1,228,229
 211 447 211 447 215 455 c 128,-1,230
 219 463 219 463 225 468 c 128,-1,231
 231 473 231 473 239 476.5 c 128,-1,232
 247 480 247 480 256 479 c 0,233,234
 265 480 265 480 273 476.5 c 128,-1,235
 281 473 281 473 287 467.5 c 128,-1,236
 293 462 293 462 297 454 c 128,-1,237
 301 446 301 446 301 439 c 1,238,239
 303 439 303 439 305 440 c 128,-1,240
 307 441 307 441 309.5 440.5 c 128,-1,241
 312 440 312 440 314 441 c 128,-1,242
 316 442 316 442 318 441 c 0,243,244
 327 442 327 442 335 438 c 128,-1,245
 343 434 343 434 349 428.5 c 128,-1,246
 355 423 355 423 358 414.5 c 128,-1,247
 361 406 361 406 361 397 c 2,248,-1
 361 388 l 1,249,250
 363 390 363 390 365 390 c 128,-1,251
 367 390 367 390 369 391 c 128,-1,252
 371 392 371 392 373 391.5 c 128,-1,253
 375 391 375 391 377 392 c 0,254,255
 387 391 387 391 395 388 c 128,-1,256
 403 385 403 385 409 378.5 c 128,-1,257
 415 372 415 372 418.5 364.5 c 128,-1,258
 422 357 422 357 422 346 c 1,259,-1
 422 347 l 1,0,-1
EndSplineSet
EndChar

StartChar: uniE637
Encoding: 58935 58935 59
Width: 512
GlyphClass: 1
Flags: W
LayerCount: 2
Fore
SplineSet
459 317 m 1,0,-1
 423 74 l 2,1,2
 422 67 422 67 420 62 c 128,-1,3
 418 57 418 57 415.5 53 c 128,-1,4
 413 49 413 49 410.5 46.5 c 128,-1,5
 408 44 408 44 406 41 c 0,6,7
 403 39 403 39 401.5 37 c 128,-1,8
 400 35 400 35 398.5 32 c 128,-1,9
 397 29 397 29 396.5 24.5 c 128,-1,10
 396 20 396 20 396 13 c 2,11,-1
 396 -17 l 2,12,13
 396 -20 396 -20 395 -23 c 128,-1,14
 394 -26 394 -26 392 -28 c 128,-1,15
 390 -30 390 -30 387 -31 c 128,-1,16
 384 -32 384 -32 381 -32 c 256,17,18
 378 -32 378 -32 375 -31 c 128,-1,19
 372 -30 372 -30 370 -28 c 128,-1,20
 368 -26 368 -26 367 -23 c 128,-1,21
 366 -20 366 -20 366 -17 c 2,22,-1
 366 13 l 2,23,24
 366 24 366 24 367.5 32 c 128,-1,25
 369 40 369 40 371.5 45.5 c 128,-1,26
 374 51 374 51 377.5 55 c 128,-1,27
 381 59 381 59 384 63 c 0,28,29
 386 65 386 65 387.5 66.5 c 128,-1,30
 389 68 389 68 390 69.5 c 128,-1,31
 391 71 391 71 392 73.5 c 128,-1,32
 393 76 393 76 394 79 c 2,33,-1
 429 321 l 2,34,35
 429 322 429 322 429.5 325 c 128,-1,36
 430 328 430 328 429 331 c 128,-1,37
 428 334 428 334 426.5 336 c 128,-1,38
 425 338 425 338 421 339 c 0,39,40
 420 339 420 339 418.5 339 c 128,-1,41
 417 339 417 339 416 338.5 c 128,-1,42
 415 338 415 338 414.5 338 c 128,-1,43
 414 338 414 338 413 337 c 256,44,45
 412 336 412 336 411 335 c 128,-1,46
 410 334 410 334 409 332.5 c 128,-1,47
 408 331 408 331 407.5 329 c 128,-1,48
 407 327 407 327 407 326 c 2,49,-1
 392 226 l 2,50,51
 392 224 392 224 391 222 c 128,-1,52
 390 220 390 220 389 218.5 c 128,-1,53
 388 217 388 217 386.5 216 c 128,-1,54
 385 215 385 215 383 214 c 256,55,56
 381 213 381 213 379.5 213 c 128,-1,57
 378 213 378 213 376 213 c 128,-1,58
 374 213 374 213 372 213.5 c 128,-1,59
 370 214 370 214 369 216 c 1,60,61
 368 215 368 215 367.5 215.5 c 128,-1,62
 367 216 367 216 366 216 c 128,-1,63
 365 216 365 216 364 216.5 c 128,-1,64
 363 217 363 217 362 218 c 0,65,66
 360 219 360 219 359 220.5 c 128,-1,67
 358 222 358 222 357 223.5 c 128,-1,68
 356 225 356 225 355.5 227 c 128,-1,69
 355 229 355 229 355 231 c 2,70,-1
 364 391 l 2,71,72
 364 394 364 394 363 396.5 c 128,-1,73
 362 399 362 399 360.5 401.5 c 128,-1,74
 359 404 359 404 356.5 405 c 128,-1,75
 354 406 354 406 351 407 c 0,76,77
 349 407 349 407 348 406.5 c 128,-1,78
 347 406 347 406 345.5 406 c 128,-1,79
 344 406 344 406 342.5 405 c 128,-1,80
 341 404 341 404 340 403 c 256,81,82
 339 402 339 402 338 401 c 128,-1,83
 337 400 337 400 336.5 399 c 128,-1,84
 336 398 336 398 335.5 396.5 c 128,-1,85
 335 395 335 395 335 394 c 2,86,-1
 321 250 l 2,87,88
 321 247 321 247 319.5 244.5 c 128,-1,89
 318 242 318 242 316 240 c 128,-1,90
 314 238 314 238 311.5 237 c 128,-1,91
 309 236 309 236 305 236 c 0,92,93
 304 236 304 236 303.5 236 c 128,-1,94
 303 236 303 236 302 236 c 128,-1,95
 301 236 301 236 300 236 c 128,-1,96
 299 236 299 236 298 236 c 0,97,98
 295 236 295 236 292.5 237.5 c 128,-1,99
 290 239 290 239 288 241 c 128,-1,100
 286 243 286 243 284.5 245.5 c 128,-1,101
 283 248 283 248 283 251 c 2,102,-1
 280 435 l 2,103,104
 280 439 280 439 279 441.5 c 128,-1,105
 278 444 278 444 276 446 c 128,-1,106
 274 448 274 448 271.5 449 c 128,-1,107
 269 450 269 450 266 450 c 256,108,109
 263 450 263 450 260.5 449 c 128,-1,110
 258 448 258 448 256 446 c 128,-1,111
 254 444 254 444 253 441.5 c 128,-1,112
 252 439 252 439 252 436 c 2,113,-1
 248 237 l 2,114,115
 248 235 248 235 247.5 233 c 128,-1,116
 247 231 247 231 245.5 229.5 c 128,-1,117
 244 228 244 228 242.5 226.5 c 128,-1,118
 241 225 241 225 239 224 c 2,119,120
 239 224 239 224 238 223.5 c 128,-1,121
 237 223 237 223 236.5 222.5 c 128,-1,122
 236 222 236 222 235.5 222 c 128,-1,123
 235 222 235 222 234 221 c 0,124,125
 232 220 232 220 230.5 219.5 c 128,-1,126
 229 219 229 219 227 219 c 128,-1,127
 225 219 225 219 223 219.5 c 128,-1,128
 221 220 221 220 220 221 c 0,129,130
 218 222 218 222 216.5 223 c 128,-1,131
 215 224 215 224 214 226 c 128,-1,132
 213 228 213 228 212.5 229.5 c 128,-1,133
 212 231 212 231 212 233 c 2,134,-1
 196 393 l 2,135,136
 196 395 196 395 195.5 396.5 c 128,-1,137
 195 398 195 398 194.5 399 c 128,-1,138
 194 400 194 400 193 401 c 128,-1,139
 192 402 192 402 191 403 c 256,140,141
 190 404 190 404 188.5 405 c 128,-1,142
 187 406 187 406 186 406 c 128,-1,143
 185 406 185 406 183.5 406.5 c 128,-1,144
 182 407 182 407 181 407 c 0,145,146
 179 406 179 406 178 406 c 128,-1,147
 177 406 177 406 175.5 405 c 128,-1,148
 174 404 174 404 173 403.5 c 128,-1,149
 172 403 172 403 171 402 c 0,150,151
 170 400 170 400 169.5 399 c 128,-1,152
 169 398 169 398 168.5 396.5 c 128,-1,153
 168 395 168 395 168 394 c 128,-1,154
 168 393 168 393 168 391 c 2,155,-1
 183 177 l 2,156,157
 183 175 183 175 182.5 172.5 c 128,-1,158
 182 170 182 170 180.5 168 c 128,-1,159
 179 166 179 166 177.5 164.5 c 128,-1,160
 176 163 176 163 173 162 c 0,161,162
 171 161 171 161 168.5 161 c 128,-1,163
 166 161 166 161 164 161.5 c 128,-1,164
 162 162 162 162 160 163.5 c 128,-1,165
 158 165 158 165 156 167 c 2,166,-1
 109 226 l 2,167,168
 107 230 107 230 104 232.5 c 128,-1,169
 101 235 101 235 97.5 236 c 128,-1,170
 94 237 94 237 90.5 236.5 c 128,-1,171
 87 236 87 236 84 234 c 0,172,173
 83 233 83 233 81.5 232 c 128,-1,174
 80 231 80 231 79 229.5 c 128,-1,175
 78 228 78 228 77 226.5 c 128,-1,176
 76 225 76 225 76 223 c 0,177,178
 75 222 75 222 75 220 c 128,-1,179
 75 218 75 218 75.5 216.5 c 128,-1,180
 76 215 76 215 76.5 213.5 c 128,-1,181
 77 212 77 212 78 210 c 2,182,-1
 184 27 l 2,183,184
 185 25 185 25 186 24 c 128,-1,185
 187 23 187 23 188.5 21.5 c 128,-1,186
 190 20 190 20 191.5 19.5 c 128,-1,187
 193 19 193 19 195 18 c 0,188,189
 198 18 198 18 200 16.5 c 128,-1,190
 202 15 202 15 203.5 13 c 128,-1,191
 205 11 205 11 206 8.5 c 128,-1,192
 207 6 207 6 207 4 c 2,193,-1
 207 -17 l 2,194,195
 207 -20 207 -20 205.5 -23 c 128,-1,196
 204 -26 204 -26 202 -28 c 128,-1,197
 200 -30 200 -30 197.5 -31 c 128,-1,198
 195 -32 195 -32 191 -32 c 0,199,200
 188 -32 188 -32 185.5 -31 c 128,-1,201
 183 -30 183 -30 181 -28 c 128,-1,202
 179 -26 179 -26 177.5 -23 c 128,-1,203
 176 -20 176 -20 176 -17 c 2,204,-1
 176 -6 l 2,205,206
 174 -5 174 -5 171 -3 c 128,-1,207
 168 -1 168 -1 166 1.5 c 128,-1,208
 164 4 164 4 162 6.5 c 128,-1,209
 160 9 160 9 158 12 c 2,210,-1
 52 195 l 2,211,212
 49 199 49 199 47.5 203.5 c 128,-1,213
 46 208 46 208 45.5 212.5 c 128,-1,214
 45 217 45 217 45.5 222 c 128,-1,215
 46 227 46 227 47 231 c 0,216,217
 48 236 48 236 50 240 c 128,-1,218
 52 244 52 244 55 248 c 128,-1,219
 58 252 58 252 61.5 255 c 128,-1,220
 65 258 65 258 69 260 c 0,221,222
 78 265 78 265 87 266 c 128,-1,223
 96 267 96 267 105 265 c 128,-1,224
 114 263 114 263 121.5 257 c 128,-1,225
 129 251 129 251 134 243 c 2,226,-1
 149 224 l 1,227,-1
 138 389 l 2,228,229
 137 393 137 393 137.5 397.5 c 128,-1,230
 138 402 138 402 139.5 406 c 128,-1,231
 141 410 141 410 143 413.5 c 128,-1,232
 145 417 145 417 148 421 c 0,233,234
 151 424 151 424 154.5 427 c 128,-1,235
 158 430 158 430 161.5 432 c 128,-1,236
 165 434 165 434 169.5 435 c 128,-1,237
 174 436 174 436 178 437 c 0,238,239
 183 437 183 437 187 436.5 c 128,-1,240
 191 436 191 436 195 434.5 c 128,-1,241
 199 433 199 433 203 431 c 128,-1,242
 207 429 207 429 210 426 c 0,243,244
 212 425 212 425 213.5 423.5 c 128,-1,245
 215 422 215 422 216.5 420.5 c 128,-1,246
 218 419 218 419 219 417 c 128,-1,247
 220 415 220 415 221 413 c 1,248,-1
 221 436 l 2,249,250
 221 445 221 445 224.5 453 c 128,-1,251
 228 461 228 461 234 467 c 128,-1,252
 240 473 240 473 248 476.5 c 128,-1,253
 256 480 256 480 266 480 c 0,254,255
 275 480 275 480 283 476.5 c 128,-1,256
 291 473 291 473 297 467 c 128,-1,257
 303 461 303 461 306.5 453 c 128,-1,258
 310 445 310 445 310 436 c 2,259,-1
 310 413 l 1,260,261
 311 415 311 415 312.5 417 c 128,-1,262
 314 419 314 419 315 420.5 c 128,-1,263
 316 422 316 422 317.5 423.5 c 128,-1,264
 319 425 319 425 321 426 c 0,265,266
 324 429 324 429 328 431 c 128,-1,267
 332 433 332 433 336 434.5 c 128,-1,268
 340 436 340 436 344.5 436.5 c 128,-1,269
 349 437 349 437 353 437 c 0,270,271
 363 436 363 436 370.5 431.5 c 128,-1,272
 378 427 378 427 383.5 420.5 c 128,-1,273
 389 414 389 414 392 406 c 128,-1,274
 395 398 395 398 394 388 c 2,275,-1
 392 359 l 1,276,277
 392 359 392 359 392.5 359.5 c 128,-1,278
 393 360 393 360 393.5 360 c 128,-1,279
 394 360 394 360 394 360.5 c 128,-1,280
 394 361 394 361 395 361 c 0,281,282
 398 363 398 363 401.5 365 c 128,-1,283
 405 367 405 367 409 368 c 128,-1,284
 413 369 413 369 417 369 c 128,-1,285
 421 369 421 369 425 368 c 0,286,287
 434 367 434 367 441 362.5 c 128,-1,288
 448 358 448 358 452.5 351.5 c 128,-1,289
 457 345 457 345 458.5 336 c 128,-1,290
 460 327 460 327 459 317 c 1,291,-1
 459 317 l 1,0,-1
EndSplineSet
EndChar

StartChar: uniE638
Encoding: 58936 58936 60
Width: 512
GlyphClass: 1
Flags: W
LayerCount: 2
Fore
SplineSet
421 311 m 1,0,-1
 421 135 l 2,1,2
 421 127 421 127 419 119.5 c 128,-1,3
 417 112 417 112 414 106.5 c 128,-1,4
 411 101 411 101 407.5 96.5 c 128,-1,5
 404 92 404 92 401 88 c 0,6,7
 398 85 398 85 396 82 c 128,-1,8
 394 79 394 79 392.5 77 c 128,-1,9
 391 75 391 75 390.5 72.5 c 128,-1,10
 390 70 390 70 390 67 c 2,11,-1
 390 13 l 2,12,13
 390 10 390 10 388.5 7.5 c 128,-1,14
 387 5 387 5 385 2.5 c 128,-1,15
 383 0 383 0 380.5 -1 c 128,-1,16
 378 -2 378 -2 375 -2 c 256,17,18
 372 -2 372 -2 369 -1 c 128,-1,19
 366 0 366 0 364 2.5 c 128,-1,20
 362 5 362 5 361 7.5 c 128,-1,21
 360 10 360 10 360 13 c 2,22,-1
 360 67 l 2,23,24
 360 74 360 74 361.5 80 c 128,-1,25
 363 86 363 86 365.5 90.5 c 128,-1,26
 368 95 368 95 371 99 c 128,-1,27
 374 103 374 103 377 107 c 0,28,29
 380 110 380 110 382.5 113 c 128,-1,30
 385 116 385 116 386.5 119.5 c 128,-1,31
 388 123 388 123 389 127 c 128,-1,32
 390 131 390 131 390 135 c 2,33,-1
 390 311 l 2,34,35
 390 315 390 315 389 318 c 128,-1,36
 388 321 388 321 385.5 324 c 128,-1,37
 383 327 383 327 380 328.5 c 128,-1,38
 377 330 377 330 374 330 c 0,39,40
 370 330 370 330 367.5 329.5 c 128,-1,41
 365 329 365 329 364 329 c 128,-1,42
 363 329 363 329 362.5 328.5 c 128,-1,43
 362 328 362 328 362 328 c 2,44,45
 361 327 361 327 360.5 324 c 128,-1,46
 360 321 360 321 360 317 c 128,-1,47
 360 313 360 313 360 308.5 c 128,-1,48
 360 304 360 304 360 299 c 0,49,50
 360 297 360 297 360 295 c 128,-1,51
 360 293 360 293 360 290.5 c 128,-1,52
 360 288 360 288 360 285.5 c 128,-1,53
 360 283 360 283 360 280 c 256,54,55
 360 277 360 277 358.5 274.5 c 128,-1,56
 357 272 357 272 355 270 c 128,-1,57
 353 268 353 268 350.5 266.5 c 128,-1,58
 348 265 348 265 345 265 c 256,59,60
 342 265 342 265 339 266.5 c 128,-1,61
 336 268 336 268 334 270 c 128,-1,62
 332 272 332 272 331 274.5 c 128,-1,63
 330 277 330 277 330 280 c 2,64,-1
 330 344 l 2,65,66
 330 348 330 348 328.5 351 c 128,-1,67
 327 354 327 354 325 356 c 128,-1,68
 323 358 323 358 320 359 c 128,-1,69
 317 360 317 360 314 360 c 256,70,71
 311 360 311 360 308.5 359 c 128,-1,72
 306 358 306 358 304 356 c 128,-1,73
 302 354 302 354 301 351.5 c 128,-1,74
 300 349 300 349 299 346 c 2,75,-1
 299 285 l 2,76,77
 299 282 299 282 298 279.5 c 128,-1,78
 297 277 297 277 295 275 c 128,-1,79
 293 273 293 273 290 271.5 c 128,-1,80
 287 270 287 270 284 270 c 256,81,82
 281 270 281 270 278.5 271.5 c 128,-1,83
 276 273 276 273 274 275 c 128,-1,84
 272 277 272 277 270.5 279.5 c 128,-1,85
 269 282 269 282 269 285 c 1,86,-1
 269 285 l 1,87,-1
 269 346 l 1,88,89
 269 346 269 346 269 346 c 129,-1,90
 269 346 269 346 269 346 c 129,-1,91
 269 346 269 346 269 346 c 129,-1,92
 269 346 269 346 269 346 c 1,93,-1
 269 370 l 1,94,95
 269 370 269 370 269 373.5 c 128,-1,96
 269 377 269 377 267.5 380 c 128,-1,97
 266 383 266 383 263 386 c 128,-1,98
 260 389 260 389 255 389 c 256,99,100
 250 389 250 389 247 387 c 128,-1,101
 244 385 244 385 242 382 c 128,-1,102
 240 379 240 379 239.5 375.5 c 128,-1,103
 239 372 239 372 239 370 c 2,104,-1
 239 348 l 1,105,106
 239 348 239 348 239 347.5 c 128,-1,107
 239 347 239 347 239 347 c 129,-1,108
 239 347 239 347 239 346.5 c 128,-1,109
 239 346 239 346 239 346 c 1,110,-1
 239 268 l 2,111,112
 239 265 239 265 237.5 262 c 128,-1,113
 236 259 236 259 234 257 c 128,-1,114
 232 255 232 255 229.5 254 c 128,-1,115
 227 253 227 253 224 253 c 256,116,117
 221 253 221 253 218 254 c 128,-1,118
 215 255 215 255 213 257 c 128,-1,119
 211 259 211 259 210 262 c 128,-1,120
 209 265 209 265 209 268 c 1,121,-1
 209 268 l 1,122,-1
 209 349 l 2,123,124
 208 351 208 351 207 353 c 128,-1,125
 206 355 206 355 204.5 356.5 c 128,-1,126
 203 358 203 358 200.5 359 c 128,-1,127
 198 360 198 360 195 360 c 0,128,129
 191 360 191 360 188.5 359 c 128,-1,130
 186 358 186 358 183.5 355.5 c 128,-1,131
 181 353 181 353 180 350 c 128,-1,132
 179 347 179 347 179 343 c 2,133,-1
 179 242 l 1,134,135
 179 242 179 242 179 242 c 129,-1,136
 179 242 179 242 179 242 c 129,-1,137
 179 242 179 242 179 242 c 129,-1,138
 179 242 179 242 179 242 c 1,139,-1
 179 209 l 2,140,141
 179 205 179 205 177.5 202.5 c 128,-1,142
 176 200 176 200 174 198 c 128,-1,143
 172 196 172 196 169.5 195 c 128,-1,144
 167 194 167 194 164 194 c 0,145,146
 160 194 160 194 157.5 195 c 128,-1,147
 155 196 155 196 153 198 c 128,-1,148
 151 200 151 200 149.5 202.5 c 128,-1,149
 148 205 148 205 148 209 c 2,150,-1
 148 234 l 1,151,152
 146 234 146 234 144 235 c 128,-1,153
 142 236 142 236 139.5 236 c 128,-1,154
 137 236 137 236 135 236.5 c 128,-1,155
 133 237 133 237 131 236 c 0,156,157
 130 236 130 236 128.5 235.5 c 128,-1,158
 127 235 127 235 126 233.5 c 128,-1,159
 125 232 125 232 124 231 c 128,-1,160
 123 230 123 230 122 228 c 0,161,162
 121 227 121 227 120.5 225 c 128,-1,163
 120 223 120 223 119.5 220.5 c 128,-1,164
 119 218 119 218 119.5 215 c 128,-1,165
 120 212 120 212 121 209 c 2,166,-1
 173 97 l 1,167,168
 173 97 173 97 173 96.5 c 128,-1,169
 173 96 173 96 173 95.5 c 128,-1,170
 173 95 173 95 173.5 94.5 c 128,-1,171
 174 94 174 94 174 94 c 2,172,173
 174 91 174 91 176 88.5 c 128,-1,174
 178 86 178 86 180 84 c 128,-1,175
 182 82 182 82 185 81 c 128,-1,176
 188 80 188 80 191 81 c 0,177,178
 193 81 193 81 194.5 81 c 128,-1,179
 196 81 196 81 197.5 80.5 c 128,-1,180
 199 80 199 80 200.5 79 c 128,-1,181
 202 78 202 78 203 77 c 256,182,183
 204 76 204 76 205 74.5 c 128,-1,184
 206 73 206 73 206.5 71.5 c 128,-1,185
 207 70 207 70 207.5 68.5 c 128,-1,186
 208 67 208 67 208 66 c 2,187,-1
 208 13 l 2,188,189
 208 10 208 10 207 7.5 c 128,-1,190
 206 5 206 5 204 2.5 c 128,-1,191
 202 0 202 0 199 -1 c 128,-1,192
 196 -2 196 -2 193 -2 c 256,193,194
 190 -2 190 -2 187 -1 c 128,-1,195
 184 0 184 0 182 2.5 c 128,-1,196
 180 5 180 5 179 7.5 c 128,-1,197
 178 10 178 10 178 13 c 2,198,-1
 178 52 l 1,199,200
 172 53 172 53 166.5 56.5 c 128,-1,201
 161 60 161 60 156.5 64 c 128,-1,202
 152 68 152 68 149 73.5 c 128,-1,203
 146 79 146 79 145 86 c 2,204,-1
 94 196 l 2,205,206
 91 202 91 202 90 208 c 128,-1,207
 89 214 89 214 89 219.5 c 128,-1,208
 89 225 89 225 90.5 231 c 128,-1,209
 92 237 92 237 95 242 c 0,210,211
 97 247 97 247 100.5 250.5 c 128,-1,212
 104 254 104 254 108 257.5 c 128,-1,213
 112 261 112 261 116 263 c 128,-1,214
 120 265 120 265 125 266 c 0,215,216
 127 266 127 266 130 266.5 c 128,-1,217
 133 267 133 267 136 266.5 c 128,-1,218
 139 266 139 266 142 266 c 128,-1,219
 145 266 145 266 148 265 c 1,220,-1
 148 287 l 1,221,222
 148 287 148 287 148 287 c 129,-1,223
 148 287 148 287 148.5 287 c 128,-1,224
 149 287 149 287 149 287 c 129,-1,225
 149 287 149 287 149 288 c 2,226,-1
 149 343 l 2,227,228
 149 353 149 353 152.5 361.5 c 128,-1,229
 156 370 156 370 162 376.5 c 128,-1,230
 168 383 168 383 176.5 387 c 128,-1,231
 185 391 185 391 195 391 c 0,232,233
 197 391 197 391 199 390.5 c 128,-1,234
 201 390 201 390 203.5 389.5 c 128,-1,235
 206 389 206 389 208 388.5 c 128,-1,236
 210 388 210 388 212 387 c 1,237,238
 214 394 214 394 218 400 c 128,-1,239
 222 406 222 406 227.5 410 c 128,-1,240
 233 414 233 414 240 416.5 c 128,-1,241
 247 419 247 419 255 419 c 0,242,243
 262 419 262 419 269 416.5 c 128,-1,244
 276 414 276 414 281 410 c 128,-1,245
 286 406 286 406 290 400 c 128,-1,246
 294 394 294 394 297 387 c 1,247,248
 299 388 299 388 301 388.5 c 128,-1,249
 303 389 303 389 305 389.5 c 128,-1,250
 307 390 307 390 309.5 390.5 c 128,-1,251
 312 391 312 391 314 391 c 0,252,253
 322 391 322 391 329 388.5 c 128,-1,254
 336 386 336 386 341.5 381.5 c 128,-1,255
 347 377 347 377 351.5 371 c 128,-1,256
 356 365 356 365 358 358 c 1,257,258
 360 359 360 359 362 359 c 128,-1,259
 364 359 364 359 366 359.5 c 128,-1,260
 368 360 368 360 370 360 c 128,-1,261
 372 360 372 360 374 360 c 0,262,263
 383 360 383 360 391.5 356 c 128,-1,264
 400 352 400 352 406.5 345.5 c 128,-1,265
 413 339 413 339 417 330 c 128,-1,266
 421 321 421 321 421 311 c 1,267,-1
 421 311 l 1,0,-1
EndSplineSet
EndChar

StartChar: uniE639
Encoding: 58937 58937 61
Width: 512
GlyphClass: 1
Flags: W
LayerCount: 2
Fore
SplineSet
241 360 m 1,0,-1
 182 420 l 1,1,-1
 0 420 l 1,2,-1
 0 -32 l 1,3,-1
 512 -32 l 1,4,-1
 512 360 l 1,5,-1
 241 360 l 1,6,-1
 241 360 l 1,0,-1
169 390 m 1,7,-1
 228 329 l 1,8,-1
 482 329 l 1,9,-1
 482 268 l 1,10,-1
 30 269 l 1,11,-1
 30 390 l 1,12,-1
 169 390 l 1,13,-1
 169 390 l 1,7,-1
30 -2 m 1,14,-1
 30 239 l 1,15,-1
 482 238 l 1,16,-1
 482 -2 l 1,17,-1
 30 -2 l 1,18,-1
 30 -2 l 1,14,-1
EndSplineSet
EndChar

StartChar: uniE63A
Encoding: 58938 58938 62
Width: 512
GlyphClass: 1
Flags: W
LayerCount: 2
Fore
SplineSet
392 179 m 1,0,-1
 392 457 l 1,1,-1
 34 318 l 1,2,-1
 392 179 l 1,3,-1
 392 179 l 1,0,-1
361 223 m 1,4,-1
 117 318 l 1,5,-1
 361 413 l 1,6,-1
 361 223 l 1,7,-1
 361 223 l 1,4,-1
452 480 m 1,8,-1
 452 -32 l 1,9,-1
 422 -32 l 1,10,-1
 422 480 l 1,11,-1
 452 480 l 1,12,-1
 452 480 l 1,8,-1
EndSplineSet
EndChar

StartChar: uniE63B
Encoding: 58939 58939 63
Width: 512
GlyphClass: 1
Flags: W
LayerCount: 2
Fore
SplineSet
452 480 m 1,0,-1
 452 -32 l 1,1,-1
 422 -32 l 1,2,-1
 422 480 l 1,3,-1
 452 480 l 1,4,-1
 452 480 l 1,0,-1
46 451 m 1,5,-1
 392 451 l 1,6,-1
 392 210 l 1,7,-1
 45 210 l 1,8,-1
 133 329 l 1,9,-1
 46 451 l 1,10,-1
 46 451 l 1,5,-1
361 420 m 1,11,-1
 105 420 l 1,12,-1
 170 328 l 1,13,-1
 105 240 l 1,14,-1
 361 240 l 1,15,-1
 361 420 l 1,16,-1
 361 420 l 1,11,-1
EndSplineSet
EndChar

StartChar: uniE63C
Encoding: 58940 58940 64
Width: 512
GlyphClass: 1
Flags: W
LayerCount: 2
Fore
SplineSet
452 480 m 1,0,-1
 452 -32 l 1,1,-1
 422 -32 l 1,2,-1
 422 480 l 1,3,-1
 452 480 l 1,4,-1
 452 480 l 1,0,-1
150 450 m 1,5,-1
 391 450 l 1,6,-1
 391 209 l 1,7,-1
 241 209 l 1,8,-1
 241 149 l 1,9,-1
 30 149 l 1,10,-1
 30 390 l 1,11,-1
 150 390 l 1,12,-1
 150 450 l 1,13,-1
 150 450 l 1,5,-1
211 209 m 1,14,-1
 151 209 l 1,15,-1
 151 360 l 1,16,-1
 60 360 l 1,17,-1
 60 179 l 1,18,-1
 211 179 l 1,19,-1
 211 209 l 1,20,-1
 211 209 l 1,14,-1
180 420 m 1,21,-1
 180 390 l 1,22,-1
 181 390 l 1,23,-1
 181 239 l 1,24,-1
 361 239 l 1,25,-1
 361 420 l 1,26,-1
 180 420 l 1,27,-1
 180 420 l 1,21,-1
EndSplineSet
EndChar

StartChar: uniE63D
Encoding: 58941 58941 65
Width: 512
GlyphClass: 1
Flags: W
LayerCount: 2
Fore
SplineSet
511 214 m 1,0,1
 496 251 496 251 470.5 281.5 c 128,-1,2
 445 312 445 312 411.5 333.5 c 128,-1,3
 378 355 378 355 338.5 367 c 128,-1,4
 299 379 299 379 256 379 c 256,5,6
 213 379 213 379 173.5 367 c 128,-1,7
 134 355 134 355 100.5 333.5 c 128,-1,8
 67 312 67 312 41.5 281.5 c 128,-1,9
 16 251 16 251 1 214 c 0,10,11
 1 213 1 213 0.5 211.5 c 128,-1,12
 0 210 0 210 0 209 c 128,-1,13
 0 208 0 208 0.5 206.5 c 128,-1,14
 1 205 1 205 1 203 c 0,15,16
 16 167 16 167 41.5 136.5 c 128,-1,17
 67 106 67 106 100.5 84.5 c 128,-1,18
 134 63 134 63 173.5 51 c 128,-1,19
 213 39 213 39 256 39 c 256,20,21
 299 39 299 39 338.5 51 c 128,-1,22
 378 63 378 63 411.5 84.5 c 128,-1,23
 445 106 445 106 470.5 136.5 c 128,-1,24
 496 167 496 167 511 203 c 0,25,26
 511 205 511 205 511.5 206.5 c 128,-1,27
 512 208 512 208 512 209 c 128,-1,28
 512 210 512 210 511.5 211.5 c 128,-1,29
 511 213 511 213 511 214 c 1,30,-1
 511 214 l 1,0,1
256 69 m 1,31,32
 219 69 219 69 184 79 c 128,-1,33
 149 89 149 89 119.5 107.5 c 128,-1,34
 90 126 90 126 67.5 151.5 c 128,-1,35
 45 177 45 177 31 209 c 1,36,37
 45 240 45 240 67.5 266 c 128,-1,38
 90 292 90 292 119.5 310.5 c 128,-1,39
 149 329 149 329 184 339 c 128,-1,40
 219 349 219 349 256 349 c 256,41,42
 293 349 293 349 328 339 c 128,-1,43
 363 329 363 329 392.5 310.5 c 128,-1,44
 422 292 422 292 444.5 266 c 128,-1,45
 467 240 467 240 481 209 c 1,46,47
 467 177 467 177 444.5 151.5 c 128,-1,48
 422 126 422 126 392.5 107.5 c 128,-1,49
 363 89 363 89 328 79 c 128,-1,50
 293 69 293 69 256 69 c 1,51,-1
 256 69 l 1,31,32
256 319 m 1,52,53
 233 319 233 319 213 310 c 128,-1,54
 193 301 193 301 178.5 286.5 c 128,-1,55
 164 272 164 272 155 252 c 128,-1,56
 146 232 146 232 146 209 c 256,57,58
 146 186 146 186 155 166 c 128,-1,59
 164 146 164 146 178.5 131 c 128,-1,60
 193 116 193 116 213 107.5 c 128,-1,61
 233 99 233 99 256 99 c 256,62,63
 279 99 279 99 299 107.5 c 128,-1,64
 319 116 319 116 333.5 131 c 128,-1,65
 348 146 348 146 357 166 c 128,-1,66
 366 186 366 186 366 209 c 256,67,68
 366 232 366 232 357 252 c 128,-1,69
 348 272 348 272 333.5 286.5 c 128,-1,70
 319 301 319 301 299 310 c 128,-1,71
 279 319 279 319 256 319 c 1,72,-1
 256 319 l 1,52,53
256 129 m 1,73,74
 240 129 240 129 225.5 135.5 c 128,-1,75
 211 142 211 142 200 152.5 c 128,-1,76
 189 163 189 163 182.5 177.5 c 128,-1,77
 176 192 176 192 176 209 c 0,78,79
 176 225 176 225 182.5 239.5 c 128,-1,80
 189 254 189 254 200 265 c 128,-1,81
 211 276 211 276 225.5 282.5 c 128,-1,82
 240 289 240 289 256 289 c 256,83,84
 272 289 272 289 286.5 282.5 c 128,-1,85
 301 276 301 276 312 265 c 128,-1,86
 323 254 323 254 329.5 239.5 c 128,-1,87
 336 225 336 225 336 209 c 0,88,89
 336 192 336 192 329.5 177.5 c 128,-1,90
 323 163 323 163 312 152.5 c 128,-1,91
 301 142 301 142 286.5 135.5 c 128,-1,92
 272 129 272 129 256 129 c 1,93,-1
 256 129 l 1,73,74
256 250 m 1,94,95
 248 250 248 250 240.5 246.5 c 128,-1,96
 233 243 233 243 227.5 237.5 c 128,-1,97
 222 232 222 232 218.5 224.5 c 128,-1,98
 215 217 215 217 215 209 c 0,99,100
 215 200 215 200 218.5 193 c 128,-1,101
 222 186 222 186 227.5 180.5 c 128,-1,102
 233 175 233 175 240.5 171.5 c 128,-1,103
 248 168 248 168 256 168 c 256,104,105
 264 168 264 168 271.5 171.5 c 128,-1,106
 279 175 279 175 284.5 180.5 c 128,-1,107
 290 186 290 186 293.5 193 c 128,-1,108
 297 200 297 200 297 209 c 0,109,110
 297 217 297 217 293.5 224.5 c 128,-1,111
 290 232 290 232 284.5 237.5 c 128,-1,112
 279 243 279 243 271.5 246.5 c 128,-1,113
 264 250 264 250 256 250 c 1,114,-1
 256 250 l 1,94,95
256 198 m 1,115,116
 254 198 254 198 252 199 c 128,-1,117
 250 200 250 200 248.5 201.5 c 128,-1,118
 247 203 247 203 246 205 c 128,-1,119
 245 207 245 207 245 209 c 256,120,121
 245 211 245 211 246 213 c 128,-1,122
 247 215 247 215 248.5 216.5 c 128,-1,123
 250 218 250 218 252 219 c 128,-1,124
 254 220 254 220 256 220 c 256,125,126
 258 220 258 220 260 219 c 128,-1,127
 262 218 262 218 263.5 216.5 c 128,-1,128
 265 215 265 215 266 213 c 128,-1,129
 267 211 267 211 267 209 c 256,130,131
 267 207 267 207 266 205 c 128,-1,132
 265 203 265 203 263.5 201.5 c 128,-1,133
 262 200 262 200 260 199 c 128,-1,134
 258 198 258 198 256 198 c 1,135,-1
 256 198 l 1,115,116
EndSplineSet
EndChar

StartChar: uniE63E
Encoding: 58942 58942 66
Width: 512
GlyphClass: 1
Flags: W
LayerCount: 2
Fore
SplineSet
131 301 m 1,0,-1
 109 322 l 1,1,-1
 256 472 l 1,2,-1
 401 322 l 1,3,-1
 381 301 l 1,4,-1
 270 414 l 1,5,-1
 271 89 l 1,6,-1
 240 89 l 1,7,-1
 241 414 l 1,8,-1
 130 301 l 1,9,-1
 131 301 l 1,0,-1
482 208 m 1,10,-1
 481 13 l 2,11,12
 482 10 482 10 480.5 7.5 c 128,-1,13
 479 5 479 5 477 2.5 c 128,-1,14
 475 0 475 0 472 -1 c 128,-1,15
 469 -2 469 -2 467 -2 c 2,16,-1
 44 -2 l 2,17,18
 42 -2 42 -2 39 -1 c 128,-1,19
 36 0 36 0 34 2.5 c 128,-1,20
 32 5 32 5 30.5 7.5 c 128,-1,21
 29 10 29 10 30 13 c 2,22,-1
 29 208 l 1,23,-1
 0 208 l 1,24,-1
 -1 13 l 2,25,26
 0 4 0 4 3 -4.5 c 128,-1,27
 6 -13 6 -13 12.5 -19 c 128,-1,28
 19 -25 19 -25 27 -28.5 c 128,-1,29
 35 -32 35 -32 45 -32 c 2,30,-1
 466 -32 l 2,31,32
 476 -32 476 -32 484 -28.5 c 128,-1,33
 492 -25 492 -25 498.5 -19 c 128,-1,34
 505 -13 505 -13 508 -4.5 c 128,-1,35
 511 4 511 4 512 13 c 2,36,-1
 511 208 l 1,37,-1
 482 208 l 1,38,-1
 482 208 l 1,10,-1
EndSplineSet
EndChar

StartChar: uniE63F
Encoding: 58943 58943 67
Width: 512
GlyphClass: 1
Flags: W
LayerCount: 2
Fore
SplineSet
181 27 m 1,0,-1
 181 239 l 1,1,-1
 151 239 l 1,2,-1
 151 27 l 1,3,-1
 41 137 l 1,4,-1
 19 115 l 1,5,-1
 166 -31 l 1,6,-1
 312 115 l 1,7,-1
 291 137 l 1,8,-1
 181 27 l 1,9,-1
 181 27 l 1,0,-1
165 12 m 1,10,-1
 166 12 l 1,11,-1
 166 12 l 1,12,-1
 165 12 l 1,13,-1
 165 12 l 1,10,-1
471 311 m 1,14,-1
 361 421 l 1,15,-1
 361 207 l 1,16,-1
 331 207 l 1,17,-1
 331 421 l 1,18,-1
 221 311 l 1,19,-1
 200 333 l 1,20,-1
 346 479 l 1,21,-1
 493 333 l 1,22,-1
 471 311 l 1,23,-1
 471 311 l 1,14,-1
EndSplineSet
EndChar

StartChar: uniE640
Encoding: 58944 58944 68
Width: 512
GlyphClass: 1
Flags: W
LayerCount: 2
Fore
SplineSet
60 149 m 1,0,-1
 452 149 l 1,1,-1
 452 390 l 1,2,-1
 60 390 l 1,3,-1
 60 149 l 1,4,-1
 60 149 l 1,0,-1
90 360 m 1,5,-1
 422 360 l 1,6,-1
 422 179 l 1,7,-1
 90 179 l 1,8,-1
 90 360 l 1,9,-1
 90 360 l 1,5,-1
467 450 m 1,10,-1
 45 450 l 2,11,12
 36 450 36 450 27.5 446.5 c 128,-1,13
 19 443 19 443 13 437.5 c 128,-1,14
 7 432 7 432 3.5 424 c 128,-1,15
 0 416 0 416 0 407 c 2,16,-1
 0 101 l 2,17,18
 0 92 0 92 3.5 84.5 c 128,-1,19
 7 77 7 77 13 71 c 128,-1,20
 19 65 19 65 27.5 61.5 c 128,-1,21
 36 58 36 58 45 58 c 2,22,-1
 467 58 l 2,23,24
 476 58 476 58 484.5 61.5 c 128,-1,25
 493 65 493 65 499 71 c 128,-1,26
 505 77 505 77 508.5 84.5 c 128,-1,27
 512 92 512 92 512 101 c 2,28,-1
 512 407 l 2,29,30
 512 416 512 416 508.5 424 c 128,-1,31
 505 432 505 432 499 437.5 c 128,-1,32
 493 443 493 443 484.5 446.5 c 128,-1,33
 476 450 476 450 467 450 c 1,34,-1
 467 450 l 1,10,-1
482 101 m 1,35,36
 482 99 482 99 481 96.5 c 128,-1,37
 480 94 480 94 477.5 92 c 128,-1,38
 475 90 475 90 472.5 89 c 128,-1,39
 470 88 470 88 467 88 c 2,40,-1
 45 88 l 2,41,42
 42 88 42 88 39.5 89 c 128,-1,43
 37 90 37 90 34.5 92 c 128,-1,44
 32 94 32 94 31 96.5 c 128,-1,45
 30 99 30 99 30 101 c 2,46,-1
 30 407 l 2,47,48
 30 410 30 410 31 412 c 128,-1,49
 32 414 32 414 34.5 416 c 128,-1,50
 37 418 37 418 39.5 419 c 128,-1,51
 42 420 42 420 45 420 c 2,52,-1
 467 420 l 2,53,54
 470 420 470 420 472.5 419 c 128,-1,55
 475 418 475 418 477.5 416 c 128,-1,56
 480 414 480 414 481 412 c 128,-1,57
 482 410 482 410 482 407 c 2,58,-1
 482 101 l 1,59,-1
 482 101 l 1,35,36
151 28 m 1,60,-1
 361 28 l 1,61,-1
 361 -2 l 1,62,-1
 151 -2 l 1,63,-1
 151 28 l 1,64,-1
 151 28 l 1,60,-1
EndSplineSet
EndChar

StartChar: uniE641
Encoding: 58945 58945 69
Width: 512
GlyphClass: 1
Flags: W
LayerCount: 2
Fore
SplineSet
512 450 m 1,0,-1
 444 450 l 1,1,2
 444 452 444 452 444 454 c 128,-1,3
 444 456 444 456 444 457.5 c 128,-1,4
 444 459 444 459 444 461 c 128,-1,5
 444 463 444 463 444 465 c 2,6,-1
 444 480 l 1,7,-1
 68 480 l 1,8,-1
 68 465 l 2,9,10
 68 463 68 463 68 461 c 128,-1,11
 68 459 68 459 68 457.5 c 128,-1,12
 68 456 68 456 68 454 c 128,-1,13
 68 452 68 452 68 450 c 1,14,-1
 0 450 l 1,15,-1
 0 435 l 2,16,17
 0 423 0 423 0.5 410.5 c 128,-1,18
 1 398 1 398 1.5 385.5 c 128,-1,19
 2 373 2 373 3 360.5 c 128,-1,20
 4 348 4 348 6 335 c 0,21,22
 10 302 10 302 17 267.5 c 128,-1,23
 24 233 24 233 34.5 203.5 c 128,-1,24
 45 174 45 174 59 152 c 128,-1,25
 73 130 73 130 90 122 c 0,26,27
 92 121 92 121 94.5 120 c 128,-1,28
 97 119 97 119 99 118.5 c 128,-1,29
 101 118 101 118 103.5 117.5 c 128,-1,30
 106 117 106 117 108 117 c 0,31,32
 111 117 111 117 113.5 117.5 c 128,-1,33
 116 118 116 118 118.5 119 c 128,-1,34
 121 120 121 120 124 121 c 128,-1,35
 127 122 127 122 129 124 c 2,36,-1
 136 128 l 1,37,38
 145 113 145 113 156 101 c 128,-1,39
 167 89 167 89 180.5 80.5 c 128,-1,40
 194 72 194 72 209 66 c 128,-1,41
 224 60 224 60 241 59 c 1,42,-1
 241 -2 l 1,43,-1
 152 -2 l 1,44,-1
 152 -32 l 1,45,-1
 363 -32 l 1,46,-1
 363 -2 l 1,47,-1
 271 -2 l 1,48,-1
 271 58 l 1,49,50
 287 60 287 60 301.5 65 c 128,-1,51
 316 70 316 70 329.5 79 c 128,-1,52
 343 88 343 88 354.5 100 c 128,-1,53
 366 112 366 112 376 128 c 1,54,-1
 383 123 l 2,55,56
 386 122 386 122 388.5 121 c 128,-1,57
 391 120 391 120 393.5 119 c 128,-1,58
 396 118 396 118 398.5 117.5 c 128,-1,59
 401 117 401 117 404 117 c 0,60,61
 406 117 406 117 408.5 117.5 c 128,-1,62
 411 118 411 118 413 118.5 c 128,-1,63
 415 119 415 119 417.5 120 c 128,-1,64
 420 121 420 121 422 122 c 0,65,66
 439 130 439 130 453 152 c 128,-1,67
 467 174 467 174 477.5 203.5 c 128,-1,68
 488 233 488 233 495 267.5 c 128,-1,69
 502 302 502 302 506 335 c 0,70,71
 508 348 508 348 509 360.5 c 128,-1,72
 510 373 510 373 510.5 385.5 c 128,-1,73
 511 398 511 398 511.5 410.5 c 128,-1,74
 512 423 512 423 512 435 c 2,75,-1
 512 450 l 1,76,-1
 512 450 l 1,0,-1
120 154 m 1,77,-1
 113 149 l 2,78,79
 112 148 112 148 111 148 c 128,-1,80
 110 148 110 148 108.5 147.5 c 128,-1,81
 107 147 107 147 106 147.5 c 128,-1,82
 105 148 105 148 103 149 c 0,83,84
 94 153 94 153 84.5 168 c 128,-1,85
 75 183 75 183 65.5 207 c 128,-1,86
 56 231 56 231 48.5 264.5 c 128,-1,87
 41 298 41 298 36 339 c 0,88,89
 35 349 35 349 34 359 c 128,-1,90
 33 369 33 369 32 379.5 c 128,-1,91
 31 390 31 390 30.5 400 c 128,-1,92
 30 410 30 410 30 420 c 1,93,-1
 69 420 l 1,94,95
 70 387 70 387 73 351 c 128,-1,96
 76 315 76 315 82 280 c 128,-1,97
 88 245 88 245 98 211.5 c 128,-1,98
 108 178 108 178 123 150 c 1,99,-1
 120 154 l 1,100,-1
 120 154 l 1,77,-1
256 87 m 1,101,102
 205 87 205 87 174 127 c 128,-1,103
 143 167 143 167 126.5 223.5 c 128,-1,104
 110 280 110 280 104.5 342.5 c 128,-1,105
 99 405 99 405 98 450 c 1,106,-1
 414 450 l 1,107,108
 413 397 413 397 407 333.5 c 128,-1,109
 401 270 401 270 384 215.5 c 128,-1,110
 367 161 367 161 336.5 124 c 128,-1,111
 306 87 306 87 256 87 c 1,112,-1
 256 87 l 1,101,102
476 339 m 1,113,114
 471 298 471 298 463.5 264.5 c 128,-1,115
 456 231 456 231 446.5 207 c 128,-1,116
 437 183 437 183 427.5 168 c 128,-1,117
 418 153 418 153 409 149 c 0,118,119
 407 148 407 148 406 147.5 c 128,-1,120
 405 147 405 147 404 147 c 128,-1,121
 403 147 403 147 401.5 147.5 c 128,-1,122
 400 148 400 148 399 149 c 2,123,-1
 392 154 l 1,124,-1
 388 148 l 1,125,126
 401 171 401 171 410.5 200 c 128,-1,127
 420 229 420 229 427 263 c 128,-1,128
 434 297 434 297 438 336 c 128,-1,129
 442 375 442 375 444 420 c 1,130,-1
 482 420 l 1,131,132
 482 410 482 410 481.5 400 c 128,-1,133
 481 390 481 390 480 379.5 c 128,-1,134
 479 369 479 369 478 359 c 128,-1,135
 477 349 477 349 476 339 c 1,136,-1
 476 339 l 1,113,114
EndSplineSet
EndChar

StartChar: uniE642
Encoding: 58946 58946 70
Width: 512
GlyphClass: 1
Flags: W
LayerCount: 2
Fore
SplineSet
380 277 m 1,0,-1
 257 478 l 1,1,-1
 130 277 l 1,2,-1
 -5 392 l 1,3,-1
 47 -2 l 1,4,-1
 465 -2 l 1,5,-1
 517 392 l 1,6,-1
 380 277 l 1,7,-1
 380 277 l 1,0,-1
74 28 m 1,8,-1
 70 58 l 1,9,-1
 442 58 l 1,10,-1
 438 28 l 1,11,-1
 74 28 l 1,12,-1
 74 28 l 1,8,-1
446 88 m 1,13,-1
 66 88 l 1,14,-1
 35 318 l 1,15,-1
 137 231 l 1,16,-1
 257 421 l 1,17,-1
 373 231 l 1,18,-1
 477 319 l 1,19,-1
 446 88 l 1,20,-1
 446 88 l 1,13,-1
EndSplineSet
EndChar

StartChar: uniE643
Encoding: 58947 58947 71
Width: 512
GlyphClass: 1
Flags: W
LayerCount: 2
Fore
SplineSet
512 435 m 1,0,-1
 512 195 l 2,1,2
 512 185 512 185 508.5 177 c 128,-1,3
 505 169 505 169 499 163 c 128,-1,4
 493 157 493 157 484.5 153.5 c 128,-1,5
 476 150 476 150 467 150 c 2,6,-1
 452 150 l 1,7,-1
 452 180 l 1,8,-1
 467 180 l 2,9,10
 470 180 470 180 472.5 181 c 128,-1,11
 475 182 475 182 477.5 184 c 128,-1,12
 480 186 480 186 481 189 c 128,-1,13
 482 192 482 192 482 195 c 2,14,-1
 482 435 l 2,15,16
 482 438 482 438 481 440.5 c 128,-1,17
 480 443 480 443 477.5 445.5 c 128,-1,18
 475 448 475 448 472.5 449 c 128,-1,19
 470 450 470 450 467 450 c 2,20,-1
 45 450 l 2,21,22
 42 450 42 450 39.5 449 c 128,-1,23
 37 448 37 448 34.5 445.5 c 128,-1,24
 32 443 32 443 31 440.5 c 128,-1,25
 30 438 30 438 30 435 c 2,26,-1
 30 195 l 2,27,28
 30 192 30 192 31 189 c 128,-1,29
 32 186 32 186 34.5 184 c 128,-1,30
 37 182 37 182 39.5 181 c 128,-1,31
 42 180 42 180 45 180 c 2,32,-1
 90 180 l 1,33,-1
 90 93 l 1,34,-1
 144 140 l 1,35,-1
 164 117 l 1,36,-1
 60 26 l 1,37,-1
 60 150 l 1,38,-1
 45 150 l 2,39,40
 36 150 36 150 27.5 153.5 c 128,-1,41
 19 157 19 157 13 163 c 128,-1,42
 7 169 7 169 3.5 177 c 128,-1,43
 0 185 0 185 0 195 c 2,44,-1
 0 435 l 2,45,46
 0 444 0 444 3.5 452.5 c 128,-1,47
 7 461 7 461 13 467 c 128,-1,48
 19 473 19 473 27.5 476.5 c 128,-1,49
 36 480 36 480 45 480 c 2,50,-1
 467 480 l 2,51,52
 476 480 476 480 484.5 476.5 c 128,-1,53
 493 473 493 473 499 467 c 128,-1,54
 505 461 505 461 508.5 452.5 c 128,-1,55
 512 444 512 444 512 435 c 1,56,-1
 512 435 l 1,0,-1
422 193 m 1,57,-1
 422 101 l 2,58,59
 422 92 422 92 418.5 83.5 c 128,-1,60
 415 75 415 75 409 69 c 128,-1,61
 403 63 403 63 394.5 59.5 c 128,-1,62
 386 56 386 56 377 56 c 2,63,-1
 362 56 l 1,64,-1
 362 -36 l 1,65,-1
 252 56 l 1,66,-1
 226 56 l 2,67,68
 217 56 217 56 208.5 59.5 c 128,-1,69
 200 63 200 63 194 69 c 128,-1,70
 188 75 188 75 184.5 83.5 c 128,-1,71
 181 92 181 92 181 101 c 2,72,-1
 181 193 l 2,73,74
 181 202 181 202 184.5 210 c 128,-1,75
 188 218 188 218 194 224.5 c 128,-1,76
 200 231 200 231 208.5 234.5 c 128,-1,77
 217 238 217 238 226 238 c 2,78,-1
 377 238 l 2,79,80
 386 238 386 238 394.5 234.5 c 128,-1,81
 403 231 403 231 409 224.5 c 128,-1,82
 415 218 415 218 418.5 210 c 128,-1,83
 422 202 422 202 422 193 c 1,84,-1
 422 193 l 1,57,-1
392 193 m 1,85,86
 392 196 392 196 391 198.5 c 128,-1,87
 390 201 390 201 388 203 c 128,-1,88
 386 205 386 205 383 206.5 c 128,-1,89
 380 208 380 208 377 208 c 2,90,-1
 226 208 l 2,91,92
 223 208 223 208 220 206.5 c 128,-1,93
 217 205 217 205 215 203 c 128,-1,94
 213 201 213 201 212 198.5 c 128,-1,95
 211 196 211 196 211 193 c 2,96,-1
 211 101 l 2,97,98
 211 98 211 98 212 95 c 128,-1,99
 213 92 213 92 215 90 c 128,-1,100
 217 88 217 88 220 87 c 128,-1,101
 223 86 223 86 226 86 c 2,102,-1
 263 86 l 1,103,-1
 332 28 l 1,104,-1
 332 86 l 1,105,-1
 377 86 l 2,106,107
 380 86 380 86 383 87 c 128,-1,108
 386 88 386 88 388 90 c 128,-1,109
 390 92 390 92 391 95 c 128,-1,110
 392 98 392 98 392 101 c 2,111,-1
 392 193 l 1,112,-1
 392 193 l 1,85,86
EndSplineSet
EndChar

StartChar: uniE644
Encoding: 58948 58948 72
Width: 512
GlyphClass: 1
Flags: W
LayerCount: 2
Fore
SplineSet
467 480 m 1,0,-1
 45 480 l 2,1,2
 36 480 36 480 27.5 476.5 c 128,-1,3
 19 473 19 473 13 467 c 128,-1,4
 7 461 7 461 3.5 452.5 c 128,-1,5
 0 444 0 444 0 435 c 2,6,-1
 0 134 l 2,7,8
 0 124 0 124 3.5 116 c 128,-1,9
 7 108 7 108 13 102 c 128,-1,10
 19 96 19 96 27.5 92 c 128,-1,11
 36 88 36 88 45 88 c 2,12,-1
 60 88 l 1,13,-1
 60 -35 l 1,14,-1
 201 88 l 1,15,-1
 467 88 l 2,16,17
 476 88 476 88 484.5 92 c 128,-1,18
 493 96 493 96 499 102 c 128,-1,19
 505 108 505 108 508.5 116 c 128,-1,20
 512 124 512 124 512 134 c 2,21,-1
 512 435 l 2,22,23
 512 444 512 444 508.5 452.5 c 128,-1,24
 505 461 505 461 499 467 c 128,-1,25
 493 473 493 473 484.5 476.5 c 128,-1,26
 476 480 476 480 467 480 c 1,27,-1
 467 480 l 1,0,-1
482 134 m 1,28,29
 482 131 482 131 481 128 c 128,-1,30
 480 125 480 125 477.5 123 c 128,-1,31
 475 121 475 121 472.5 120 c 128,-1,32
 470 119 470 119 467 119 c 2,33,-1
 190 119 l 1,34,-1
 90 31 l 1,35,-1
 90 119 l 1,36,-1
 45 119 l 2,37,38
 42 119 42 119 39.5 120 c 128,-1,39
 37 121 37 121 34.5 123 c 128,-1,40
 32 125 32 125 31 128 c 128,-1,41
 30 131 30 131 30 134 c 2,42,-1
 30 435 l 2,43,44
 30 438 30 438 31 440.5 c 128,-1,45
 32 443 32 443 34.5 445.5 c 128,-1,46
 37 448 37 448 39.5 449 c 128,-1,47
 42 450 42 450 45 450 c 2,48,-1
 467 450 l 2,49,50
 470 450 470 450 472.5 449 c 128,-1,51
 475 448 475 448 477.5 445.5 c 128,-1,52
 480 443 480 443 481 440.5 c 128,-1,53
 482 438 482 438 482 435 c 2,54,-1
 482 134 l 1,55,-1
 482 134 l 1,28,29
EndSplineSet
EndChar

StartChar: uniE645
Encoding: 58949 58949 73
Width: 512
GlyphClass: 1
Flags: W
LayerCount: 2
Fore
SplineSet
467 480 m 1,0,-1
 45 480 l 2,1,2
 36 480 36 480 27.5 476.5 c 128,-1,3
 19 473 19 473 13 467 c 128,-1,4
 7 461 7 461 3.5 452.5 c 128,-1,5
 0 444 0 444 0 435 c 2,6,-1
 0 134 l 2,7,8
 0 124 0 124 3.5 116 c 128,-1,9
 7 108 7 108 13 102 c 128,-1,10
 19 96 19 96 27.5 92 c 128,-1,11
 36 88 36 88 45 88 c 2,12,-1
 60 88 l 1,13,-1
 60 -35 l 1,14,-1
 201 88 l 1,15,-1
 467 88 l 2,16,17
 476 88 476 88 484.5 92 c 128,-1,18
 493 96 493 96 499 102 c 128,-1,19
 505 108 505 108 508.5 116 c 128,-1,20
 512 124 512 124 512 134 c 2,21,-1
 512 435 l 2,22,23
 512 444 512 444 508.5 452.5 c 128,-1,24
 505 461 505 461 499 467 c 128,-1,25
 493 473 493 473 484.5 476.5 c 128,-1,26
 476 480 476 480 467 480 c 1,27,-1
 467 480 l 1,0,-1
482 134 m 1,28,29
 482 131 482 131 481 128 c 128,-1,30
 480 125 480 125 477.5 123 c 128,-1,31
 475 121 475 121 472.5 120 c 128,-1,32
 470 119 470 119 467 119 c 2,33,-1
 190 119 l 1,34,-1
 90 31 l 1,35,-1
 90 119 l 1,36,-1
 45 119 l 2,37,38
 42 119 42 119 39.5 120 c 128,-1,39
 37 121 37 121 34.5 123 c 128,-1,40
 32 125 32 125 31 128 c 128,-1,41
 30 131 30 131 30 134 c 2,42,-1
 30 435 l 2,43,44
 30 438 30 438 31 440.5 c 128,-1,45
 32 443 32 443 34.5 445.5 c 128,-1,46
 37 448 37 448 39.5 449 c 128,-1,47
 42 450 42 450 45 450 c 2,48,-1
 467 450 l 2,49,50
 470 450 470 450 472.5 449 c 128,-1,51
 475 448 475 448 477.5 445.5 c 128,-1,52
 480 443 480 443 481 440.5 c 128,-1,53
 482 438 482 438 482 435 c 2,54,-1
 482 134 l 1,55,-1
 482 134 l 1,28,29
90 390 m 1,56,-1
 422 390 l 1,57,-1
 422 360 l 1,58,-1
 90 360 l 1,59,-1
 90 390 l 1,60,-1
 90 390 l 1,56,-1
90 329 m 1,61,-1
 422 329 l 1,62,-1
 422 299 l 1,63,-1
 90 299 l 1,64,-1
 90 329 l 1,65,-1
 90 329 l 1,61,-1
90 269 m 1,66,-1
 271 269 l 1,67,-1
 271 239 l 1,68,-1
 90 239 l 1,69,-1
 90 269 l 1,70,-1
 90 269 l 1,66,-1
EndSplineSet
EndChar

StartChar: uniE646
Encoding: 58950 58950 74
Width: 512
GlyphClass: 1
Flags: W
LayerCount: 2
Fore
SplineSet
277 224 m 1,0,-1
 477 24 l 1,1,-1
 456 3 l 1,2,-1
 256 203 l 1,3,-1
 56 3 l 1,4,-1
 35 24 l 1,5,-1
 235 224 l 1,6,-1
 35 424 l 1,7,-1
 56 445 l 1,8,-1
 256 245 l 1,9,-1
 456 445 l 1,10,-1
 477 424 l 1,11,-1
 277 224 l 1,12,-1
 277 224 l 1,0,-1
EndSplineSet
EndChar

StartChar: uniE647
Encoding: 58951 58951 75
Width: 512
GlyphClass: 1
Flags: W
LayerCount: 2
Fore
SplineSet
362 352 m 1,0,-1
 362 96 l 1,1,-1
 332 97 l 1,2,-1
 332 351 l 2,3,4
 332 365 332 365 327.5 376.5 c 128,-1,5
 323 388 323 388 313.5 398.5 c 128,-1,6
 304 409 304 409 289.5 414.5 c 128,-1,7
 275 420 275 420 255 421 c 0,8,9
 233 420 233 420 218.5 413.5 c 128,-1,10
 204 407 204 407 196 396 c 128,-1,11
 188 385 188 385 184.5 373.5 c 128,-1,12
 181 362 181 362 181 351 c 2,13,-1
 181 108 l 1,14,-1
 181 107 l 1,15,-1
 181 64 l 2,16,17
 181 56 181 56 184.5 50 c 128,-1,18
 188 44 188 44 194 38.5 c 128,-1,19
 200 33 200 33 208 30.5 c 128,-1,20
 216 28 216 28 224 27 c 0,21,22
 234 28 234 28 242.5 31 c 128,-1,23
 251 34 251 34 257.5 40 c 128,-1,24
 264 46 264 46 267.5 52 c 128,-1,25
 271 58 271 58 271 65 c 2,26,-1
 271 72 l 1,27,-1
 271 73 l 1,28,-1
 271 302 l 2,29,30
 271 312 271 312 270 317 c 128,-1,31
 269 322 269 322 267 325 c 128,-1,32
 265 328 265 328 262.5 328 c 128,-1,33
 260 328 260 328 257 329 c 0,34,35
 253 328 253 328 250 328 c 128,-1,36
 247 328 247 328 245 325 c 128,-1,37
 243 322 243 322 242 317.5 c 128,-1,38
 241 313 241 313 241 303 c 2,39,-1
 241 149 l 1,40,-1
 211 148 l 1,41,-1
 211 304 l 2,42,43
 211 308 211 308 211.5 318 c 128,-1,44
 212 328 212 328 216.5 336.5 c 128,-1,45
 221 345 221 345 230.5 352 c 128,-1,46
 240 359 240 359 257 358 c 0,47,48
 265 359 265 359 273 356.5 c 128,-1,49
 281 354 281 354 287 348 c 128,-1,50
 293 342 293 342 297.5 330.5 c 128,-1,51
 302 319 302 319 302 303 c 2,52,-1
 301 108 l 1,53,-1
 301 109 l 1,54,-1
 301 64 l 2,55,56
 301 52 301 52 295 39 c 128,-1,57
 289 26 289 26 278 17.5 c 128,-1,58
 267 9 267 9 253 3 c 128,-1,59
 239 -3 239 -3 224 -2 c 0,60,61
 210 -3 210 -3 196.5 2.5 c 128,-1,62
 183 8 183 8 173 17 c 128,-1,63
 163 26 163 26 157 38.5 c 128,-1,64
 151 51 151 51 151 63 c 2,65,-1
 151 66 l 1,66,-1
 151 65 l 1,67,-1
 151 352 l 2,68,69
 151 369 151 369 157 387 c 128,-1,70
 163 405 163 405 176 418.5 c 128,-1,71
 189 432 189 432 208.5 441.5 c 128,-1,72
 228 451 228 451 255 450 c 0,73,74
 281 451 281 451 301 442 c 128,-1,75
 321 433 321 433 334.5 419.5 c 128,-1,76
 348 406 348 406 355 388 c 128,-1,77
 362 370 362 370 362 352 c 1,78,-1
 362 352 l 1,0,-1
EndSplineSet
EndChar

StartChar: uniE648
Encoding: 58952 58952 76
Width: 512
GlyphClass: 1
Flags: W
LayerCount: 2
Fore
SplineSet
493 122 m 1,0,-1
 472 101 l 1,1,-1
 256 316 l 1,2,-1
 42 101 l 1,3,-1
 19 122 l 1,4,-1
 257 359 l 1,5,-1
 493 122 l 1,6,-1
 493 122 l 1,0,-1
EndSplineSet
EndChar

StartChar: uniE649
Encoding: 58953 58953 77
Width: 512
GlyphClass: 1
Flags: W
LayerCount: 2
Fore
SplineSet
398 225 m 1,0,-1
 161 -12 l 1,1,-1
 140 10 l 1,2,-1
 355 225 l 1,3,-1
 140 440 l 1,4,-1
 161 461 l 1,5,-1
 398 225 l 1,6,-1
 398 225 l 1,0,-1
EndSplineSet
EndChar

StartChar: uniE64A
Encoding: 58954 58954 78
Width: 512
GlyphClass: 1
Flags: W
LayerCount: 2
Fore
SplineSet
157 225 m 1,0,-1
 372 10 l 1,1,-1
 351 -12 l 1,2,-1
 114 225 l 1,3,-1
 351 461 l 1,4,-1
 372 440 l 1,5,-1
 157 225 l 1,6,-1
 157 225 l 1,0,-1
EndSplineSet
EndChar

StartChar: uniE64B
Encoding: 58955 58955 79
Width: 512
GlyphClass: 1
Flags: W
LayerCount: 2
Fore
SplineSet
493 327 m 1,0,-1
 256 90 l 1,1,-1
 19 327 l 1,2,-1
 41 347 l 1,3,-1
 256 133 l 1,4,-1
 471 347 l 1,5,-1
 493 327 l 1,6,-1
 493 327 l 1,0,-1
EndSplineSet
EndChar

StartChar: uniE64C
Encoding: 58956 58956 80
Width: 512
GlyphClass: 1
Flags: W
LayerCount: 2
Fore
SplineSet
464 427 m 1,0,-1
 198 21 l 1,1,-1
 50 153 l 1,2,-1
 70 176 l 1,3,-1
 192 66 l 1,4,-1
 439 444 l 1,5,-1
 464 427 l 1,6,-1
 464 427 l 1,0,-1
EndSplineSet
EndChar

StartChar: uniE64D
Encoding: 58957 58957 81
Width: 512
GlyphClass: 1
Flags: W
LayerCount: 2
Fore
SplineSet
422 306 m 1,0,-1
 452 306 l 1,1,-1
 452 -2 l 1,2,-1
 30 -2 l 1,3,-1
 30 420 l 1,4,-1
 283 420 l 1,5,-1
 283 390 l 1,6,-1
 60 390 l 1,7,-1
 60 28 l 1,8,-1
 422 28 l 1,9,-1
 422 306 l 1,10,-1
 422 306 l 1,0,-1
146 235 m 1,11,-1
 125 213 l 1,12,-1
 228 110 l 1,13,-1
 457 457 l 1,14,-1
 432 473 l 1,15,-1
 223 157 l 1,16,-1
 146 235 l 1,17,-1
 146 235 l 1,11,-1
EndSplineSet
EndChar

StartChar: uniE64E
Encoding: 58958 58958 82
Width: 512
GlyphClass: 1
Flags: W
LayerCount: 2
Fore
SplineSet
179 390 m 1,0,-1
 179 420 l 1,1,-1
 92 420 l 1,2,-1
 92 390 l 1,3,-1
 0 390 l 1,4,-1
 0 28 l 1,5,-1
 512 28 l 1,6,-1
 512 390 l 1,7,-1
 179 390 l 1,8,-1
 179 390 l 1,0,-1
482 58 m 1,9,-1
 30 58 l 1,10,-1
 30 269 l 1,11,-1
 228 269 l 1,12,13
 224 263 224 263 220.5 255.5 c 128,-1,14
 217 248 217 248 215 240.5 c 128,-1,15
 213 233 213 233 212 225 c 128,-1,16
 211 217 211 217 211 209 c 0,17,18
 211 184 211 184 220.5 162 c 128,-1,19
 230 140 230 140 246.5 123.5 c 128,-1,20
 263 107 263 107 284.5 97.5 c 128,-1,21
 306 88 306 88 331 88 c 256,22,23
 356 88 356 88 378 97.5 c 128,-1,24
 400 107 400 107 416.5 123.5 c 128,-1,25
 433 140 433 140 442.5 162 c 128,-1,26
 452 184 452 184 452 209 c 0,27,28
 452 217 452 217 450.5 225 c 128,-1,29
 449 233 449 233 447 240.5 c 128,-1,30
 445 248 445 248 442 255.5 c 128,-1,31
 439 263 439 263 435 269 c 1,32,-1
 482 269 l 1,33,-1
 482 58 l 1,34,-1
 482 58 l 1,9,-1
422 209 m 1,35,36
 422 190 422 190 414.5 173.5 c 128,-1,37
 407 157 407 157 395 145 c 128,-1,38
 383 133 383 133 366.5 126 c 128,-1,39
 350 119 350 119 331 119 c 0,40,41
 313 119 313 119 296.5 126 c 128,-1,42
 280 133 280 133 267.5 145 c 128,-1,43
 255 157 255 157 248 173.5 c 128,-1,44
 241 190 241 190 241 209 c 256,45,46
 241 228 241 228 248 244.5 c 128,-1,47
 255 261 255 261 267.5 273 c 128,-1,48
 280 285 280 285 296.5 292 c 128,-1,49
 313 299 313 299 331 299 c 0,50,51
 350 299 350 299 366.5 292 c 128,-1,52
 383 285 383 285 395 273 c 128,-1,53
 407 261 407 261 414.5 244.5 c 128,-1,54
 422 228 422 228 422 209 c 1,55,-1
 422 209 l 1,35,36
410 299 m 1,56,57
 402 306 402 306 393 311.5 c 128,-1,58
 384 317 384 317 374 321 c 128,-1,59
 364 325 364 325 353.5 327 c 128,-1,60
 343 329 343 329 331 329 c 0,61,62
 320 329 320 329 309 327 c 128,-1,63
 298 325 298 325 288.5 321 c 128,-1,64
 279 317 279 317 269.5 311.5 c 128,-1,65
 260 306 260 306 252 299 c 1,66,-1
 30 299 l 1,67,-1
 30 360 l 1,68,-1
 482 360 l 1,69,-1
 482 299 l 1,70,-1
 410 299 l 1,71,-1
 410 299 l 1,56,57
EndSplineSet
EndChar

StartChar: uniE64F
Encoding: 58959 58959 83
Width: 512
GlyphClass: 1
Flags: W
LayerCount: 2
Fore
SplineSet
496 413 m 1,0,-1
 438 413 l 2,1,2
 435 413 435 413 432 412 c 128,-1,3
 429 411 429 411 427 408.5 c 128,-1,4
 425 406 425 406 423.5 403.5 c 128,-1,5
 422 401 422 401 422 397 c 2,6,-1
 422 377 l 1,7,-1
 91 256 l 1,8,-1
 91 264 l 2,9,10
 91 269 91 269 89 273 c 128,-1,11
 87 277 87 277 84 280.5 c 128,-1,12
 81 284 81 284 76.5 286 c 128,-1,13
 72 288 72 288 67 288 c 2,14,-1
 24 288 l 2,15,16
 19 288 19 288 14.5 286 c 128,-1,17
 10 284 10 284 7 280.5 c 128,-1,18
 4 277 4 277 2 273 c 128,-1,19
 0 269 0 269 0 264 c 2,20,-1
 0 123 l 2,21,22
 0 118 0 118 2 113.5 c 128,-1,23
 4 109 4 109 7 106 c 128,-1,24
 10 103 10 103 14.5 101 c 128,-1,25
 19 99 19 99 24 99 c 2,26,-1
 67 99 l 2,27,28
 72 99 72 99 76.5 101 c 128,-1,29
 81 103 81 103 84 106 c 128,-1,30
 87 109 87 109 89 113.5 c 128,-1,31
 91 118 91 118 91 123 c 2,32,-1
 91 133 l 1,33,-1
 122 127 l 2,34,35
 122 125 122 125 121.5 123.5 c 128,-1,36
 121 122 121 122 121 120 c 128,-1,37
 121 118 121 118 121 116 c 128,-1,38
 121 114 121 114 121 112 c 0,39,40
 121 91 121 91 129 72 c 128,-1,41
 137 53 137 53 151.5 39 c 128,-1,42
 166 25 166 25 185 17 c 128,-1,43
 204 9 204 9 226 9 c 0,44,45
 244 9 244 9 261 15 c 128,-1,46
 278 21 278 21 291.5 31.5 c 128,-1,47
 305 42 305 42 314 57 c 128,-1,48
 323 72 323 72 327 89 c 1,49,-1
 422 72 l 1,50,-1
 422 52 l 2,51,52
 422 49 422 49 423.5 46 c 128,-1,53
 425 43 425 43 427 41 c 128,-1,54
 429 39 429 39 432 38 c 128,-1,55
 435 37 435 37 438 37 c 2,56,-1
 496 37 l 2,57,58
 499 37 499 37 502 38 c 128,-1,59
 505 39 505 39 507 41 c 128,-1,60
 509 43 509 43 510.5 46 c 128,-1,61
 512 49 512 49 512 52 c 2,62,-1
 512 397 l 2,63,64
 512 401 512 401 510.5 403.5 c 128,-1,65
 509 406 509 406 507 408.5 c 128,-1,66
 505 411 505 411 502 412 c 128,-1,67
 499 413 499 413 496 413 c 1,68,-1
 496 413 l 1,0,-1
226 39 m 1,69,70
 210 39 210 39 196.5 44.5 c 128,-1,71
 183 50 183 50 173 60 c 128,-1,72
 163 70 163 70 157 83.5 c 128,-1,73
 151 97 151 97 151 112 c 0,74,75
 151 114 151 114 151 115 c 128,-1,76
 151 116 151 116 151.5 117 c 128,-1,77
 152 118 152 118 152 119 c 128,-1,78
 152 120 152 120 152 122 c 1,79,-1
 298 95 l 1,80,81
 295 83 295 83 288 72.5 c 128,-1,82
 281 62 281 62 271.5 54.5 c 128,-1,83
 262 47 262 47 250.5 43 c 128,-1,84
 239 39 239 39 226 39 c 1,85,-1
 226 39 l 1,69,70
482 67 m 1,86,-1
 452 67 l 1,87,-1
 452 97 l 1,88,-1
 61 169 l 1,89,-1
 61 129 l 1,90,-1
 30 129 l 1,91,-1
 30 257 l 1,92,-1
 61 257 l 1,93,-1
 61 213 l 1,94,-1
 452 356 l 1,95,-1
 452 383 l 1,96,-1
 482 383 l 1,97,-1
 482 67 l 1,98,-1
 482 67 l 1,86,-1
EndSplineSet
EndChar

StartChar: uniE650
Encoding: 58960 58960 84
Width: 512
GlyphClass: 1
Flags: W
LayerCount: 2
Fore
SplineSet
479 426 m 1,0,-1
 283 140 l 1,1,-1
 259 157 l 1,2,-1
 454 443 l 1,3,-1
 479 426 l 1,4,-1
 479 426 l 1,0,-1
271 59 m 1,5,6
 271 46 271 46 266.5 35 c 128,-1,7
 262 24 262 24 253.5 16 c 128,-1,8
 245 8 245 8 234 3 c 128,-1,9
 223 -2 223 -2 211 -2 c 0,10,11
 209 -2 209 -2 206 -2 c 128,-1,12
 203 -2 203 -2 200.5 -2 c 128,-1,13
 198 -2 198 -2 196.5 -2 c 128,-1,14
 195 -2 195 -2 195 -2 c 1,15,-1
 30 -2 l 1,16,-1
 167 101 l 2,17,18
 169 102 169 102 173.5 105 c 128,-1,19
 178 108 178 108 184 111 c 128,-1,20
 190 114 190 114 197 116.5 c 128,-1,21
 204 119 204 119 211 119 c 0,22,23
 223 119 223 119 234 114 c 128,-1,24
 245 109 245 109 253.5 101 c 128,-1,25
 262 93 262 93 266.5 82 c 128,-1,26
 271 71 271 71 271 59 c 1,27,-1
 271 59 l 1,5,6
241 59 m 1,28,29
 241 65 241 65 238.5 70.5 c 128,-1,30
 236 76 236 76 232 80 c 128,-1,31
 228 84 228 84 222.5 86.5 c 128,-1,32
 217 89 217 89 211 89 c 0,33,34
 209 89 209 89 206 88 c 128,-1,35
 203 87 203 87 199.5 85 c 128,-1,36
 196 83 196 83 192 81 c 128,-1,37
 188 79 188 79 185 77 c 2,38,-1
 120 28 l 1,39,-1
 194 28 l 1,40,41
 194 28 194 28 196 28 c 128,-1,42
 198 28 198 28 200.5 28 c 128,-1,43
 203 28 203 28 206 28 c 128,-1,44
 209 28 209 28 211 28 c 0,45,46
 217 28 217 28 222.5 30.5 c 128,-1,47
 228 33 228 33 232 37 c 128,-1,48
 236 41 236 41 238.5 46.5 c 128,-1,49
 241 52 241 52 241 59 c 1,50,-1
 241 59 l 1,28,29
EndSplineSet
EndChar

StartChar: uniE651
Encoding: 58961 58961 85
Width: 512
GlyphClass: 1
Flags: W
LayerCount: 2
Fore
SplineSet
211 88 m 1,0,-1
 211 133 l 1,1,-1
 241 134 l 1,2,-1
 241 118 l 1,3,-1
 271 119 l 1,4,-1
 271 133 l 1,5,-1
 301 134 l 1,6,-1
 301 87 l 1,7,-1
 211 88 l 1,8,-1
 211 88 l 1,0,-1
512 148 m 1,9,-1
 482 149 l 1,10,-1
 482 -33 l 1,11,-1
 30 -32 l 1,12,-1
 30 148 l 1,13,-1
 0 149 l 1,14,-1
 0 389 l 1,15,-1
 109 390 l 1,16,17
 119 409 119 409 135 426.5 c 128,-1,18
 151 444 151 444 170 455 c 128,-1,19
 189 466 189 466 211 473 c 128,-1,20
 233 480 233 480 256 479 c 0,21,22
 279 480 279 480 301 473 c 128,-1,23
 323 466 323 466 342.5 455 c 128,-1,24
 362 444 362 444 377.5 426.5 c 128,-1,25
 393 409 393 409 403 390 c 1,26,-1
 512 389 l 1,27,-1
 512 149 l 1,28,-1
 512 148 l 1,9,-1
144 389 m 1,29,-1
 368 390 l 1,30,31
 359 403 359 403 347 414.5 c 128,-1,32
 335 426 335 426 320.5 433.5 c 128,-1,33
 306 441 306 441 289.5 445.5 c 128,-1,34
 273 450 273 450 256 449 c 0,35,36
 239 450 239 450 222.5 445 c 128,-1,37
 206 440 206 440 192 433 c 128,-1,38
 178 426 178 426 165.5 414.5 c 128,-1,39
 153 403 153 403 144 390 c 1,40,-1
 144 389 l 1,29,-1
452 148 m 1,41,-1
 60 149 l 1,42,-1
 60 -3 l 1,43,-1
 452 -2 l 1,44,-1
 452 148 l 1,45,-1
 452 148 l 1,41,-1
482 360 m 1,46,-1
 30 359 l 1,47,-1
 30 179 l 1,48,-1
 482 178 l 1,49,-1
 482 360 l 1,50,-1
 482 360 l 1,46,-1
EndSplineSet
EndChar

StartChar: uniE652
Encoding: 58962 58962 86
Width: 512
GlyphClass: 1
Flags: W
LayerCount: 2
Fore
SplineSet
431 419 m 1,0,-1
 216 419 l 1,1,-1
 145 208 l 1,2,-1
 196 208 l 1,3,-1
 135 26 l 1,4,-1
 421 268 l 1,5,-1
 333 268 l 1,6,-1
 431 419 l 1,7,-1
 431 419 l 1,0,-1
339 238 m 1,8,-1
 198 118 l 1,9,-1
 237 238 l 1,10,-1
 187 238 l 1,11,-1
 237 389 l 1,12,-1
 376 389 l 1,13,-1
 278 238 l 1,14,-1
 339 238 l 1,15,-1
 339 238 l 1,8,-1
EndSplineSet
EndChar

StartChar: uniE653
Encoding: 58963 58963 87
Width: 512
GlyphClass: 1
Flags: W
LayerCount: 2
Fore
SplineSet
356 239 m 1,0,-1
 241 21 l 1,1,-1
 214 35 l 1,2,-1
 306 209 l 1,3,-1
 152 209 l 1,4,-1
 300 428 l 1,5,-1
 325 411 l 1,6,-1
 209 239 l 1,7,-1
 356 239 l 1,8,-1
 356 239 l 1,0,-1
EndSplineSet
EndChar

StartChar: uniE654
Encoding: 58964 58964 88
Width: 512
GlyphClass: 1
Flags: W
LayerCount: 2
Fore
SplineSet
271 420 m 1,0,-1
 271 480 l 1,1,-1
 241 480 l 1,2,-1
 241 420 l 1,3,-1
 30 420 l 1,4,-1
 30 119 l 1,5,-1
 482 119 l 1,6,-1
 482 420 l 1,7,-1
 271 420 l 1,8,-1
 271 420 l 1,0,-1
452 149 m 1,9,-1
 60 149 l 1,10,-1
 60 390 l 1,11,-1
 452 390 l 1,12,-1
 452 149 l 1,13,-1
 452 149 l 1,9,-1
105 88 m 1,14,-1
 407 88 l 1,15,-1
 407 58 l 1,16,-1
 329 58 l 1,17,-1
 374 -12 l 1,18,-1
 349 -28 l 1,19,-1
 293 58 l 1,20,-1
 271 58 l 1,21,-1
 271 -32 l 1,22,-1
 241 -32 l 1,23,-1
 241 58 l 1,24,-1
 219 58 l 1,25,-1
 163 -28 l 1,26,-1
 138 -12 l 1,27,-1
 184 58 l 1,28,-1
 105 58 l 1,29,-1
 105 88 l 1,30,-1
 105 88 l 1,14,-1
EndSplineSet
EndChar

StartChar: uniE655
Encoding: 58965 58965 89
Width: 512
GlyphClass: 1
Flags: W
LayerCount: 2
Fore
SplineSet
392 360 m 1,0,-1
 392 432 l 2,1,2
 392 442 392 442 388 450.5 c 128,-1,3
 384 459 384 459 377 465.5 c 128,-1,4
 370 472 370 472 361 476 c 128,-1,5
 352 480 352 480 342 480 c 2,6,-1
 170 480 l 2,7,8
 160 480 160 480 151 476 c 128,-1,9
 142 472 142 472 135.5 465.5 c 128,-1,10
 129 459 129 459 125 450.5 c 128,-1,11
 121 442 121 442 121 432 c 2,12,-1
 121 360 l 1,13,-1
 30 360 l 1,14,-1
 30 -32 l 1,15,-1
 482 -32 l 1,16,-1
 482 360 l 1,17,-1
 392 360 l 1,18,-1
 392 360 l 1,0,-1
151 432 m 1,19,20
 151 435 151 435 152.5 438.5 c 128,-1,21
 154 442 154 442 156.5 444.5 c 128,-1,22
 159 447 159 447 162.5 448.5 c 128,-1,23
 166 450 166 450 170 450 c 2,24,-1
 342 450 l 2,25,26
 346 450 346 450 349.5 448.5 c 128,-1,27
 353 447 353 447 355.5 444.5 c 128,-1,28
 358 442 358 442 359.5 438.5 c 128,-1,29
 361 435 361 435 361 432 c 2,30,-1
 361 360 l 1,31,-1
 151 360 l 1,32,-1
 151 432 l 1,33,-1
 151 432 l 1,19,20
452 -2 m 1,34,-1
 60 -2 l 1,35,-1
 60 239 l 1,36,-1
 452 239 l 1,37,-1
 452 -2 l 1,38,-1
 452 -2 l 1,34,-1
452 269 m 1,39,-1
 60 269 l 1,40,-1
 60 329 l 1,41,-1
 121 329 l 1,42,-1
 121 310 l 1,43,-1
 151 310 l 1,44,-1
 151 329 l 1,45,-1
 361 329 l 1,46,-1
 361 310 l 1,47,-1
 392 310 l 1,48,-1
 392 329 l 1,49,-1
 452 329 l 1,50,-1
 452 269 l 1,51,-1
 452 269 l 1,39,-1
EndSplineSet
EndChar

StartChar: uniE656
Encoding: 58966 58966 90
Width: 512
GlyphClass: 1
Flags: W
LayerCount: 2
Fore
SplineSet
410 138 m 1,0,-1
 389 159 l 1,1,-1
 438 209 l 1,2,-1
 272 208 l 1,3,-1
 271 42 l 1,4,-1
 321 91 l 1,5,-1
 342 70 l 1,6,-1
 257 -17 l 1,7,-1
 170 70 l 1,8,-1
 193 91 l 1,9,-1
 241 42 l 1,10,-1
 242 208 l 1,11,-1
 74 209 l 1,12,-1
 125 159 l 1,13,-1
 102 138 l 1,14,-1
 17 223 l 1,15,-1
 102 310 l 1,16,-1
 125 287 l 1,17,-1
 74 239 l 1,18,-1
 242 238 l 1,19,-1
 241 406 l 1,20,-1
 193 355 l 1,21,-1
 170 378 l 1,22,-1
 257 463 l 1,23,-1
 342 378 l 1,24,-1
 321 355 l 1,25,-1
 271 406 l 1,26,-1
 272 238 l 1,27,-1
 438 239 l 1,28,-1
 389 287 l 1,29,-1
 410 310 l 1,30,-1
 497 223 l 1,31,-1
 410 138 l 1,32,-1
 410 138 l 1,0,-1
EndSplineSet
EndChar

StartChar: uniE657
Encoding: 58967 58967 91
Width: 512
GlyphClass: 1
Flags: W
LayerCount: 2
Fore
SplineSet
351 117 m 1,0,-1
 373 96 l 1,1,-1
 256 -23 l 1,2,-1
 141 96 l 1,3,-1
 161 117 l 1,4,-1
 242 35 l 1,5,-1
 241 413 l 1,6,-1
 162 331 l 1,7,-1
 140 352 l 1,8,-1
 257 471 l 1,9,-1
 372 352 l 1,10,-1
 352 331 l 1,11,-1
 271 413 l 1,12,-1
 272 35 l 1,13,-1
 351 117 l 1,14,-1
 351 117 l 1,0,-1
EndSplineSet
EndChar

StartChar: uniE658
Encoding: 58968 58968 92
Width: 512
GlyphClass: 1
Flags: W
LayerCount: 2
Fore
SplineSet
503 224 m 1,0,-1
 384 108 l 1,1,-1
 363 129 l 1,2,-1
 445 209 l 1,3,-1
 67 209 l 1,4,-1
 149 129 l 1,5,-1
 128 108 l 1,6,-1
 9 224 l 1,7,-1
 128 340 l 1,8,-1
 149 319 l 1,9,-1
 67 239 l 1,10,-1
 445 239 l 1,11,-1
 363 319 l 1,12,-1
 384 340 l 1,13,-1
 503 224 l 1,14,-1
 503 224 l 1,0,-1
EndSplineSet
EndChar

StartChar: uniE659
Encoding: 58969 58969 93
Width: 512
GlyphClass: 1
Flags: W
LayerCount: 2
Fore
SplineSet
482 138 m 1,0,-1
 482 -2 l 1,1,-1
 342 -2 l 1,2,-1
 342 28 l 1,3,-1
 430 28 l 1,4,-1
 256 203 l 1,5,-1
 82 28 l 1,6,-1
 170 28 l 1,7,-1
 170 -2 l 1,8,-1
 30 -2 l 1,9,-1
 30 138 l 1,10,-1
 60 138 l 1,11,-1
 60 50 l 1,12,-1
 235 224 l 1,13,-1
 60 398 l 1,14,-1
 60 310 l 1,15,-1
 30 310 l 1,16,-1
 30 450 l 1,17,-1
 170 450 l 1,18,-1
 170 420 l 1,19,-1
 82 420 l 1,20,-1
 256 245 l 1,21,-1
 430 420 l 1,22,-1
 342 420 l 1,23,-1
 342 450 l 1,24,-1
 482 450 l 1,25,-1
 482 310 l 1,26,-1
 452 310 l 1,27,-1
 452 398 l 1,28,-1
 277 224 l 1,29,-1
 452 50 l 1,30,-1
 452 138 l 1,31,-1
 482 138 l 1,32,-1
 482 138 l 1,0,-1
EndSplineSet
EndChar

StartChar: uniE65A
Encoding: 58970 58970 94
Width: 512
GlyphClass: 1
Flags: W
LayerCount: 2
Fore
SplineSet
482 450 m 1,0,-1
 482 179 l 1,1,-1
 452 179 l 1,2,-1
 452 399 l 1,3,-1
 141 88 l 1,4,-1
 120 110 l 1,5,-1
 430 420 l 1,6,-1
 210 420 l 1,7,-1
 210 450 l 1,8,-1
 482 450 l 1,9,-1
 482 450 l 1,0,-1
EndSplineSet
EndChar

StartChar: uniE65B
Encoding: 58971 58971 95
Width: 512
GlyphClass: 1
Flags: W
LayerCount: 2
Fore
SplineSet
370 88 m 1,0,-1
 59 398 l 1,1,-1
 59 179 l 1,2,-1
 29 178 l 1,3,-1
 29 450 l 1,4,-1
 301 449 l 1,5,-1
 301 420 l 1,6,-1
 81 419 l 1,7,-1
 391 110 l 1,8,-1
 370 87 l 1,9,-1
 370 88 l 1,0,-1
EndSplineSet
EndChar

StartChar: uniE65C
Encoding: 58972 58972 96
Width: 512
GlyphClass: 1
Flags: W
LayerCount: 2
Fore
SplineSet
256 306 m 1,0,-1
 387 175 l 1,1,-1
 366 153 l 1,2,-1
 256 264 l 1,3,-1
 146 153 l 1,4,-1
 125 175 l 1,5,-1
 256 306 l 1,6,-1
 256 306 l 1,0,-1
512 225 m 1,7,8
 512 171 512 171 492 125 c 128,-1,9
 472 79 472 79 437 43.5 c 128,-1,10
 402 8 402 8 355.5 -11.5 c 128,-1,11
 309 -31 309 -31 256 -32 c 0,12,13
 203 -31 203 -31 156.5 -11.5 c 128,-1,14
 110 8 110 8 75 43.5 c 128,-1,15
 40 79 40 79 20 125 c 128,-1,16
 0 171 0 171 0 225 c 0,17,18
 0 277 0 277 20 324 c 128,-1,19
 40 371 40 371 75 405.5 c 128,-1,20
 110 440 110 440 156.5 460.5 c 128,-1,21
 203 481 203 481 256 480 c 0,22,23
 309 481 309 481 355.5 460.5 c 128,-1,24
 402 440 402 440 437 405.5 c 128,-1,25
 472 371 472 371 492 324 c 128,-1,26
 512 277 512 277 512 225 c 1,27,-1
 512 225 l 1,7,8
482 224 m 1,28,29
 482 272 482 272 464 312.5 c 128,-1,30
 446 353 446 353 415.5 384 c 128,-1,31
 385 415 385 415 344 432.5 c 128,-1,32
 303 450 303 450 256 451 c 0,33,34
 209 450 209 450 168 432.5 c 128,-1,35
 127 415 127 415 96.5 384 c 128,-1,36
 66 353 66 353 48 312.5 c 128,-1,37
 30 272 30 272 30 224 c 0,38,39
 30 178 30 178 48 136.5 c 128,-1,40
 66 95 66 95 96.5 65 c 128,-1,41
 127 35 127 35 168 16.5 c 128,-1,42
 209 -2 209 -2 256 -1 c 0,43,44
 303 -2 303 -2 344 16.5 c 128,-1,45
 385 35 385 35 415.5 65 c 128,-1,46
 446 95 446 95 464 136.5 c 128,-1,47
 482 178 482 178 482 224 c 1,48,-1
 482 224 l 1,28,29
EndSplineSet
EndChar

StartChar: uniE65D
Encoding: 58973 58973 97
Width: 512
GlyphClass: 1
Flags: W
LayerCount: 2
Fore
SplineSet
206 355 m 1,0,-1
 337 224 l 1,1,-1
 206 93 l 1,2,-1
 184 114 l 1,3,-1
 295 224 l 1,4,-1
 184 334 l 1,5,-1
 206 355 l 1,6,-1
 206 355 l 1,0,-1
511 224 m 1,7,8
 512 171 512 171 491.5 124.5 c 128,-1,9
 471 78 471 78 436.5 43 c 128,-1,10
 402 8 402 8 355 -12 c 128,-1,11
 308 -32 308 -32 256 -32 c 0,12,13
 202 -32 202 -32 156 -12 c 128,-1,14
 110 8 110 8 74.5 43 c 128,-1,15
 39 78 39 78 19.5 124.5 c 128,-1,16
 0 171 0 171 -1 224 c 0,17,18
 0 277 0 277 19.5 323.5 c 128,-1,19
 39 370 39 370 74.5 405 c 128,-1,20
 110 440 110 440 156 460 c 128,-1,21
 202 480 202 480 256 480 c 0,22,23
 308 480 308 480 355 460 c 128,-1,24
 402 440 402 440 436.5 405 c 128,-1,25
 471 370 471 370 491.5 323.5 c 128,-1,26
 512 277 512 277 511 224 c 1,27,-1
 511 224 l 1,7,8
482 224 m 1,28,29
 481 271 481 271 463.5 312 c 128,-1,30
 446 353 446 353 415 383.5 c 128,-1,31
 384 414 384 414 343.5 432 c 128,-1,32
 303 450 303 450 255 450 c 0,33,34
 209 450 209 450 167.5 432 c 128,-1,35
 126 414 126 414 96 383.5 c 128,-1,36
 66 353 66 353 47.5 312 c 128,-1,37
 29 271 29 271 30 224 c 0,38,39
 29 177 29 177 47.5 136 c 128,-1,40
 66 95 66 95 96 64.5 c 128,-1,41
 126 34 126 34 167.5 16 c 128,-1,42
 209 -2 209 -2 255 -2 c 0,43,44
 303 -2 303 -2 343.5 16 c 128,-1,45
 384 34 384 34 415 64.5 c 128,-1,46
 446 95 446 95 463.5 136 c 128,-1,47
 481 177 481 177 482 224 c 1,48,-1
 482 224 l 1,28,29
EndSplineSet
EndChar

StartChar: uniE65E
Encoding: 58974 58974 98
Width: 512
GlyphClass: 1
Flags: W
LayerCount: 2
Fore
SplineSet
327 334 m 1,0,-1
 217 224 l 1,1,-1
 327 114 l 1,2,-1
 306 93 l 1,3,-1
 174 224 l 1,4,-1
 306 355 l 1,5,-1
 327 334 l 1,6,-1
 327 334 l 1,0,-1
512 224 m 1,7,8
 512 171 512 171 492 124.5 c 128,-1,9
 472 78 472 78 437 43 c 128,-1,10
 402 8 402 8 355.5 -12 c 128,-1,11
 309 -32 309 -32 256 -32 c 256,12,13
 203 -32 203 -32 156.5 -12 c 128,-1,14
 110 8 110 8 75 43 c 128,-1,15
 40 78 40 78 20 124.5 c 128,-1,16
 0 171 0 171 0 224 c 256,17,18
 0 277 0 277 20 323.5 c 128,-1,19
 40 370 40 370 75 405 c 128,-1,20
 110 440 110 440 156.5 460 c 128,-1,21
 203 480 203 480 256 480 c 256,22,23
 309 480 309 480 355.5 460 c 128,-1,24
 402 440 402 440 437 405 c 128,-1,25
 472 370 472 370 492 323.5 c 128,-1,26
 512 277 512 277 512 224 c 1,27,-1
 512 224 l 1,7,8
482 224 m 1,28,29
 482 271 482 271 464 312 c 128,-1,30
 446 353 446 353 415.5 383.5 c 128,-1,31
 385 414 385 414 344 432 c 128,-1,32
 303 450 303 450 256 450 c 256,33,34
 209 450 209 450 168 432 c 128,-1,35
 127 414 127 414 96.5 383.5 c 128,-1,36
 66 353 66 353 48 312 c 128,-1,37
 30 271 30 271 30 224 c 256,38,39
 30 177 30 177 48 136 c 128,-1,40
 66 95 66 95 96.5 64.5 c 128,-1,41
 127 34 127 34 168 16 c 128,-1,42
 209 -2 209 -2 256 -2 c 256,43,44
 303 -2 303 -2 344 16 c 128,-1,45
 385 34 385 34 415.5 64.5 c 128,-1,46
 446 95 446 95 464 136 c 128,-1,47
 482 177 482 177 482 224 c 1,48,-1
 482 224 l 1,28,29
EndSplineSet
EndChar

StartChar: uniE65F
Encoding: 58975 58975 99
Width: 512
GlyphClass: 1
Flags: W
LayerCount: 2
Fore
SplineSet
366 295 m 1,0,-1
 387 274 l 1,1,-1
 256 142 l 1,2,-1
 125 274 l 1,3,-1
 146 295 l 1,4,-1
 256 185 l 1,5,-1
 366 295 l 1,6,-1
 366 295 l 1,0,-1
512 224 m 1,7,8
 512 171 512 171 492 124.5 c 128,-1,9
 472 78 472 78 437 43 c 128,-1,10
 402 8 402 8 355.5 -12 c 128,-1,11
 309 -32 309 -32 256 -32 c 256,12,13
 203 -32 203 -32 156.5 -12 c 128,-1,14
 110 8 110 8 75 43 c 128,-1,15
 40 78 40 78 20 124.5 c 128,-1,16
 0 171 0 171 0 224 c 256,17,18
 0 277 0 277 20 323.5 c 128,-1,19
 40 370 40 370 75 405 c 128,-1,20
 110 440 110 440 156.5 460 c 128,-1,21
 203 480 203 480 256 480 c 256,22,23
 309 480 309 480 355.5 460 c 128,-1,24
 402 440 402 440 437 405 c 128,-1,25
 472 370 472 370 492 323.5 c 128,-1,26
 512 277 512 277 512 224 c 1,27,-1
 512 224 l 1,7,8
482 224 m 1,28,29
 482 271 482 271 464 312 c 128,-1,30
 446 353 446 353 415.5 383.5 c 128,-1,31
 385 414 385 414 344 432 c 128,-1,32
 303 450 303 450 256 450 c 256,33,34
 209 450 209 450 168 432 c 128,-1,35
 127 414 127 414 96.5 383.5 c 128,-1,36
 66 353 66 353 48 312 c 128,-1,37
 30 271 30 271 30 224 c 256,38,39
 30 177 30 177 48 136 c 128,-1,40
 66 95 66 95 96.5 64.5 c 128,-1,41
 127 34 127 34 168 16 c 128,-1,42
 209 -2 209 -2 256 -2 c 256,43,44
 303 -2 303 -2 344 16 c 128,-1,45
 385 34 385 34 415.5 64.5 c 128,-1,46
 446 95 446 95 464 136 c 128,-1,47
 482 177 482 177 482 224 c 1,48,-1
 482 224 l 1,28,29
EndSplineSet
EndChar

StartChar: uniE660
Encoding: 58976 58976 100
Width: 512
GlyphClass: 1
Flags: W
LayerCount: 2
Fore
SplineSet
256 297 m 1,0,-1
 462 91 l 1,1,-1
 441 69 l 1,2,-1
 256 255 l 1,3,-1
 71 69 l 1,4,-1
 50 91 l 1,5,-1
 256 297 l 1,6,-1
 256 297 l 1,0,-1
256 400 m 1,7,-1
 441 215 l 1,8,-1
 462 237 l 1,9,-1
 256 443 l 1,10,-1
 50 237 l 1,11,-1
 71 215 l 1,12,-1
 256 400 l 1,13,-1
 256 400 l 1,7,-1
EndSplineSet
EndChar

StartChar: uniE661
Encoding: 58977 58977 101
Width: 512
GlyphClass: 1
Flags: W
LayerCount: 2
Fore
SplineSet
290 224 m 1,0,-1
 84 18 l 1,1,-1
 63 39 l 1,2,-1
 248 224 l 1,3,-1
 63 409 l 1,4,-1
 84 430 l 1,5,-1
 290 224 l 1,6,-1
 290 224 l 1,0,-1
230 430 m 1,7,-1
 209 409 l 1,8,-1
 394 224 l 1,9,-1
 209 39 l 1,10,-1
 230 18 l 1,11,-1
 436 224 l 1,12,-1
 230 430 l 1,13,-1
 230 430 l 1,7,-1
EndSplineSet
EndChar

StartChar: uniE662
Encoding: 58978 58978 102
Width: 512
GlyphClass: 1
Flags: W
LayerCount: 2
Fore
SplineSet
241 224 m 1,0,-1
 426 39 l 1,1,-1
 404 18 l 1,2,-1
 198 224 l 1,3,-1
 404 430 l 1,4,-1
 426 409 l 1,5,-1
 241 224 l 1,6,-1
 241 224 l 1,0,-1
280 409 m 1,7,-1
 259 430 l 1,8,-1
 52 224 l 1,9,-1
 258 18 l 1,10,-1
 280 39 l 1,11,-1
 94 224 l 1,12,-1
 280 409 l 1,13,-1
 280 409 l 1,7,-1
EndSplineSet
EndChar

StartChar: uniE663
Encoding: 58979 58979 103
Width: 512
GlyphClass: 1
Flags: W
LayerCount: 2
Fore
SplineSet
256 159 m 1,0,-1
 50 365 l 1,1,-1
 71 387 l 1,2,-1
 256 201 l 1,3,-1
 441 387 l 1,4,-1
 462 365 l 1,5,-1
 256 159 l 1,6,-1
 256 159 l 1,0,-1
256 55 m 1,7,-1
 71 241 l 1,8,-1
 50 219 l 1,9,-1
 256 14 l 1,10,-1
 462 219 l 1,11,-1
 441 241 l 1,12,-1
 256 55 l 1,13,-1
 256 55 l 1,7,-1
EndSplineSet
EndChar

StartChar: uniE664
Encoding: 58980 58980 104
Width: 512
GlyphClass: 1
Flags: W
LayerCount: 2
Fore
SplineSet
291 480 m 1,0,-1
 60 480 l 1,1,-1
 60 -32 l 1,2,-1
 452 -32 l 1,3,-1
 452 320 l 1,4,-1
 291 480 l 1,5,-1
 291 480 l 1,0,-1
301 428 m 1,6,-1
 400 329 l 1,7,-1
 301 329 l 1,8,-1
 301 428 l 1,9,-1
 301 428 l 1,6,-1
90 -2 m 1,10,-1
 90 450 l 1,11,-1
 181 450 l 1,12,-1
 181 420 l 1,13,-1
 211 420 l 1,14,-1
 211 450 l 1,15,-1
 271 450 l 1,16,-1
 271 299 l 1,17,-1
 422 299 l 1,18,-1
 422 -2 l 1,19,-1
 90 -2 l 1,20,-1
 90 -2 l 1,10,-1
151 239 m 1,21,-1
 181 239 l 1,22,-1
 181 209 l 1,23,-1
 151 209 l 1,24,-1
 151 239 l 1,25,-1
 151 239 l 1,21,-1
181 239 m 1,26,-1
 181 269 l 1,27,-1
 211 269 l 1,28,-1
 211 239 l 1,29,-1
 181 239 l 1,30,-1
 181 239 l 1,26,-1
181 299 m 1,31,-1
 181 329 l 1,32,-1
 211 329 l 1,33,-1
 211 299 l 1,34,-1
 181 299 l 1,35,-1
 181 299 l 1,31,-1
151 299 m 1,36,-1
 181 299 l 1,37,-1
 181 269 l 1,38,-1
 151 269 l 1,39,-1
 151 299 l 1,40,-1
 151 299 l 1,36,-1
151 360 m 1,41,-1
 181 360 l 1,42,-1
 181 329 l 1,43,-1
 151 329 l 1,44,-1
 151 360 l 1,45,-1
 151 360 l 1,41,-1
181 360 m 1,46,-1
 181 390 l 1,47,-1
 211 390 l 1,48,-1
 211 360 l 1,49,-1
 181 360 l 1,50,-1
 181 360 l 1,46,-1
151 420 m 1,51,-1
 181 420 l 1,52,-1
 181 390 l 1,53,-1
 151 390 l 1,54,-1
 151 420 l 1,55,-1
 151 420 l 1,51,-1
181 197 m 1,56,57
 168 197 168 197 157 192.5 c 128,-1,58
 146 188 146 188 138 179.5 c 128,-1,59
 130 171 130 171 125 160 c 128,-1,60
 120 149 120 149 120 137 c 256,61,62
 120 125 120 125 125 114 c 128,-1,63
 130 103 130 103 138 94.5 c 128,-1,64
 146 86 146 86 157 81.5 c 128,-1,65
 168 77 168 77 181 77 c 2,66,67
 181 77 181 77 182 77 c 128,-1,68
 183 77 183 77 183.5 77 c 128,-1,69
 184 77 184 77 185 77 c 128,-1,70
 186 77 186 77 187 77 c 0,71,72
 195 78 195 78 201.5 80.5 c 128,-1,73
 208 83 208 83 214 87 c 128,-1,74
 220 91 220 91 225 96.5 c 128,-1,75
 230 102 230 102 233 108 c 0,76,77
 235 112 235 112 236.5 115.5 c 128,-1,78
 238 119 238 119 239 122.5 c 128,-1,79
 240 126 240 126 240.5 129.5 c 128,-1,80
 241 133 241 133 241 137 c 0,81,82
 241 149 241 149 236 160 c 128,-1,83
 231 171 231 171 223 179.5 c 128,-1,84
 215 188 215 188 204 192.5 c 128,-1,85
 193 197 193 197 181 197 c 1,86,-1
 181 197 l 1,56,57
207 123 m 1,87,88
 205 119 205 119 202.5 116.5 c 128,-1,89
 200 114 200 114 197 112 c 128,-1,90
 194 110 194 110 191 109 c 128,-1,91
 188 108 188 108 184 107 c 2,92,-1
 181 107 l 2,93,94
 174 107 174 107 168.5 109.5 c 128,-1,95
 163 112 163 112 159 116 c 128,-1,96
 155 120 155 120 153 125.5 c 128,-1,97
 151 131 151 131 151 137 c 256,98,99
 151 143 151 143 153 148.5 c 128,-1,100
 155 154 155 154 159.5 158 c 128,-1,101
 164 162 164 162 169 164.5 c 128,-1,102
 174 167 174 167 181 167 c 0,103,104
 187 167 187 167 192.5 164.5 c 128,-1,105
 198 162 198 162 202 158 c 128,-1,106
 206 154 206 154 208.5 148.5 c 128,-1,107
 211 143 211 143 211 137 c 0,108,109
 211 135 211 135 210.5 133.5 c 128,-1,110
 210 132 210 132 209.5 130 c 128,-1,111
 209 128 209 128 208.5 126 c 128,-1,112
 208 124 208 124 207 123 c 1,113,-1
 207 123 l 1,87,88
EndSplineSet
EndChar

StartChar: uniE665
Encoding: 58981 58981 105
Width: 512
GlyphClass: 1
Flags: W
LayerCount: 2
Fore
SplineSet
256 480 m 1,0,1
 203 480 203 480 156.5 460 c 128,-1,2
 110 440 110 440 75 405 c 128,-1,3
 40 370 40 370 20 323.5 c 128,-1,4
 0 277 0 277 -1 224 c 0,5,6
 0 171 0 171 20 124.5 c 128,-1,7
 40 78 40 78 75 43 c 128,-1,8
 110 8 110 8 156.5 -12 c 128,-1,9
 203 -32 203 -32 256 -32 c 0,10,11
 308 -32 308 -32 355.5 -12 c 128,-1,12
 403 8 403 8 437 43 c 128,-1,13
 471 78 471 78 491.5 124.5 c 128,-1,14
 512 171 512 171 511 224 c 0,15,16
 512 277 512 277 491.5 323.5 c 128,-1,17
 471 370 471 370 437 405 c 128,-1,18
 403 440 403 440 355.5 460 c 128,-1,19
 308 480 308 480 256 480 c 1,20,-1
 256 480 l 1,0,1
30 209 m 1,21,-1
 120 209 l 1,22,23
 119 197 119 197 121 185.5 c 128,-1,24
 123 174 123 174 124.5 163 c 128,-1,25
 126 152 126 152 129 141 c 128,-1,26
 132 130 132 130 134 119 c 1,27,-1
 57 119 l 1,28,29
 50 129 50 129 46.5 139.5 c 128,-1,30
 43 150 43 150 39 161.5 c 128,-1,31
 35 173 35 173 33.5 185 c 128,-1,32
 32 197 32 197 30 209 c 1,33,-1
 30 209 l 1,21,-1
120 239 m 1,34,-1
 30 239 l 1,35,36
 32 251 32 251 33.5 263 c 128,-1,37
 35 275 35 275 39 286.5 c 128,-1,38
 43 298 43 298 46.5 308.5 c 128,-1,39
 50 319 50 319 57 329 c 1,40,-1
 134 329 l 1,41,42
 132 318 132 318 128.5 307 c 128,-1,43
 125 296 125 296 124 285 c 128,-1,44
 123 274 123 274 121 262.5 c 128,-1,45
 119 251 119 251 120 239 c 1,46,-1
 120 239 l 1,34,-1
166 329 m 1,47,-1
 345 329 l 1,48,49
 347 319 347 319 350.5 307.5 c 128,-1,50
 354 296 354 296 356 285 c 128,-1,51
 358 274 358 274 359.5 262.5 c 128,-1,52
 361 251 361 251 361 239 c 1,53,-1
 150 239 l 1,54,55
 149 251 149 251 151 262.5 c 128,-1,56
 153 274 153 274 154.5 285 c 128,-1,57
 156 296 156 296 159.5 307.5 c 128,-1,58
 163 319 163 319 166 329 c 1,59,-1
 166 329 l 1,47,-1
150 209 m 1,60,-1
 361 209 l 1,61,62
 361 197 361 197 359.5 185.5 c 128,-1,63
 358 174 358 174 356 163 c 128,-1,64
 354 152 354 152 350.5 140.5 c 128,-1,65
 347 129 347 129 345 119 c 1,66,-1
 166 119 l 1,67,68
 163 129 163 129 160 140.5 c 128,-1,69
 157 152 157 152 155 163 c 128,-1,70
 153 174 153 174 151 185.5 c 128,-1,71
 149 197 149 197 150 209 c 1,72,-1
 150 209 l 1,60,-1
391 209 m 1,73,-1
 482 209 l 1,74,75
 480 197 480 197 478.5 185 c 128,-1,76
 477 173 477 173 473 161.5 c 128,-1,77
 469 150 469 150 465.5 139.5 c 128,-1,78
 462 129 462 129 455 119 c 1,79,-1
 376 119 l 1,80,81
 379 130 379 130 382 141 c 128,-1,82
 385 152 385 152 386.5 163 c 128,-1,83
 388 174 388 174 389.5 185.5 c 128,-1,84
 391 197 391 197 391 209 c 1,85,-1
 391 209 l 1,73,-1
392 239 m 1,86,87
 390 251 390 251 389.5 262.5 c 128,-1,88
 389 274 389 274 386.5 285 c 128,-1,89
 384 296 384 296 382 307 c 128,-1,90
 380 318 380 318 376 329 c 1,91,-1
 456 329 l 1,92,93
 461 319 461 319 465.5 308.5 c 128,-1,94
 470 298 470 298 473 286.5 c 128,-1,95
 476 275 476 275 478.5 263 c 128,-1,96
 481 251 481 251 481 239 c 1,97,-1
 392 239 l 1,98,-1
 392 239 l 1,86,87
436 360 m 1,99,-1
 366 360 l 1,100,101
 360 370 360 370 355.5 380.5 c 128,-1,102
 351 391 351 391 344.5 401.5 c 128,-1,103
 338 412 338 412 332 421.5 c 128,-1,104
 326 431 326 431 318 441 c 1,105,106
 337 436 337 436 353 428 c 128,-1,107
 369 420 369 420 384.5 409.5 c 128,-1,108
 400 399 400 399 412.5 386.5 c 128,-1,109
 425 374 425 374 437 360 c 1,110,-1
 436 360 l 1,99,-1
272 449 m 1,111,112
 283 439 283 439 290.5 428 c 128,-1,113
 298 417 298 417 306 406 c 128,-1,114
 314 395 314 395 320 383.5 c 128,-1,115
 326 372 326 372 333 360 c 1,116,-1
 178 360 l 1,117,118
 185 372 185 372 190.5 383.5 c 128,-1,119
 196 395 196 395 204 406 c 128,-1,120
 212 417 212 417 220 428 c 128,-1,121
 228 439 228 439 238 449 c 0,122,123
 240 449 240 449 242.5 449 c 128,-1,124
 245 449 245 449 247 449.5 c 128,-1,125
 249 450 249 450 251.5 450 c 128,-1,126
 254 450 254 450 255 450 c 0,127,128
 259 450 259 450 260.5 450 c 128,-1,129
 262 450 262 450 264.5 449.5 c 128,-1,130
 267 449 267 449 268.5 449 c 128,-1,131
 270 449 270 449 273 449 c 1,132,-1
 272 449 l 1,111,112
191 440 m 1,133,134
 185 431 185 431 178 421 c 128,-1,135
 171 411 171 411 166 401 c 128,-1,136
 161 391 161 391 155 380.5 c 128,-1,137
 149 370 149 370 146 360 c 1,138,-1
 75 360 l 1,139,140
 87 374 87 374 99.5 386.5 c 128,-1,141
 112 399 112 399 127 409 c 128,-1,142
 142 419 142 419 158 427 c 128,-1,143
 174 435 174 435 192 440 c 1,144,-1
 191 440 l 1,133,134
75 88 m 1,145,-1
 146 88 l 1,146,147
 149 78 149 78 155 67.5 c 128,-1,148
 161 57 161 57 166 47 c 128,-1,149
 171 37 171 37 178 27 c 128,-1,150
 185 17 185 17 192 7 c 1,151,152
 175 13 175 13 158 21 c 128,-1,153
 141 29 141 29 127 39 c 128,-1,154
 113 49 113 49 99.5 61.5 c 128,-1,155
 86 74 86 74 76 88 c 1,156,-1
 75 88 l 1,145,-1
238 -1 m 1,157,158
 229 9 229 9 220.5 20 c 128,-1,159
 212 31 212 31 205 42 c 128,-1,160
 198 53 198 53 191 64.5 c 128,-1,161
 184 76 184 76 179 88 c 1,162,-1
 332 88 l 1,163,164
 327 76 327 76 320 64.5 c 128,-1,165
 313 53 313 53 306 42 c 128,-1,166
 299 31 299 31 290 20 c 128,-1,167
 281 9 281 9 273 -1 c 0,168,169
 270 -1 270 -1 268.5 -1 c 128,-1,170
 267 -1 267 -1 264.5 -1.5 c 128,-1,171
 262 -2 262 -2 260.5 -2 c 128,-1,172
 259 -2 259 -2 255 -2 c 0,173,174
 254 -2 254 -2 251.5 -2 c 128,-1,175
 249 -2 249 -2 247 -1.5 c 128,-1,176
 245 -1 245 -1 242.5 -1 c 128,-1,177
 240 -1 240 -1 239 -1 c 2,178,-1
 238 -1 l 1,157,158
318 7 m 1,179,180
 326 17 326 17 332 26.5 c 128,-1,181
 338 36 338 36 344.5 46.5 c 128,-1,182
 351 57 351 57 355.5 67.5 c 128,-1,183
 360 78 360 78 366 88 c 1,184,-1
 436 88 l 1,185,186
 426 74 426 74 412.5 61.5 c 128,-1,187
 399 49 399 49 384.5 38.5 c 128,-1,188
 370 28 370 28 353 20 c 128,-1,189
 336 12 336 12 319 7 c 1,190,-1
 318 7 l 1,179,180
EndSplineSet
EndChar

StartChar: uniE666
Encoding: 58982 58982 106
Width: 512
GlyphClass: 1
Flags: W
LayerCount: 2
Fore
SplineSet
328 93 m 1,0,-1
 357 87 l 1,1,2
 352 60 352 60 338 38.5 c 128,-1,3
 324 17 324 17 305 1 c 128,-1,4
 286 -15 286 -15 261.5 -23.5 c 128,-1,5
 237 -32 237 -32 211 -32 c 0,6,7
 179 -32 179 -32 152 -20 c 128,-1,8
 125 -8 125 -8 104 12.5 c 128,-1,9
 83 33 83 33 71.5 60 c 128,-1,10
 60 87 60 87 59 119 c 0,11,12
 60 144 60 144 68 167.5 c 128,-1,13
 76 191 76 191 91 210.5 c 128,-1,14
 106 230 106 230 126.5 244 c 128,-1,15
 147 258 147 258 172 264 c 1,16,-1
 179 235 l 1,17,18
 160 230 160 230 143 219 c 128,-1,19
 126 208 126 208 115 192.5 c 128,-1,20
 104 177 104 177 96.5 158 c 128,-1,21
 89 139 89 139 90 119 c 0,22,23
 89 94 89 94 99 72 c 128,-1,24
 109 50 109 50 125 33.5 c 128,-1,25
 141 17 141 17 163.5 7.5 c 128,-1,26
 186 -2 186 -2 210 -2 c 0,27,28
 232 -2 232 -2 251 5 c 128,-1,29
 270 12 270 12 286 24.5 c 128,-1,30
 302 37 302 37 312.5 54.5 c 128,-1,31
 323 72 323 72 328 93 c 1,32,-1
 328 93 l 1,0,-1
481 25 m 1,33,-1
 482 -6 l 1,34,-1
 425 -6 l 1,35,-1
 397 118 l 1,36,-1
 210 118 l 1,37,-1
 195 362 l 1,38,39
 184 365 184 365 176.5 370 c 128,-1,40
 169 375 169 375 162.5 383 c 128,-1,41
 156 391 156 391 153.5 400 c 128,-1,42
 151 409 151 409 150 420 c 0,43,44
 151 432 151 432 155 443 c 128,-1,45
 159 454 159 454 167.5 462.5 c 128,-1,46
 176 471 176 471 186.5 475.5 c 128,-1,47
 197 480 197 480 211 480 c 0,48,49
 222 480 222 480 233.5 475.5 c 128,-1,50
 245 471 245 471 253 462.5 c 128,-1,51
 261 454 261 454 266 443 c 128,-1,52
 271 432 271 432 270 420 c 0,53,54
 271 409 271 409 267 399.5 c 128,-1,55
 263 390 263 390 257.5 382.5 c 128,-1,56
 252 375 252 375 243 369.5 c 128,-1,57
 234 364 234 364 225 361 c 1,58,-1
 232 241 l 1,59,-1
 343 268 l 1,60,-1
 349 239 l 1,61,-1
 235 210 l 1,62,-1
 239 149 l 1,63,-1
 421 149 l 1,64,-1
 449 25 l 1,65,-1
 482 25 l 1,66,-1
 481 25 l 1,33,-1
210 390 m 1,67,68
 217 390 217 390 222 392 c 128,-1,69
 227 394 227 394 231.5 398.5 c 128,-1,70
 236 403 236 403 238 408.5 c 128,-1,71
 240 414 240 414 241 420 c 0,72,73
 240 426 240 426 238 431.5 c 128,-1,74
 236 437 236 437 231.5 441 c 128,-1,75
 227 445 227 445 222 447.5 c 128,-1,76
 217 450 217 450 210 450 c 0,77,78
 205 450 205 450 199 447.5 c 128,-1,79
 193 445 193 445 189 441 c 128,-1,80
 185 437 185 437 182.5 431.5 c 128,-1,81
 180 426 180 426 181 420 c 0,82,83
 180 414 180 414 182.5 408.5 c 128,-1,84
 185 403 185 403 189 398.5 c 128,-1,85
 193 394 193 394 199 392 c 128,-1,86
 205 390 205 390 210 390 c 1,87,-1
 210 390 l 1,67,68
EndSplineSet
EndChar

StartChar: uniE667
Encoding: 58983 58983 107
Width: 512
GlyphClass: 1
Flags: W
LayerCount: 2
Fore
SplineSet
0 480 m 1,0,-1
 0 360 l 1,1,-1
 512 360 l 1,2,-1
 512 480 l 1,3,-1
 0 480 l 1,4,-1
 0 480 l 1,0,-1
482 390 m 1,5,-1
 30 390 l 1,6,-1
 30 450 l 1,7,-1
 482 450 l 1,8,-1
 482 390 l 1,9,-1
 482 390 l 1,5,-1
0 179 m 1,10,-1
 512 179 l 1,11,-1
 512 299 l 1,12,-1
 0 299 l 1,13,-1
 0 179 l 1,14,-1
 0 179 l 1,10,-1
30 269 m 1,15,-1
 482 269 l 1,16,-1
 482 209 l 1,17,-1
 30 209 l 1,18,-1
 30 269 l 1,19,-1
 30 269 l 1,15,-1
0 -2 m 1,20,-1
 512 -2 l 1,21,-1
 512 119 l 1,22,-1
 0 119 l 1,23,-1
 0 -2 l 1,24,-1
 0 -2 l 1,20,-1
30 88 m 1,25,-1
 482 88 l 1,26,-1
 482 28 l 1,27,-1
 30 28 l 1,28,-1
 30 88 l 1,29,-1
 30 88 l 1,25,-1
EndSplineSet
EndChar

StartChar: uniE668
Encoding: 58984 58984 108
Width: 512
GlyphClass: 1
Flags: W
LayerCount: 2
Fore
SplineSet
151 480 m 1,0,-1
 151 360 l 1,1,-1
 512 360 l 1,2,-1
 512 480 l 1,3,-1
 151 480 l 1,4,-1
 151 480 l 1,0,-1
482 390 m 1,5,-1
 181 390 l 1,6,-1
 181 450 l 1,7,-1
 482 450 l 1,8,-1
 482 390 l 1,9,-1
 482 390 l 1,5,-1
151 179 m 1,10,-1
 512 179 l 1,11,-1
 512 299 l 1,12,-1
 151 299 l 1,13,-1
 151 179 l 1,14,-1
 151 179 l 1,10,-1
181 269 m 1,15,-1
 482 269 l 1,16,-1
 482 209 l 1,17,-1
 181 209 l 1,18,-1
 181 269 l 1,19,-1
 181 269 l 1,15,-1
151 -2 m 1,20,-1
 512 -2 l 1,21,-1
 512 119 l 1,22,-1
 151 119 l 1,23,-1
 151 -2 l 1,24,-1
 151 -2 l 1,20,-1
181 88 m 1,25,-1
 482 88 l 1,26,-1
 482 28 l 1,27,-1
 181 28 l 1,28,-1
 181 88 l 1,29,-1
 181 88 l 1,25,-1
0 360 m 1,30,-1
 120 360 l 1,31,-1
 120 480 l 1,32,-1
 0 480 l 1,33,-1
 0 360 l 1,34,-1
 0 360 l 1,30,-1
30 450 m 1,35,-1
 90 450 l 1,36,-1
 90 390 l 1,37,-1
 30 390 l 1,38,-1
 30 450 l 1,39,-1
 30 450 l 1,35,-1
0 179 m 1,40,-1
 120 179 l 1,41,-1
 120 299 l 1,42,-1
 0 299 l 1,43,-1
 0 179 l 1,44,-1
 0 179 l 1,40,-1
30 269 m 1,45,-1
 90 269 l 1,46,-1
 90 209 l 1,47,-1
 30 209 l 1,48,-1
 30 269 l 1,49,-1
 30 269 l 1,45,-1
0 -2 m 1,50,-1
 120 -2 l 1,51,-1
 120 119 l 1,52,-1
 0 119 l 1,53,-1
 0 -2 l 1,54,-1
 0 -2 l 1,50,-1
30 88 m 1,55,-1
 90 88 l 1,56,-1
 90 28 l 1,57,-1
 30 28 l 1,58,-1
 30 88 l 1,59,-1
 30 88 l 1,55,-1
EndSplineSet
EndChar

StartChar: uniE669
Encoding: 58985 58985 109
Width: 512
GlyphClass: 1
Flags: W
LayerCount: 2
Fore
SplineSet
0 269 m 1,0,-1
 211 269 l 1,1,-1
 211 480 l 1,2,-1
 0 480 l 1,3,-1
 0 269 l 1,4,-1
 0 269 l 1,0,-1
30 450 m 1,5,-1
 181 450 l 1,6,-1
 181 299 l 1,7,-1
 30 299 l 1,8,-1
 30 450 l 1,9,-1
 30 450 l 1,5,-1
301 480 m 1,10,-1
 301 269 l 1,11,-1
 512 269 l 1,12,-1
 512 480 l 1,13,-1
 301 480 l 1,14,-1
 301 480 l 1,10,-1
482 299 m 1,15,-1
 331 299 l 1,16,-1
 331 450 l 1,17,-1
 482 450 l 1,18,-1
 482 299 l 1,19,-1
 482 299 l 1,15,-1
0 -32 m 1,20,-1
 211 -32 l 1,21,-1
 211 179 l 1,22,-1
 0 179 l 1,23,-1
 0 -32 l 1,24,-1
 0 -32 l 1,20,-1
30 149 m 1,25,-1
 181 149 l 1,26,-1
 181 -2 l 1,27,-1
 30 -2 l 1,28,-1
 30 149 l 1,29,-1
 30 149 l 1,25,-1
301 -32 m 1,30,-1
 512 -32 l 1,31,-1
 512 179 l 1,32,-1
 301 179 l 1,33,-1
 301 -32 l 1,34,-1
 301 -32 l 1,30,-1
331 149 m 1,35,-1
 482 149 l 1,36,-1
 482 -2 l 1,37,-1
 331 -2 l 1,38,-1
 331 149 l 1,39,-1
 331 149 l 1,35,-1
EndSplineSet
EndChar

StartChar: uniE66A
Encoding: 58986 58986 110
Width: 512
GlyphClass: 1
Flags: W
LayerCount: 2
Fore
SplineSet
211 360 m 1,0,-1
 241 360 l 1,1,-1
 241 299 l 1,2,-1
 211 299 l 1,3,-1
 211 329 l 1,4,-1
 151 329 l 1,5,-1
 151 88 l 1,6,-1
 181 88 l 1,7,-1
 181 58 l 1,8,-1
 90 58 l 1,9,-1
 90 88 l 1,10,-1
 120 88 l 1,11,-1
 120 329 l 1,12,-1
 60 329 l 1,13,-1
 60 299 l 1,14,-1
 30 299 l 1,15,-1
 30 360 l 1,16,-1
 211 360 l 1,17,-1
 211 360 l 1,0,-1
452 360 m 1,18,-1
 271 360 l 1,19,-1
 271 299 l 1,20,-1
 301 299 l 1,21,-1
 301 329 l 1,22,-1
 361 329 l 1,23,-1
 361 88 l 1,24,-1
 331 88 l 1,25,-1
 331 58 l 1,26,-1
 422 58 l 1,27,-1
 422 88 l 1,28,-1
 392 88 l 1,29,-1
 392 329 l 1,30,-1
 452 329 l 1,31,-1
 452 299 l 1,32,-1
 482 299 l 1,33,-1
 482 360 l 1,34,-1
 452 360 l 1,35,-1
 452 360 l 1,18,-1
EndSplineSet
EndChar

StartChar: uniE66B
Encoding: 58987 58987 111
Width: 512
GlyphClass: 1
Flags: W
LayerCount: 2
Fore
SplineSet
512 -2 m 1,0,-1
 512 -32 l 1,1,-1
 0 -32 l 1,2,-1
 0 -2 l 1,3,-1
 512 -2 l 1,4,-1
 512 -2 l 1,0,-1
241 429 m 1,5,-1
 241 88 l 1,6,-1
 271 88 l 1,7,-1
 271 429 l 1,8,-1
 381 319 l 1,9,-1
 402 340 l 1,10,-1
 256 486 l 1,11,-1
 110 340 l 1,12,-1
 131 319 l 1,13,-1
 241 429 l 1,14,-1
 241 429 l 1,5,-1
EndSplineSet
EndChar

